<?xml version="1.0" encoding="utf-8"?>
<!-- Generator: Adobe Illustrator 17.0.0, SVG Export Plug-In . SVG Version: 6.00 Build 0)  -->
<!DOCTYPE svg PUBLIC "-//W3C//DTD SVG 1.1//EN" "http://www.w3.org/Graphics/SVG/1.1/DTD/svg11.dtd">
<svg version="1.1" id="Layer_1" xmlns="http://www.w3.org/2000/svg" xmlns:xlink="http://www.w3.org/1999/xlink" x="0px" y="0px"
	 width="301.065px" height="298px" viewBox="0 0 301.065 298" enable-background="new 0 0 301.065 298" xml:space="preserve">
<g id="Exact_Targer">
	<path fill="#F79822" d="M289.263,273.002c0,7.686-6.232,13.918-13.918,13.918H24.046c-7.686,0-13.918-6.232-13.918-13.918V21.317
		c0-7.686,6.232-13.918,13.918-13.918h251.299c7.686,0,13.918,6.232,13.918,13.918V273.002z"/>
	<g>
		<path fill="#FFFFFF" d="M70.805,260.292c-4.909-0.005-9.818,0.05-14.726-0.021c-4.584-0.066-6.411-2.832-4.663-7.124
			c0.591-1.451,1.537-2.784,2.462-4.069c23.327-32.407,46.624-64.835,70.088-97.142c2.357-3.245,2.38-5.388,0.008-8.649
			c-23.57-32.394-46.97-64.913-70.396-97.411c-0.924-1.282-1.856-2.637-2.399-4.101c-1.538-4.142,0.467-7.305,4.839-7.364
			c9.816-0.132,19.634-0.05,29.452-0.042c4.99,0.004,7.373,3.683,9.869,7.126c11.602,16.002,23.174,32.027,34.762,48.039
			c13.144,18.161,26.23,36.363,39.508,54.425c2.055,2.795,1.811,4.671-0.116,7.315c-25.243,34.623-50.418,69.295-75.517,104.021
			c-2.581,3.571-5.578,5.332-10.038,5.06C79.574,260.089,75.183,260.297,70.805,260.292z"/>
		<path fill="#FFFFFF" d="M185.866,128.006c-1.18-1.348-2.107-2.258-2.863-3.293c-5.866-8.035-11.637-16.139-17.581-24.115
			c-1.602-2.15-1.69-3.755-0.068-5.977c13.373-18.321,26.649-36.713,39.925-55.104c2.504-3.468,5.627-5.32,10.08-5.231
			c8.752,0.176,17.514-0.086,26.263,0.144c2.026,0.053,5.282,0.908,5.743,2.194c0.766,2.134,0.545,5.458-0.695,7.331
			c-5.633,8.511-11.749,16.703-17.725,24.986c-13.193,18.287-26.401,36.564-39.622,54.831
			C188.342,125.127,187.208,126.37,185.866,128.006z"/>
		<path fill="#FFFFFF" d="M186.076,167.519c1.004,1.174,2.006,2.19,2.831,3.333c18.933,26.24,37.849,52.493,56.756,78.752
			c0.695,0.966,1.39,1.963,1.879,3.04c2.081,4.578,0.207,7.626-4.738,7.649c-9.549,0.043-19.1-0.088-28.646,0.061
			c-3.543,0.055-6.14-1.233-8.152-4.008c-13.544-18.682-27.122-37.34-40.554-56.101c-0.794-1.109-1.154-3.554-0.483-4.526
			c6.253-9.054,12.769-17.927,19.243-26.828C184.57,168.397,185.234,168.125,186.076,167.519z"/>
	</g>
</g>
</svg>
