<?xml version="1.0" encoding="utf-8"?>
<!-- Generator: Adobe Illustrator 17.0.0, SVG Export Plug-In . SVG Version: 6.00 Build 0)  -->
<!DOCTYPE svg PUBLIC "-//W3C//DTD SVG 1.1//EN" "http://www.w3.org/Graphics/SVG/1.1/DTD/svg11.dtd">
<svg version="1.1" id="Layer_1" xmlns="http://www.w3.org/2000/svg" xmlns:xlink="http://www.w3.org/1999/xlink" x="0px" y="0px"
	 width="301.065px" height="298px" viewBox="0 0 301.065 298" enable-background="new 0 0 301.065 298" xml:space="preserve">
<g>
	<path fill="#F79923" d="M0.065,79c0-26.333,0.04-52.667-0.065-79c-0.01-2.501,0.566-3.065,3.065-3.063c98,0.074,196,0.074,294,0
		C299.564-3.065,300.138-2.5,300.13,0c-0.1,30.333-0.065,60.666-0.065,91c-18.616,0-37.232-0.003-55.848,0.005
		c-2.154,0.001-4.261,0.227-6.411,0.625c-6.635,1.229-13.693,4.878-19.259-2.48c-0.084-0.111-0.303-0.121-0.459-0.178
		c0.335-1.783,1.479-2.986,2.872-4.012c2.332-0.505,4.225-1.578,5.118-3.948c0.376-0.229,0.753-0.457,1.13-0.685
		c-0.157-0.157-0.314-0.314-0.472-0.472c-0.229,0.376-0.457,0.753-0.686,1.129c-0.691-0.018-1.383-0.037-2.074-0.055
		c0.001-1.393,0.537-2.602,1.414-3.632c9.99-11.734,18.172-24.8,27.356-37.128c5.629-7.556,11.008-15.298,16.476-22.973
		c2.084-2.926,2.641-6.119,1.031-9.404c-1.552-3.167-4.605-2.738-7.422-2.738c-11.311,0.002-22.626,0.179-33.931-0.071
		c-5.85-0.13-9.493,2.669-12.601,7.164c-6.364,9.206-12.879,18.308-19.415,27.393c-10.895,15.144-21.855,30.24-32.788,45.357
		c-0.186,0.96-0.383,2.758-0.555,2.755c-3.463-0.048-3.561,1.36-2.453,4.189c0.42,1.071-1.446,4.02-2.465,2.655
		c-2.561-3.426-4.6-1.282-6.812-0.316c-1.983,0.867-4.048,1.307-5.572-0.279c-2.676-2.784-4.184-1.945-5.041,1.504
		c-2.986-1.968-3.85-5.669-7.326-6.331c-1.745-0.328-2.154-2.01-2.983-3.151C112.481,60.592,94.16,35.196,75.734,9.876
		c-1.978-2.718-4.664-4.791-8.339-4.795C54.409,5.067,41.422,4.99,28.438,5.127c-4.339,0.046-7.005,4.216-5.619,8.466
		c0.503,1.543,1.435,2.993,2.386,4.335c5.816,8.212,11.699,16.376,17.548,24.565c6.781,9.493,13.55,18.995,20.324,28.493
		c-1.634-0.402-2.871,1.791-4.58,0.726c-0.714-0.445-0.801-2.91-2.171-0.926c-0.8,1.158-2.252,2.653-0.877,4.428
		c1.098,1.417,2.162,1.003,3.307-0.011c1.003-0.889,2.193-0.28,3.308-0.201c1.523,2.848,2.471,0.54,3.572-0.398
		c0.211,0.313,0.422,0.626,0.633,0.938c-0.551,4.19-0.248,8.317,2.04,12.667c-3.352-0.566-4.37-2.164-4.063-4.057
		c0.849-5.238-2.393-5.183-6-5.174C38.852,79.025,19.458,79,0.065,79z M227.921,91.039c4.587,0.173,7.112-3.389,9.567-6.933
		c0.732-1.057,0.329-2.277-0.771-3.028c-1.225-0.836-2.167-0.329-2.87,0.824c-1.678,2.754-4.752,3.388-7.306,4.809
		c-1.252,0.697-3.949-0.386-3.564,2.221C223.32,91.257,225.668,90.871,227.921,91.039z M48.795,71.638
		c-0.225,0.732-0.524,1.197-0.433,1.566c0.079,0.323,0.596,0.54,0.919,0.803c0.175-0.412,0.513-0.84,0.475-1.231
		C49.723,72.445,49.257,72.156,48.795,71.638z"/>
	<path fill="#D5682E" d="M0.065,293c0-7.333,0-14.667,0-22c5.554,0.467,11.237-1.058,16.682,1.071
		c0.674,0.263,1.402,0.38,1.654-0.39c1.518-4.633,3.959-2.915,6.06-0.718c1.503,1.572,2.782-0.057,4.122,0.261
		c-1.516,2.102-3.245,4.088-4.476,6.346c-0.882,1.618-1.98,3.193-1.697,5.424c0.685,5.394,2.085,6.271,10.62,5.801
		c10.02,0,20.041,0,30.061,0c4.473,0.231,9.196,1.259,12.022-3.767l-0.021,0.015c2.029-1.642,3.396-3.79,4.628-6.043
		c0.325-0.154,0.461-0.41,0.407-0.766c0.291-0.416,0.583-0.832,0.874-1.248l0.049-0.051c0.244-0.325,0.487-0.65,0.731-0.974
		l0.163-0.339c1.006-0.625,1.801-1.406,1.967-2.654c5.064-6.666,10.127-13.332,15.19-19.998c1.331,2.501,1.624,4.753-1.441,6.25
		c-1.407,0.687-1.558,2.074-1.738,3.39c-0.152,1.105-1.159,2.441-0.08,3.285c1.413,1.106,2.391-0.482,3.376-1.198
		c2.906-2.113,4.668-5.109,6.234-8.27c0.613-1.237,0.804-3.319,2.824-2.924c2.249,0.439,1.597,2.561,1.775,4.125
		c0.056,0.494,0.024,0.998,0.023,1.498c-0.006,2.572,0.674,4.053,3.484,2.224c2.387-1.553,5.088-1.35,7.749-1.35
		c21.149-0.002,42.298,0.045,63.447-0.042c3.96-0.016,7.724-0.229,8.034,5.295c2.944-2.092,6.084-3.418,5.469-7.408
		c6.322,8.494,12.637,16.993,18.971,25.479c2.102,2.816,4.216,5.657,8.252,5.661c13.625,0.011,27.25-0.008,40.875,0.039
		c3.186,0.011,4.452-1.757,4.7-4.609c0.239-2.744-0.516-5.16-2.028-7.521c-1.678-2.621-4.273-4.644-5.13-7.796
		c1.757-0.23,4.543,4.076,5.231-1.292c0.129-1.006,1.966-0.645,2.361,0.303c1.46,3.506,4.444,2.87,7.192,2.881
		c7.128,0.028,14.256,0.009,21.384,0.009c0,7.488-0.156,14.982,0.079,22.463c0.09,2.879-0.44,3.646-3.534,3.631
		c-31.783-0.153-63.568-0.094-95.352-0.094c-65.731,0-131.462,0-197.194,0C3.599,294.799,1.308,294.424,0.065,293z M18.579,280.998
		c-0.453,3.765-2.148,6.27-0.374,9.04c0.644,1.006,1.524,2.026,2.772,1.281c1.086-0.648,0.512-1.768-0.071-2.569
		C19.478,286.786,20.737,284.199,18.579,280.998z"/>
	<path fill="#F19025" d="M0.065,135c0-11,0-22,0-33c23.968,0.486,47.947-0.827,71.923,0.603c3.58,0.214,9.243,1.99,10.266-4.696
		c7.451,8.607,13.693,18.1,20.1,27.473c0.256,3.489-5.167,3.782-4.289,7.621l0.002-0.002c-2.633,1.612-5.473,2.052-8.562,2.045
		C59.692,134.97,29.878,135,0.065,135z"/>
	<path fill="#EF8D25" d="M300.065,119c0,8,0,16,0,24c-39.247,0-78.495-0.026-117.742,0.043c-3.707,0.007-7.255-0.302-10.634-1.874
		c-4.553-4.908-8.493-10.262-11.76-16.108c0.247-2.405-0.433-4.046-3.241-3.935c-0.832-0.435-0.87-1.224-0.897-2.018
		c6.989,1.256,14.711-3.248,21.145,2.715c0.51,0.473,0.965-0.591,1.268-1.134c0.606-1.084,1.45-0.936,1.852-0.028
		c2.514,5.673,7.54,4.195,12.007,4.335c1.335,0,2.669,0,4.004,0.001c5.447-0.418,2.844-3.511,2-6.019
		c0.667-0.995,1.334-1.99,2.002-2.985c3.113,1.011,5.561,2.809,6.939,7.453c1.456-5.003,4.488-4.439,7.267-4.44
		C242.872,118.997,271.469,119,300.065,119z"/>
	<path fill="#EB8826" d="M98.064,133.001c-0.878-3.839,4.545-4.132,4.289-7.621c4.645,6.33,9.183,12.742,13.996,18.941
		c1.549,1.994,2.094,3.273,0.345,5.511c-4.451,5.694-8.598,11.626-12.867,17.462c-1.244-0.533-2.895,1.517-3.908-0.698
		c-2.024-4.425-5.936-4.635-10.108-4.627C59.896,162.026,29.981,162,0.065,162c0-9,0-18,0-27c29.813,0,59.626-0.029,89.439,0.044
		c3.089,0.008,5.929-0.433,8.561-2.045c0.1,2.368,0.334,4.644,3.687,3.24c1.644-0.688,2.03,0.176,2.297,1.51
		c0.204,1.016-0.025,2.798,1.816,2.06c1.46-0.586,2.212-1.909,1.507-3.683C105.489,131.383,101.872,131.939,98.064,133.001z"/>
	<path fill="#EA8626" d="M171.69,141.169c3.379,1.572,6.927,1.881,10.634,1.874c39.247-0.069,78.495-0.043,117.742-0.043
		c0,8,0,16,0,24c-27.945,0-55.89,0.002-83.834-0.005c-1.662,0-3.527,0.413-4.947-0.19c-3.526-1.497-6.498-1.84-9.354,1.373
		c-1.107,1.245-2.836,0.328-4.186-0.356c-5.291-2.684-10.495-2.488-15.772,0.162c-2.624,1.318-5.03,2.444-8.104-0.245
		c-1.833-1.604-4.811-2.935-7.801-2.74c-0.169-1.165-0.338-2.33-0.506-3.496l0.01,0.272c0.38-0.437,0.76-0.874,1.14-1.311
		l-0.247-0.105c4.174,0.786,3.985-1.693,3.364-4.494C172.011,151.163,177.029,146.822,171.69,141.169z"/>
	<path fill="#F39324" d="M300.065,119c-28.597,0-57.193-0.003-85.79,0.006c-2.779,0.001-5.811-0.563-7.267,4.44
		c-1.378-4.643-3.826-6.442-6.939-7.453c-0.023-0.698-0.046-1.395-0.07-2.093l-0.027,0.077c0.335-0.42,0.671-0.839,1.006-1.259
		c0,0-0.218,0.043-0.218,0.043c4.259,1.813,6.297,1.217,6.451-4.213c0.066-2.312,1.566-5.832,4.212-7.13
		c2.877-1.412,1.083-2.782,0.679-4.286c1.751-2.899,3.403-5.872,5.986-8.161c0.156,0.057,0.375,0.067,0.459,0.178
		c5.566,7.358,12.624,3.709,19.259,2.48c2.149-0.398,4.257-0.624,6.411-0.625C262.833,90.996,281.449,91,300.065,91
		C300.065,100.333,300.065,109.666,300.065,119z"/>
	<path fill="#E68128" d="M166.067,164.998c2.99-0.195,5.968,1.136,7.801,2.74c3.074,2.689,5.48,1.563,8.104,0.245
		c5.277-2.65,10.481-2.846,15.772-0.162c1.35,0.685,3.079,1.601,4.186,0.356c2.856-3.213,5.828-2.869,9.354-1.373
		c1.421,0.603,3.285,0.19,4.947,0.19c27.945,0.006,55.89,0.004,83.834,0.005c0,5,0,10,0,15c-28.748,0-57.497,0.044-86.245-0.048
		c-4.226-0.014-7.338,1.213-8.929,5.317c-2.117-1.978-3.978-4.143-5.015-6.905c0.22-3.293-2.449-5.218-3.717-7.805
		c-0.616-1.256-0.851-3.161-2.747-2.984c-1.78,0.166-1.979,1.928-2.384,3.331l-0.038,0.075c-0.295,0.365-0.591,0.729-0.886,1.094
		c-2.747,3.642-5.494,7.283-8.241,10.925c-1.092-0.107-2.068-1.789-2.998-0.917c-1.589,1.491,0.16,3.256,0.204,4.923l0.004-0.003
		c-2.108,0.108-3.061,1.161-2.694,3.293l-0.006,0.053c-1.904-0.835-4.32-3.189-4.343,1.491c-0.013,2.671-1.778,3.19-3.964,3.159
		c-0.141-1.615,0.038-3.349-0.509-4.813c-0.614-1.642-2.046-3.653-3.974-2.568c-1.638,0.922,0.347,2.557,0.729,3.82
		c0.537,1.777,1.913,2.993,3.754,3.561c-0.153,1.427,0.208,3.202-1.803,3.583c-1.46,0.277-1.889-1.023-2.414-2.05
		c-0.824-1.613-2.47-2.382-3.939-2.823c-6.248-1.877-8.221-7.043-10.063-12.393c3.299-6.012,7.441-11.407,12.056-16.455l0.321,0.232
		c0.328,1.036,0.933,1.841,2.116,1.54c1.945-0.495,1.579-2.212,1.724-3.631L166.067,164.998z M176.407,173.642
		c1.23,2.265,2.034,4.03,3.103,5.618c0.734,1.089,1.892,1.236,2.923,0.192c0.598-0.605,1.207-1.706,0.234-1.991
		C180.392,176.793,179.913,173.706,176.407,173.642z M156.172,185.98c1.234,0.4,1.691-0.222,1.584-1.204
		c-0.156-1.437-1.057-2.466-2.422-2.827c-1.148-0.304-2.114,0.583-2.195,1.521C152.956,185.588,155.379,184.93,156.172,185.98z
		 M167.657,171.645c-0.118-0.263-0.17-0.627-0.36-0.726c-0.162-0.085-0.483,0.135-0.734,0.22c0.156,0.336,0.313,0.671,0.469,1.007
		C167.236,171.981,167.441,171.817,167.657,171.645z"/>
	<path fill="#E68128" d="M0.065,162c29.916,0,59.831,0.027,89.747-0.03c4.172-0.008,8.084,0.202,10.108,4.627
		c1.013,2.214,2.664,0.164,3.908,0.698c-4.659,6.805-9.078,13.787-14.628,19.939c-2.502-3.621-5.335-5.276-9.518-2.197
		c-1.946,1.432-4.492,0.956-6.808,0.957c-24.269,0.01-48.539,0.007-72.808,0.007C0.065,178,0.065,170,0.065,162z"/>
	<path fill="#DF762B" d="M300.065,200c0,9.667,0,19.333,0,29c-17.248,0.001-34.496-0.054-51.743,0.044
		c-3.9,0.022-8.154-0.318-10.404,4.115c-6.813-8.319-13.01-17.086-18.887-26.084c-0.26-0.345-0.521-0.69-0.781-1.035
		c-0.173-0.311-0.346-0.621-0.518-0.932c0.776-0.035,1.553-0.07,2.329-0.104c0.225,0.378,0.45,0.756,0.675,1.134
		c0.156-0.156,0.312-0.313,0.468-0.469c-0.378-0.224-0.757-0.449-1.135-0.673c2.318-3.708,5.563-5.102,10.012-5.071
		C253.408,200.085,276.737,200,300.065,200z"/>
	<path fill="#F59623" d="M82.254,97.908c-1.023,6.685-6.686,4.909-10.266,4.695c-23.975-1.43-47.955-0.117-71.923-0.603
		c0-7.667,0-15.333,0-23c19.393,0,38.787,0.026,58.18-0.022c3.607-0.009,6.849-0.064,6,5.174c-0.307,1.893,0.711,3.491,4.063,4.057
		c-2.288-4.351-2.591-8.477-2.04-12.667c0.291,0.425,0.582,0.849,0.873,1.274c0.311,0.395,0.621,0.789,0.932,1.184
		c3.358,3.317,5.946,7.189,8.146,11.338c-0.04,4.286,1.557,7.421,6.007,8.551L82.254,97.908z"/>
	<path fill="#E47E29" d="M300.065,200c-23.328,0-46.657,0.086-69.984-0.075c-4.448-0.031-7.694,1.364-10.012,5.071l-0.008,0.008
		c-0.776,0.035-1.553,0.07-2.329,0.105c-4.781-5.587-9.178-11.449-12.842-17.84c1.591-4.104,4.703-5.33,8.929-5.317
		c28.748,0.092,57.497,0.048,86.245,0.048C300.065,188,300.065,194,300.065,200z"/>
	<path fill="#DF762B" d="M0.065,228c0-8,0-16,0-24c19.219-0.001,38.438,0.017,57.657-0.022c2.84-0.006,5.62,0.208,8.344,1.021
		c0.189,2.001,3.977,4.004-0.002,6.003c-0.124-0.245-0.247-0.49-0.371-0.735c0.124,0.244,0.249,0.488,0.373,0.733
		c0.21,1.048-0.457,2.592,1.044,2.937c1.151,0.265,1.498-1.082,1.912-1.915c0.862-1.731,1.96-3.056,4.086-3.055
		c-3.233,6.749-7.932,12.474-12.69,18.157c-1.233-0.225-2.524,1.557-3.667,0.051c-2.471-3.255-3.865-1.957-5.262,0.962
		c-0.613,1.28-1.789,2.897-3.482,1.448c-2.476-2.118-5.328-1.547-8.084-1.559C26.638,227.97,13.351,228,0.065,228z"/>
	<path fill="#E47E29" d="M66.066,204.999c-2.724-0.813-5.504-1.027-8.344-1.021c-19.219,0.039-38.438,0.022-57.657,0.022
		c0-6,0-12,0-18c24.269,0,48.539,0.003,72.808-0.007c2.316-0.001,4.862,0.476,6.808-0.957c4.183-3.079,7.016-1.424,9.518,2.197
		c-0.395,0.586-0.79,1.173-1.186,1.759c-0.891,0.371-1.457,0.995-1.553,1.987l-0.049,0.191c-2.411-0.915-1.989,0.333-1.339,1.754
		c-0.278,0.4-0.555,0.8-0.833,1.2c-0.431,0.428-0.862,0.857-1.293,1.285l-0.172,0.184l-0.195-0.159
		c-0.185-0.158-0.369-0.317-0.554-0.475c0.024-1.655,0.035-3.304-1.956-3.966c-0.278-0.755-0.542-1.56-1.561-1.487
		c-0.18,0.013-0.519,0.479-0.467,0.611c0.365,0.927,1.264,0.762,2.019,0.886c0,0.666-0.001,1.332-0.001,1.999
		c-9.421-1.458-13.835,2.326-13.995,11.997L66.066,204.999z M72.411,189.738c-0.725-0.232-1.19-0.538-1.56-0.45
		c-0.325,0.077-0.544,0.597-0.81,0.922c0.411,0.178,0.837,0.519,1.229,0.484C71.6,190.663,71.892,190.197,72.411,189.738z"/>
	<path fill="#DA6E2C" d="M237.918,233.159c2.251-4.432,6.505-4.092,10.404-4.114c17.247-0.098,34.495-0.044,51.743-0.044
		c0,6.667,0,13.333,0,20c-14.132,0.346-28.285-0.735-42.4,0.588c-2.787,0.261-3.466-1.321-3.599-3.589
		c-1.361,1.366-2.719,2.735-4.078,4.104C245.705,244.64,241.253,239.297,237.918,233.159z"/>
	<path fill="#DA6E2C" d="M0.065,228c13.286,0,26.572-0.029,39.858,0.025c2.756,0.011,5.608-0.559,8.084,1.559
		c1.693,1.449,2.869-0.168,3.482-1.448c1.397-2.919,2.791-4.216,5.262-0.962c1.144,1.506,2.434-0.276,3.667-0.051
		c-5.751,9.081-12.026,17.785-18.778,26.147c-3.592-0.756-4.989-4.588-10.286-4.257c-10.308,0.644-20.851,0.296-31.29-0.013
		C0.065,242,0.065,235,0.065,228z"/>
	<path fill="#D76B2C" d="M254.068,246.002c0.13,2.265,0.81,3.848,3.597,3.586c14.115-1.323,28.268-0.242,42.4-0.588
		c0,7.333,0,14.667,0,22c-7.128,0-14.256,0.018-21.384-0.009c-2.748-0.011-5.731,0.626-7.192-2.881
		c-0.395-0.948-2.232-1.309-2.361-0.303c-0.688,5.367-3.475,1.062-5.232,1.291c-5.66-5.583-9.342-12.612-13.908-18.995
		c1.358-1.369,2.717-2.737,4.075-4.106L254.068,246.002z"/>
	<path fill="#D76B2C" d="M0.065,249c10.439,0.309,20.982,0.657,31.29,0.013c5.297-0.331,6.694,3.501,10.286,4.257
		c-3.521,5.267-7.042,10.533-10.563,15.8c-0.543,0.041-0.876,0.281-0.832,0.878c0,0-0.112,0.284-0.112,0.284
		c-0.517,0.331-1.034,0.662-1.551,0.992c-1.339-0.319-2.619,1.31-4.121-0.262c-2.101-2.197-4.541-3.915-6.06,0.718
		c-0.252,0.77-0.981,0.654-1.654,0.39c-5.445-2.128-11.127-0.604-16.682-1.071C0.065,263.666,0.065,256.333,0.065,249z"/>
	<path fill="#FCFBF9" d="M0.065,293c1.243,1.424,3.534,1.799,4,4C0.642,297.756-0.691,296.423,0.065,293z"/>
	<path fill="#FDFCFA" d="M31.078,269.07c3.521-5.267,7.042-10.533,10.563-15.8c6.752-8.362,13.027-17.066,18.778-26.147
		c4.758-5.683,9.457-11.408,12.69-18.156c0,0,0.201-0.21,0.201-0.21l-0.152-0.249c2.591-2.003,4.14-4.816,5.842-7.51
		c1.163-1.874,3.619-2.914,3.579-5.562l0.195,0.159c0,0,0.172-0.184,0.172-0.185c0.898,0.04,1.171-0.545,1.292-1.285
		c0.278-0.4,0.555-0.8,0.833-1.2c0.861-0.268,1.202-0.933,1.34-1.755c0,0,0.049-0.191,0.049-0.193
		c1.035-0.257,1.436-1.01,1.553-1.985c0.395-0.586,0.79-1.172,1.186-1.759c5.55-6.153,9.969-13.134,14.628-19.939
		c4.269-5.836,8.415-11.768,12.867-17.462c1.75-2.238,1.204-3.516-0.345-5.511c-4.813-6.199-9.351-12.611-13.996-18.941
		c-6.406-9.373-12.648-18.866-20.1-27.473c0,0.001-0.028-0.019-0.028-0.019c-1.27-3.365-3.591-5.992-6.007-8.551
		c-2.2-4.15-4.788-8.021-8.146-11.338c0.016-0.652-0.285-1.054-0.932-1.184c-0.291-0.425-0.582-0.849-0.873-1.274
		c-0.211-0.313-0.422-0.626-0.633-0.938l-0.077-0.051c-0.464-1.438-1.229-2.668-2.476-3.562l-0.006-0.004
		c-6.774-9.498-13.543-19-20.324-28.493C36.903,34.304,31.02,26.14,25.204,17.928c-0.95-1.341-1.882-2.792-2.386-4.335
		c-1.386-4.25,1.281-8.42,5.619-8.466c12.984-0.137,25.971-0.06,38.957-0.046c3.675,0.004,6.361,2.077,8.339,4.795
		c18.427,25.319,36.747,50.716,55.156,76.048c0.829,1.141,1.239,2.823,2.983,3.151c2.971,6.671,8.243,11.755,12.307,17.674
		c2.942,4.284,5.587,8.884,9.611,12.359c0.027,0.794,0.065,1.582,0.898,2.018c0.731,1.599,1.346,3.294,3.24,3.935
		c3.267,5.846,7.208,11.2,11.76,16.108c5.34,5.653,0.321,9.994-1.862,14.695c-1.611,1.131-2.645,2.695-3.364,4.494
		c0,0,0.247,0.105,0.245,0.107c-0.714,0.148-1.08,0.595-1.138,1.31c0,0-0.01-0.272-0.009-0.271c-1.92,1.307-2.814,3.316-3.66,5.357
		c-4.615,5.048-8.757,10.443-12.056,16.456c-7.178,8.799-13.918,17.916-19.937,27.554c-3.806,3.963-6.741,8.564-9.657,13.178
		l-0.248,0.125l0.02,0.277l-0.211-0.03l0.107,0.171c-7.495,9.052-14.163,18.712-20.818,28.38
		c-5.064,6.666-10.127,13.332-15.191,19.998c-1.337,0.38-1.808,1.401-1.967,2.654c0,0-0.163,0.339-0.163,0.338
		c-0.243,0.325-0.487,0.65-0.731,0.974c0,0-0.049,0.051-0.049,0.051c-0.291,0.416-0.583,0.832-0.874,1.248
		c0.054,0.356-0.082,0.611-0.407,0.766c-2.475,1.3-4.174,3.195-4.628,6.043c0,0,0.021-0.015,0.021-0.015
		c-3.66,2.364-8.54,0.832-12.022,3.767c-10.02,0-20.041,0-30.061,0c-1.098-1.46-2.668-1.653-4.354-1.817
		c-4.282-0.416-5.707-2.495-4.223-6.492c0.661-1.781,1.701-3.76,3.168-4.822c2.049-1.483,2.577-3.206,2.513-5.433
		c0,0,0.112-0.284,0.112-0.283C30.522,269.657,30.8,269.363,31.078,269.07z"/>
	<path fill="#FDFCF9" d="M218.089,88.972c-2.583,2.289-4.235,5.261-5.986,8.161c-4.16,4.934-8.024,10.083-11.342,15.629
		c0,0,0.218-0.043,0.217-0.043c-0.685,0.14-0.982,0.59-1.005,1.258c0,0,0.027-0.077,0.027-0.077
		c-1.963,1.599-3.323,3.628-4.257,5.962l0.061-0.188c-1.674,0.612-1.8,2.962-3.713,3.306c-0.985-1.055-2.158-1.99-2.925-3.185
		c-7.751-12.07-16.431-23.468-25.07-34.898C175.03,69.78,185.99,54.684,196.885,39.54c6.536-9.085,13.051-18.188,19.415-27.393
		c3.108-4.495,6.751-7.294,12.601-7.164c11.305,0.25,22.62,0.073,33.931,0.071c2.817,0,5.87-0.429,7.422,2.738
		c1.61,3.285,1.053,6.479-1.031,9.404c-5.468,7.675-10.847,15.417-16.476,22.973c-9.184,12.328-17.366,25.395-27.356,37.128
		c-0.877,1.029-1.413,2.238-1.414,3.632c-2.127,0.504-1.941,2.739-3.016,4.031C219.568,85.985,218.424,87.189,218.089,88.972z"/>
	<path fill="#F39324" d="M164.097,84.897c8.639,11.43,17.318,22.828,25.07,34.898c0.767,1.195,1.94,2.129,2.925,3.185
		c-0.009,0.672-0.019,1.344-0.028,2.016c-4.467-0.14-9.493,1.338-12.007-4.335c-0.402-0.908-1.247-1.056-1.852,0.028
		c-0.304,0.544-0.758,1.607-1.268,1.134c-6.433-5.964-14.156-1.459-21.145-2.715c-4.025-3.475-6.67-8.076-9.611-12.359
		c-4.064-5.918-9.336-11.003-12.307-17.674c3.476,0.662,4.34,4.363,7.326,6.331c0.857-3.449,2.365-4.289,5.041-1.504
		c1.525,1.586,3.59,1.146,5.572,0.279c2.212-0.967,4.251-3.111,6.812,0.316c1.02,1.365,2.885-1.584,2.465-2.655
		c-1.108-2.829-1.01-4.236,2.453-4.189C163.715,87.655,163.912,85.857,164.097,84.897z M161.745,97.309
		c-0.904,0.212-1.423,0.793-1.402,1.708c0.017,0.754,0.556,1.331,1.246,0.952c0.638-0.351,1.309-1.055,1.482-1.727
		C163.272,97.461,162.448,97.277,161.745,97.309z M187.034,121.071c-0.435-0.329-0.995-1.047-1.68-1.197
		c-0.868-0.19-1.123,0.695-0.691,1.248c0.438,0.56,1.196,0.987,1.895,1.184C187.061,122.448,187.245,121.864,187.034,121.071z"/>
	<path fill="#F39324" d="M227.921,91.039c-2.253-0.168-4.601,0.218-4.944-2.106c-0.385-2.607,2.312-1.525,3.564-2.221
		c2.554-1.421,5.628-2.055,7.306-4.809c0.702-1.153,1.645-1.66,2.87-0.824c1.1,0.751,1.503,1.971,0.771,3.028
		C235.033,87.65,232.508,91.212,227.921,91.039z"/>
	<path fill="#F59623" d="M62.064,75.001c-1.115-0.079-2.305-0.688-3.308,0.201c-1.145,1.014-2.209,1.428-3.307,0.011
		c-1.376-1.776,0.077-3.27,0.877-4.428c1.37-1.984,1.457,0.481,2.171,0.926c1.709,1.065,2.946-1.128,4.58-0.726
		c0,0,0.006,0.004,0.006,0.004c-0.338,1.336-0.677,2.673-1.015,4.009L62.064,75.001z"/>
	<path fill="#F39324" d="M220.961,84.96c1.075-1.291,0.889-3.526,3.016-4.031c0.692,0.018,1.383,0.037,2.074,0.055l0.028,0.028
		C225.186,83.382,223.292,84.455,220.961,84.96z"/>
	<path fill="#F59623" d="M48.795,71.638c0.462,0.518,0.929,0.807,0.961,1.138c0.038,0.392-0.3,0.819-0.475,1.231
		c-0.323-0.264-0.84-0.48-0.919-0.803C48.271,72.835,48.57,72.37,48.795,71.638z"/>
	<path fill="#F59623" d="M65.636,74.603c-1.101,0.939-2.049,3.246-3.572,0.398c0,0,0.003-0.003,0.003-0.003
		c1.164-0.149,2.328-0.298,3.491-0.447L65.636,74.603z"/>
	<path fill="#F39324" d="M226.051,80.984c0.229-0.376,0.457-0.753,0.686-1.129c0.157,0.157,0.314,0.314,0.472,0.472
		c-0.377,0.228-0.753,0.457-1.13,0.685C226.079,81.012,226.051,80.984,226.051,80.984z"/>
	<path fill="#FCFBF9" d="M249.988,250.103c4.566,6.383,8.249,13.413,13.908,18.995c0.857,3.152,3.452,5.175,5.13,7.796
		c1.512,2.361,2.267,4.777,2.028,7.521c-0.248,2.853-1.513,4.62-4.7,4.609c-13.625-0.047-27.25-0.028-40.875-0.039
		c-4.036-0.003-6.15-2.845-8.252-5.661c-6.334-8.485-12.649-16.985-18.971-25.478c0,0,0.006,0.118,0.006,0.118
		c-0.042-0.707-0.387-1.159-1.098-1.303l0.279,0.049c-0.718-1.607-1.35-3.285-3.254-3.902l0.065,0.081
		c-0.503-1.147-0.86-2.399-2.158-2.968c-0.237-0.348-0.475-0.695-0.712-1.043c-2.323-2.521-2.717-6.378-5.8-8.373l0.026-0.048
		c-0.747-1.895-1.828-3.554-3.421-4.854c-2.74-3.856-4.498-8.516-8.971-10.952c-1.878-4.796-4.839-8.93-8.035-12.894
		c-0.845-1.048-1.845-1.854-0.967-3.318c1.479,0.004,2.021-0.923,2.196-2.213l0.076-0.076c3.691-4.316,6.969-8.928,9.881-13.801
		c0,0,0.006-0.053,0.005-0.053c1.415-0.674,2.085-1.959,2.695-3.293l-0.004,0.003c1.186-1.158,2.421-2.281,2.794-4.006
		c2.747-3.642,5.494-7.283,8.24-10.925c0.295-0.364,0.591-0.729,0.887-1.094c0,0,0.038-0.075,0.038-0.075
		c1.553-0.3,2.627-0.136,3.663,1.516c1.38,2.199,3.426,3.981,5.186,5.942c1.038,2.763,2.898,4.928,5.015,6.905
		c3.663,6.39,8.061,12.253,12.841,17.839c0.173,0.311,0.345,0.621,0.518,0.932c0.26,0.345,0.521,0.69,0.781,1.035
		c5.877,8.998,12.074,17.765,18.887,26.084C241.253,239.297,245.705,244.64,249.988,250.103z"/>
	<path fill="#DA6E2C" d="M191.386,248.879c0.237,0.348,0.475,0.695,0.712,1.042c0.019,1.498,0.463,2.688,2.158,2.968
		c0,0-0.065-0.081-0.065-0.081c-0.163,2.341,0.177,4.263,3.254,3.902c0,0-0.279-0.049-0.277-0.048
		c0.366,0.435,0.731,0.869,1.096,1.303c0,0-0.007-0.118-0.006-0.118c0.615,3.99-2.524,5.316-5.469,7.408
		c-0.31-5.524-4.074-5.312-8.034-5.295c-21.149,0.087-42.298,0.04-63.447,0.042c-2.661,0-5.362-0.203-7.749,1.35
		c-2.81,1.829-3.49,0.348-3.484-2.224c0.001-0.5,0.034-1.004-0.023-1.498c-0.178-1.564,0.474-3.686-1.775-4.125
		c-2.02-0.395-2.212,1.688-2.824,2.924c-1.566,3.161-3.329,6.158-6.234,8.27c-0.985,0.716-1.963,2.304-3.376,1.198
		c-1.079-0.844-0.071-2.181,0.08-3.285c0.18-1.316,0.331-2.703,1.738-3.39c3.065-1.497,2.772-3.749,1.441-6.25
		c6.656-9.668,13.323-19.328,20.816-28.377c-0.003,0.003,0.107-0.144,0.107-0.144l-0.02-0.277c0,0,0.248-0.125,0.248-0.124
		c5.755,1.087,5.766,1.095,2.653,5.73c-0.524,0.78-0.678,1.551-0.072,2.255c0.778,0.904,1.874,0.846,2.681,0.188
		c2.344-1.914,5.024-2.292,7.925-2.246c5.302,0.084,10.607-0.051,15.908,0.048c3.739,0.07,7.594-0.719,10.976,1.991
		c1.786,1.431,3.236,0.239,3.56-1.732c0.492-2.993,1.72-2.645,3.566-1.136c1.731,1.415,3.794,2.606,5.906,1.271
		c2.803-1.773-0.627-3.807-0.135-5.766c4.473,2.436,6.231,7.096,8.971,10.952c0.154,2.313-1.005,5.552,3.421,4.854
		c0,0-0.026,0.048-0.028,0.049C186.144,244.251,187.015,247.778,191.386,248.879z"/>
	<path fill="#FCFBF9" d="M30.133,270.231c0.065,2.227-0.464,3.95-2.513,5.433c-1.467,1.062-2.507,3.041-3.168,4.822
		c-1.484,3.997-0.059,6.076,4.223,6.492c1.686,0.164,3.256,0.356,4.354,1.817c-8.536,0.469-9.936-0.408-10.62-5.801
		c-0.283-2.231,0.815-3.806,1.697-5.424c1.231-2.258,2.96-4.244,4.476-6.346C29.099,270.893,29.616,270.562,30.133,270.231z"/>
	<path fill="#D76B2C" d="M18.579,280.998c2.158,3.201,0.899,5.788,2.327,7.752c0.583,0.801,1.156,1.922,0.071,2.569
		c-1.248,0.745-2.127-0.275-2.772-1.281C16.431,287.268,18.126,284.763,18.579,280.998z"/>
	<path fill="#FCFBF9" d="M63.091,288.795c3.481-2.934,8.362-1.403,12.022-3.767C72.286,290.054,67.564,289.026,63.091,288.795z"/>
	<path fill="#FCFBF9" d="M75.092,285.044c0.455-2.848,2.154-4.742,4.628-6.043C78.488,281.254,77.121,283.402,75.092,285.044z"/>
	<path fill="#FCFBF9" d="M81.944,275.624c0.159-1.253,0.63-2.274,1.967-2.654C83.745,274.218,82.951,274.999,81.944,275.624z"/>
	<path fill="#FCFBF9" d="M81.05,276.937c0.244-0.325,0.487-0.65,0.731-0.974C81.537,276.287,81.294,276.612,81.05,276.937z"/>
	<path fill="#FCFBF9" d="M80.127,278.235c0.291-0.416,0.583-0.832,0.874-1.248C80.71,277.404,80.419,277.82,80.127,278.235z"/>
	<path fill="#F39324" d="M198.067,118.977c0.844,2.508,3.447,5.601-2,6.019c-0.088-1.774-0.176-3.548-0.263-5.323
		c0,0-0.061,0.188-0.06,0.188C196.519,119.567,197.293,119.272,198.067,118.977z"/>
	<path fill="#F19025" d="M195.804,119.673c0.088,1.774,0.176,3.549,0.263,5.323c-1.335,0-2.669,0-4.004-0.001
		c0.009-0.672,0.018-1.344,0.028-2.016C194.004,122.635,194.13,120.285,195.804,119.673z"/>
	<path fill="#F19025" d="M198.067,118.977c-0.774,0.295-1.548,0.59-2.323,0.885c0.932-2.334,2.292-4.363,4.255-5.962
		c0.023,0.698,0.046,1.395,0.069,2.093C199.402,116.987,198.734,117.982,198.067,118.977z"/>
	<path fill="#F39324" d="M159.929,125.061c-1.895-0.641-2.509-2.336-3.24-3.935C159.496,121.015,160.177,122.656,159.929,125.061z"
		/>
	<path fill="#F19025" d="M98.064,133.001c3.807-1.062,7.425-1.618,9.309,3.124c0.705,1.774-0.047,3.097-1.507,3.683
		c-1.84,0.738-1.612-1.044-1.816-2.06c-0.267-1.334-0.653-2.198-2.297-1.51c-3.353,1.403-3.587-0.872-3.687-3.24
		C98.066,132.999,98.064,133.001,98.064,133.001z"/>
	<path fill="#E68128" d="M166.464,160.358c0.719-1.799,1.752-3.363,3.364-4.494C170.448,158.665,170.637,161.144,166.464,160.358z"
		/>
	<path fill="#E68128" d="M161.902,166.861c0.845-2.042,1.74-4.05,3.66-5.357c0.167,1.164,0.336,2.329,0.505,3.494
		c0,0-0.004,0.004-0.004,0.004c-1.28,0.697-2.56,1.394-3.841,2.091L161.902,166.861z"/>
	<path fill="#E68128" d="M165.571,161.774c0.058-0.715,0.424-1.162,1.138-1.31C166.331,160.9,165.951,161.337,165.571,161.774z"/>
	<path fill="#F19025" d="M200.761,112.761c3.318-5.546,7.182-10.695,11.342-15.629c0.405,1.503,2.198,2.874-0.679,4.286
		c-2.646,1.298-4.146,4.818-4.212,7.13C207.057,113.979,205.02,114.574,200.761,112.761z"/>
	<path fill="#F19025" d="M199.973,113.976c0.023-0.668,0.32-1.117,1.005-1.258C200.643,113.137,200.308,113.557,199.973,113.976z"/>
	<path fill="#E47E29" d="M176.372,192.349c-2.912,4.873-6.19,9.486-9.882,13.802c-0.588-0.952-0.492-3.296-2.471-1.731
		c-1.69,1.337-3.259,0.968-5.106,0.882c-5.632-0.264-11.279-0.214-16.92-0.288c-1.772-0.023-2.825,0.922-4.155,2.106
		c-2.158,1.92-3.939,5.445-7.928,3.75c6.019-9.638,12.759-18.755,19.937-27.554c1.841,5.35,3.814,10.516,10.062,12.393
		c1.47,0.441,3.116,1.21,3.939,2.823c0.525,1.027,0.954,2.327,2.414,2.05c2.01-0.381,1.65-2.156,1.803-3.583l0.001-0.001
		c2.186,0.031,3.95-0.488,3.964-3.159C172.052,189.16,174.468,191.514,176.372,192.349z"/>
	<path fill="#EB8826" d="M199.876,180.364c-1.76-1.961-3.806-3.743-5.186-5.942c-1.036-1.651-2.109-1.815-3.663-1.516
		c0.405-1.403,0.604-3.166,2.384-3.332c1.897-0.177,2.132,1.728,2.747,2.984C197.427,175.146,200.096,177.071,199.876,180.364z"/>
	<path fill="#DF762B" d="M168.065,197c-1.841-0.568-3.217-1.784-3.754-3.561c-0.382-1.264-2.367-2.899-0.729-3.82
		c1.928-1.085,3.36,0.926,3.974,2.568C168.103,193.65,167.924,195.384,168.065,197L168.065,197z"/>
	<path fill="#E47E29" d="M176.407,173.642c3.507,0.064,3.985,3.151,6.26,3.818c0.973,0.285,0.364,1.386-0.234,1.991
		c-1.031,1.044-2.189,0.897-2.923-0.192C178.441,177.673,177.636,175.907,176.407,173.642z"/>
	<path fill="#DF762B" d="M156.172,185.98c-0.793-1.05-3.217-0.391-3.033-2.509c0.081-0.938,1.047-1.825,2.195-1.521
		c1.365,0.361,2.266,1.39,2.422,2.827C157.863,185.757,157.407,186.38,156.172,185.98z"/>
	<path fill="#E47E29" d="M181.862,184.999c-0.372,1.725-1.608,2.849-2.794,4.006c-0.044-1.666-1.793-3.432-0.204-4.923
		C179.794,183.211,180.77,184.893,181.862,184.999z"/>
	<path fill="#EA8626" d="M162.223,167.093c1.28-0.697,2.56-1.394,3.841-2.091c-0.146,1.419,0.221,3.137-1.725,3.631
		C163.156,168.934,162.551,168.13,162.223,167.093z"/>
	<path fill="#E47E29" d="M179.072,189.003c-0.61,1.334-1.28,2.619-2.695,3.293C176.012,190.164,176.965,189.111,179.072,189.003z"/>
	<path fill="#EA8626" d="M167.657,171.645c-0.215,0.172-0.42,0.336-0.625,0.501c-0.156-0.336-0.313-0.671-0.469-1.007
		c0.251-0.085,0.572-0.305,0.734-0.22C167.487,171.018,167.539,171.382,167.657,171.645z"/>
	<path fill="#EB8826" d="M190.989,172.981c-0.296,0.365-0.591,0.729-0.887,1.094C190.398,173.71,190.694,173.346,190.989,172.981z"
		/>
	<path fill="#E47E29" d="M220.07,204.996c0.378,0.224,0.757,0.449,1.135,0.673c-0.156,0.156-0.312,0.313-0.468,0.469
		c-0.225-0.378-0.45-0.756-0.675-1.134C220.062,205.004,220.07,204.996,220.07,204.996z"/>
	<path fill="#E47E29" d="M219.032,207.075c-0.26-0.345-0.521-0.69-0.781-1.035C218.511,206.385,218.771,206.73,219.032,207.075z"/>
	<path fill="#F19025" d="M76.218,89.337c2.417,2.559,4.737,5.186,6.007,8.551C77.775,96.758,76.178,93.623,76.218,89.337z"/>
	<path fill="#F79923" d="M67.141,76.815c0.647,0.13,0.948,0.532,0.932,1.184C67.762,77.604,67.451,77.21,67.141,76.815z"/>
	<path fill="#E47E29" d="M82.579,195.435c0.04,2.648-2.416,3.688-3.579,5.562c-4.405,0.592-5.311,3.905-5.842,7.51l0.152,0.249
		c0,0-0.201,0.211-0.201,0.21c-2.126-0.001-3.224,1.324-4.086,3.055c-0.415,0.833-0.762,2.179-1.912,1.915
		c-1.5-0.345-0.834-1.89-1.044-2.937l-0.003,0.002c3.979-1.999,0.192-4.002,0.002-6.003c0,0-0.002,0.002-0.002,0.002
		c1.934-0.011,3.496-0.32,3.995-2.712c1.118-5.359,4.608-7.696,10.011-7.289c0.652-0.013,1.304-0.026,1.956-0.039
		C82.21,195.119,82.395,195.277,82.579,195.435z"/>
	<path fill="#E47E29" d="M66.067,210.999c-0.124-0.244-0.249-0.488-0.373-0.733c0.124,0.245,0.247,0.49,0.371,0.735
		C66.064,211.001,66.067,210.999,66.067,210.999z"/>
	<path fill="#DF762B" d="M80.069,195c-5.403-0.407-8.893,1.93-10.011,7.289c-0.499,2.392-2.06,2.701-3.995,2.712
		c0.159-9.671,4.574-13.456,13.995-11.997C80.062,193.669,80.066,194.334,80.069,195z"/>
	<path fill="#E68128" d="M80.069,195c-0.004-0.665-0.007-1.331-0.011-1.996c0-0.666,0.001-1.332,0.001-1.999
		c0,0,0.01-0.01,0.01-0.01c1.991,0.662,1.98,2.311,1.956,3.966C81.373,194.973,80.721,194.987,80.069,195z"/>
	<path fill="#E68128" d="M72.411,189.738c-0.519,0.459-0.81,0.925-1.142,0.955c-0.392,0.036-0.818-0.306-1.229-0.484
		c0.266-0.325,0.486-0.845,0.81-0.922C71.221,189.2,71.685,189.507,72.411,189.738z"/>
	<path fill="#E68128" d="M80.06,191.005c-0.755-0.124-1.654,0.041-2.019-0.886c-0.052-0.132,0.288-0.598,0.467-0.611
		c1.02-0.073,1.283,0.731,1.561,1.487C80.07,190.995,80.06,191.005,80.06,191.005z"/>
	<path fill="#E68128" d="M86.411,191.17c-0.137,0.821-0.479,1.486-1.34,1.755C84.422,191.503,84.001,190.255,86.411,191.17z"/>
	<path fill="#E68128" d="M88.014,188.992c-0.117,0.975-0.518,1.728-1.553,1.985C86.557,189.987,87.123,189.363,88.014,188.992z"/>
	<path fill="#E68128" d="M84.239,194.125c-0.121,0.74-0.394,1.325-1.292,1.285C83.377,194.982,83.808,194.553,84.239,194.125z"/>
	<path fill="#FCFBF9" d="M31.078,269.07c-0.278,0.293-0.556,0.587-0.833,0.879C30.202,269.351,30.535,269.11,31.078,269.07z"/>
	<path fill="#DF762B" d="M129.91,210.871c3.99,1.695,5.77-1.83,7.928-3.75c1.33-1.184,2.383-2.129,4.155-2.106
		c5.641,0.074,11.288,0.024,16.92,0.288c1.847,0.086,3.416,0.455,5.106-0.882c1.979-1.565,1.883,0.779,2.471,1.731
		c0.001-0.001-0.076,0.075-0.076,0.074c-1.173,0.3-1.861,1.082-2.195,2.214c-0.879,1.465,0.121,2.27,0.967,3.318
		c3.196,3.964,6.157,8.098,8.035,12.894c-0.492,1.959,2.939,3.993,0.135,5.766c-2.111,1.335-4.174,0.144-5.906-1.271
		c-1.846-1.509-3.074-1.857-3.566,1.136c-0.324,1.971-1.774,3.164-3.56,1.732c-3.382-2.71-7.238-1.92-10.976-1.991
		c-5.301-0.1-10.606,0.036-15.908-0.048c-2.901-0.046-5.581,0.332-7.925,2.246c-0.806,0.658-1.902,0.716-2.681-0.188
		c-0.606-0.704-0.452-1.475,0.072-2.255c3.113-4.635,3.102-4.643-2.653-5.73C123.169,219.434,126.104,214.833,129.91,210.871z"/>
	<path fill="#DF762B" d="M73.159,208.507c0.531-3.605,1.437-6.918,5.842-7.51C77.298,203.691,75.75,206.505,73.159,208.507z"/>
	<path fill="#F79923" d="M65.558,74.551c-1.164,0.149-2.328,0.298-3.491,0.447c0.338-1.336,0.676-2.673,1.015-4.009
		C64.329,71.883,65.094,73.113,65.558,74.551z"/>
	<polygon fill="#DF762B" points="120.024,224.45 119.917,224.595 119.813,224.421 	"/>
	<path fill="#F79923" d="M161.745,97.309c0.703-0.032,1.527,0.152,1.326,0.933c-0.173,0.673-0.844,1.377-1.482,1.727
		c-0.69,0.379-1.228-0.198-1.246-0.952C160.322,98.103,160.842,97.522,161.745,97.309z"/>
	<path fill="#EF8D25" d="M187.034,121.071c0.21,0.793,0.027,1.377-0.477,1.235c-0.699-0.197-1.457-0.625-1.895-1.184
		c-0.432-0.553-0.176-1.438,0.691-1.248C186.039,120.024,186.6,120.742,187.034,121.071z"/>
	<path fill="#D5682E" d="M191.386,248.879c-4.371-1.101-5.242-4.629-5.802-8.372C188.668,242.501,189.063,246.358,191.386,248.879z"
		/>
	<path fill="#D5682E" d="M185.612,240.458c-4.426,0.698-3.266-2.541-3.421-4.854C183.784,236.904,184.865,238.563,185.612,240.458z"
		/>
	<path fill="#D5682E" d="M197.444,256.711c-3.077,0.36-3.417-1.561-3.254-3.902C196.094,253.426,196.727,255.104,197.444,256.711z"
		/>
	<path fill="#E47E29" d="M164.219,208.44c0.334-1.132,1.022-1.914,2.195-2.214C166.239,207.517,165.698,208.444,164.219,208.44z"/>
	<path fill="#D5682E" d="M194.255,252.89c-1.695-0.28-2.138-1.47-2.158-2.968C193.395,250.491,193.752,251.743,194.255,252.89z"/>
	<path fill="#D5682E" d="M198.264,257.965c-0.365-0.434-0.73-0.868-1.096-1.303C197.876,256.806,198.222,257.258,198.264,257.965z"
		/>
</g>
</svg>
