<?xml version="1.0" encoding="utf-8"?>
<!-- Generator: Adobe Illustrator 17.0.0, SVG Export Plug-In . SVG Version: 6.00 Build 0)  -->
<!DOCTYPE svg PUBLIC "-//W3C//DTD SVG 1.1//EN" "http://www.w3.org/Graphics/SVG/1.1/DTD/svg11.dtd">
<svg version="1.1" id="Layer_1" xmlns="http://www.w3.org/2000/svg" xmlns:xlink="http://www.w3.org/1999/xlink" x="0px" y="0px"
	 width="201px" height="140.64px" viewBox="0 0 201 140.64" enable-background="new 0 0 201 140.64" xml:space="preserve">
<rect opacity="0" width="201" height="140.64"/>
<g>
	<path fill="#A6D8F4" d="M108.789,119.771c-0.127,0.004-0.253-0.008-0.377-0.036c-0.816,0.116-0.736-0.43-0.699-0.945
		c0.234-0.486,0.634-0.757,1.141-0.892c4.552-0.514,9.007,0.968,13.582,0.588c4.775-0.397,9.141-1.817,13.397-3.957
		c3.363-1.691,6.385-3.833,9.08-6.359c3.074-2.882,6.668-4.145,10.709-4.32c6.42-0.279,12.439-1.829,18.309-4.517
		c5.361-2.454,9.527-6.223,13.476-10.384c0.264-0.278,0.406-0.658,0.622-0.979c3.033-3.391,4.888-7.362,6.555-11.599
		c2.842-7.223,3.037-14.494,1.368-21.833c-1.408-6.188-4.523-11.64-8.79-16.376c-4.249-4.716-9.265-8.366-15.093-10.932
		c-1.028-0.453-2.055-0.563-3.099-0.779c-5.33-2.083-10.813-2.733-16.509-2.075c-2.98,0.344-5.952,0.719-8.911,1.193
		c-3.204,0.222-5.576-1.331-7.814-3.432c-4.131-3.878-8.48-7.492-13.811-9.67c-4.081-1.668-8.334-2.095-12.727-2.091
		c-5.028,0.005-9.798,0.993-14.431,2.808c-1.946,0.762-3.797,1.812-5.552,2.885c-3.14,1.919-6.04,1.451-9.036-0.025
		c-1.108-0.546-2.254-1.054-3.128-1.979c-0.692-1.311-2.623-1.499-2.904-3.186c0.025-0.234,0.116-0.44,0.271-0.617
		c1.747-0.394,2.988,0.696,4.043,1.706c1.63,1.559,3.502,2.728,5.334,3.979c0.429-0.16,0.859-0.32,1.288-0.479
		c3.775-1.564,7.112-3.98,10.981-5.409c5.423-2.003,10.846-3.22,16.708-2.633c7.66,0.768,14.243,3.793,20.107,8.602
		c1.974,1.619,3.5,3.704,5.403,5.406c0.569,0.509,0.961,1.221,1.737,1.489c0.462,0.172,0.924,0.343,1.387,0.515
		c3.356,0.112,6.621-0.69,9.85-1.332c6.12-1.216,11.985-0.513,17.817,1.329c0.591,0.187,1.165,0.423,1.788,0.469
		c0.213,0.031,0.421,0.092,0.62,0.174c0.704,0.656,1.706,0.535,2.512,0.942c0.198,0.099,0.379,0.217,0.554,0.351
		c5.451,2.3,10.061,5.88,14.003,10.139c6.299,6.807,10.008,14.909,11.177,24.223c0.567,4.516-0.336,8.754-1.123,13.086
		c-1.58,8.687-6.69,15.22-12.535,21.439c-3.542,3.769-7.742,6.567-12.389,8.355c-4.997,1.922-10.18,3.699-15.697,3.735
		c-2.741,0.018-5.478,0.147-8.208,0.399c-0.144,0.151-0.288,0.302-0.431,0.454c-2.502,1.94-4.742,4.181-7.125,6.258
		c-4.088,3.564-8.988,5.279-14.029,6.804c-5.352,1.619-10.65,1.073-15.953-0.219C111.107,119.767,109.946,119.755,108.789,119.771z"
		/>
	<path fill="#9DD5F3" d="M107.444,121.113c-2.788,6.372-7.273,11.324-13.149,14.888c-15.873,9.627-34.233,7.102-46.932-6.386
		c-2.82-2.995-5.118-6.398-6.451-10.36c0.309-1.075,0.362-1.132,0.978-0.569c1.144,1.046,2.113,2.25,2.982,3.542
		c3.657,5.434,8.46,9.703,14.293,12.523c7.843,3.791,16.154,5.355,24.686,2.509c5.11-1.705,9.852-4.12,13.993-7.836
		c2.911-2.613,5.259-5.615,7.788-8.509c0.44-0.503,0.846-1.228,1.699-0.781C107.742,120.348,107.713,120.748,107.444,121.113z"/>
	<path fill="#A6D8F4" d="M107.444,121.113c-0.141-0.604-0.298-1.203-0.966-0.363c-0.719,0.903-1.486,1.778-2.112,2.744
		c-2.228,3.439-5.557,5.835-8.453,8.587c-1.729,1.643-4.245,2.763-6.492,3.748c-3.315,1.452-6.761,2.777-10.508,3.121
		c-3.808,0.35-7.427-0.052-11.195-0.708c-3.388-0.591-6.36-1.887-9.295-3.307c-5.782-2.797-10.392-7.059-14.036-12.369
		c-0.868-1.264-1.927-2.397-2.902-3.588c-0.562-0.687-0.478-0.016-0.573,0.277c-0.308-0.313-0.615-0.626-0.923-0.939
		c-0.149-0.159-0.322-0.286-0.52-0.38c-4.367,0.265-8.684-0.405-12.813-1.57c-5.285-1.492-10.197-3.961-14.219-7.881
		c-1.013-1.978-3.074-3.141-4.026-5.169c-0.366-0.781-1.204-1.546-0.038-2.349c2.081,0.817,2.607,3.076,4.108,4.447
		c0.835,0.763,1.339,1.906,2.639,2.069c0.449,0.072,0.886,0.177,1.281,0.411c4.004,3.138,8.31,5.43,13.448,6.408
		c3.473,0.661,7.122,0.459,10.447,1.936c0.708,0.314,1.459,0.512,2.025,1.079c0.906,1.062,1.601,2.321,2.851,3.069
		c0.168,0.153,0.313,0.324,0.444,0.508c5.541,7.29,12.464,12.356,21.508,14.741c10.462,2.759,19.61,0.171,27.981-5.901
		c2.958-2.146,5.861-4.56,8.071-7.616c0.861-1.191,1.987-2.163,3.074-3.158c0.519-0.342,1.044-0.651,1.652-0.184
		c0.009,0.404,0.118,0.755,0.508,0.958C108.089,120.194,107.766,120.653,107.444,121.113z"/>
	<path fill="#9ED5F3" d="M149.775,106.746c2.116-1.067,4.435-1.016,6.675-0.954c4.948,0.137,9.526-1.358,14.147-2.777
		c4.081-1.254,7.862-3.156,11.238-5.701c2.259-1.702,4.235-3.82,6.161-5.914c3.032-3.297,5.556-6.989,7.647-10.952
		c1.727-3.274,2.05-6.97,2.951-10.491c1.6-6.252,0.547-12.311-1.35-18.315c-3.7-11.711-11.422-19.884-22.243-25.33
		c-0.502-0.253-1.026-0.354-1.043-1.038c1.922-1.527,3.395,0.297,4.707,0.976c3.662,1.894,6.778,4.643,9.786,7.474
		c2.711,2.552,4.347,5.932,6.763,8.711c4.014,7.295,6.089,14.892,5.658,23.431c-0.369,7.309-2.634,13.828-6.007,19.973
		c-2.552,4.65-6.588,8.247-10.637,11.789c-5.244,4.588-11.466,6.784-17.938,8.473c-3.789,0.988-7.732,1.427-11.694,0.893
		c-0.68-0.092-1.371-0.264-2.024,0.127C151.64,106.996,150.707,106.871,149.775,106.746z"/>
	<path fill="#9ED5F3" d="M140.019,22.921c-1.303,0.997-1.584-0.478-2.08-0.989c-3.258-3.354-6.605-6.559-10.566-9.128
		c-5.392-3.497-11.485-4.863-17.636-5.03c-4.653-0.126-9.346,1.018-13.821,3.011c-3.233,1.44-6.228,3.281-9.434,4.728
		c-0.474,0.214-0.956,0.641-1.4-0.047c5.259-5.385,11.682-8.556,19.061-9.715c11.549-1.814,21.568,1.564,30.012,9.501
		C136.488,17.444,138.737,19.853,140.019,22.921z"/>
	<path fill="#9BD4F2" d="M152.572,107.121c0.781-0.772,1.774-0.463,2.653-0.416c4.153,0.222,8.288-0.238,12.226-1.323
		c3.149-0.867,6.462-1.689,9.217-3.603c1.313-0.912,2.866-1.114,4.215-2.037c1.567-1.072,2.93-2.435,4.238-3.646
		c2.861-2.649,5.468-5.611,7.928-8.743c3.03-3.858,4.175-8.297,5.87-12.532c2.057-5.143,1.699-10.836,1.4-16.257
		c-0.307-5.572-2.554-10.759-5.357-15.623c-0.072-0.124-0.049-0.303-0.071-0.456c-0.28-0.618-1.119-1.111-0.432-1.944
		c2.48,2.931,3.709,6.487,4.968,10.018c4.061,11.387,2.977,22.495-2.419,33.11c-6.773,13.325-18.149,20.55-32.539,23.431
		c-0.821,0.164-1.697,0.052-2.547,0.068c-2.525,0.342-5.051,0.314-7.577,0.008C153.753,107.158,153.163,107.14,152.572,107.121z"/>
	<path fill="#9CD4F2" d="M39.987,117.844c0,0.157,0.001,0.314,0.001,0.47c-0.293,0.005-0.585,0.011-0.878,0.016
		c-0.727,0.489-1.643-0.09-2.367,0.416c-14.706,0.807-25.635-5.391-32.904-18.037c-1.952-3.395-3.321-7.132-3.418-11.175
		c-0.325-3.149-0.316-6.298-0.005-9.447c0.587-7.048,3.596-12.977,8.36-18.094c0.872,0.903,0.911,1.046,0.22,2.302
		c-0.846,1.538-1.974,2.891-2.869,4.413c-0.915,1.556-1.549,3.132-1.885,4.868c-0.048,0.224-0.119,0.443-0.199,0.657
		C1.29,80.428,1.302,86.73,3.315,93.106c0.109,0.187,0.194,0.387,0.266,0.591c0.244,1.001,0.237,2.08,0.9,2.956
		c0.227,0.363,0.417,0.742,0.488,1.169c0.123,1.807,1.183,3.102,2.37,4.326c0.485,0.471,0.82,1.043,1.125,1.636
		c2.604,4.876,7.138,7.577,11.73,10.077c5.355,2.916,11.274,3.681,17.3,3.769C38.323,117.643,39.19,117.391,39.987,117.844z"/>
	<path fill="#9ED5F3" d="M83.795,15.945c-2.029-0.359-3.667-1.488-5.035-2.904c-1.249-1.293-2.667-2.149-4.349-2.652
		c-6.078-3.543-12.473-5.665-19.648-6.017C45.315,3.909,37.192,6.703,29.88,12.42c-1.435,1.122-3.086,1.974-3.955,3.751
		c-0.464,0.949-1.368,1.483-2.527,0.93c-0.967-1.198-0.107-2.07,0.642-2.798C29.944,8.561,36.51,3.89,44.819,2.389
		c7.466-1.349,14.876-0.927,22.032,1.677c2.741,0.997,5.186,2.719,7.731,4.175c0.84,0.48,1.541,1.251,2.618,1.223
		C80.093,10.916,81.908,13.467,83.795,15.945z"/>
	<path fill="#9BD4F2" d="M77.199,9.464c-0.367,0.524-0.796,0.334-1.203,0.08c-2.406-1.507-5.047-2.573-7.415-4.189
		c-2.498-1.705-5.464-2.578-8.471-2.608c-2.723-0.027-5.373-0.6-8.102-0.604c-2.672-0.004-5.223,0.663-7.798,1.016
		c-5.602,0.767-10.447,3.661-14.729,7.203c-2.288,1.893-5.365,3.229-6.24,6.54c-0.028,0.104-0.055,0.207-0.081,0.312
		c-1.12,1.558-2.244,3.114-3.414,4.638c-0.431,0.533-0.753,1.19-1.394,1.493c-0.384,0.182-0.955,0.372-0.752-0.486
		c3.198-7.167,8.444-12.48,15.081-16.48c7.266-4.38,15.186-5.959,23.599-5.265c0.727,0.504,1.641-0.068,2.372,0.413
		c5.026,1.031,9.97,2.295,14.351,5.123C74.418,7.563,75.802,8.524,77.199,9.464z"/>
	<path fill="#9ED5F3" d="M3.705,73.654c0.303-3.244,2.084-5.785,3.886-8.339c0.68-0.964,2.007-1.787,1.186-3.321
		c1.493-1.982,3.339-3.634,5.421-4.904c1.83-1.116,2.588-2.22,1.31-4.179c-0.188-0.289-0.123-0.742-0.176-1.12
		c-0.092-2.508-1.073-4.877-1.203-7.37c-0.138-2.653-0.271-5.313,0.016-7.968c0.077-0.715,0.292-1.35,1.066-1.61
		c0.396-0.022,0.703,0.149,0.958,0.435c0.294,0.377,0.526,0.819,0.475,1.282c-0.662,5.968,0.225,11.843,1.026,17.725
		c0.169,1.237-0.24,2.312-1.165,3.142c-3.136,2.815-5.521,6.276-7.981,9.631c-1.147,1.564-2.281,3.288-2.927,5.227
		C5.333,73.075,5.046,74.19,3.705,73.654z"/>
	<path fill="#9BD4F2" d="M147.026,110.471c-2.876,4.415-7.045,7.315-11.704,9.428c-8.055,3.654-16.309,4.196-24.629,0.739
		c0.261-1.299,1.19-0.92,1.945-0.701c5.133,1.492,10.195,1.284,15.459,0.295c6.669-1.253,11.94-4.548,16.581-9.217
		C145.843,109.842,146.081,109.817,147.026,110.471z"/>
	<path fill="#9ED5F3" d="M147.026,110.471c-1.23-0.528-1.866,0.449-2.385,1.155c-2.792,3.793-6.991,5.507-10.931,7.627
		c-3.167,1.703-6.638,1.587-10.063,2.003c-3.883,0.472-7.589,0.289-11.266-1.021c-0.551-0.196-1.24-0.204-1.689,0.403
		c-0.738-0.063-1.373-0.351-1.903-0.868c1.081-0.968,2.387-0.683,3.507-0.346c7.221,2.173,14.106,1.144,21.066-1.433
		c5.598-2.073,9.573-6.164,13.979-9.78c0.582-0.477,0.977-1.388,2.002-1.012C148.857,108.493,148.131,109.616,147.026,110.471z"/>
	<path fill="#9CD5F3" d="M194.458,40.542c0.144,0.648,0.288,1.296,0.432,1.944c-2.366-1.754-3.438-4.526-5.21-6.75
		c-0.573-0.719-1.23-1.314-1.867-1.901c-3.645-3.359-7.513-6.421-12.122-8.408c-0.58-0.25-1.117-0.541-1.735-0.153
		c-0.608-0.729-1.639-0.399-2.326-0.93v0c-1.042-0.779-2.329-0.984-3.491-1.486c-0.478-0.325-0.973-0.644-0.691-1.355
		c6.437,0.672,11.92,3.51,16.787,7.597c3.601,3.024,7.06,6.22,9.642,10.22C194.121,39.695,194.267,40.133,194.458,40.542z"/>
	<path fill="#9BD4F2" d="M15.333,35.043c-1.103,1.093-0.927,2.608-0.854,3.847c0.225,3.826-0.13,7.734,1.22,11.447
		c0.19,0.521,0.157,1.071-0.367,1.453c-3.188-9.953-2.518-19.603,2.269-28.931c1.361,0.626,0.917-1.404,1.919-1.306
		c0.623,0.875,0.098,1.646-0.322,2.331c-1.336,2.181-2.107,4.567-2.735,7.015c-0.177,0.628-0.445,1.229-0.574,1.871
		C15.479,33.472,15.809,34.357,15.333,35.043z"/>
	<path fill="#9ED5F3" d="M168.376,22.484c1.207,0.407,2.766,0.2,3.256,1.861c-2.25,0.667-4.1-0.82-6.101-1.297
		c-4.641-1.107-9.195-1.253-13.854-0.372c-2.789,0.527-5.621,0.819-8.421,1.294c-0.766,0.13-1.362,0.094-1.85-0.535
		c0.464-0.157,0.928-0.315,1.391-0.472c1.73,0.006,3.275-0.81,4.93-1.119c5.249-0.981,10.506-1.606,15.869-0.81
		C165.298,21.286,166.743,22.143,168.376,22.484z"/>
	<path fill="#9DD4F2" d="M168.376,22.484c-2.014,0.678-3.755-0.673-5.639-0.933c-3.183-0.439-6.218-0.164-9.346,0.043
		c-3.282,0.217-6.454,0.775-9.582,1.723c-0.413,0.125-0.753-0.012-1.011-0.354c7.544-2.999,15.327-3.513,23.278-2.218
		c0.514,0.084,1.055,0.257,1.374,0.759C167.597,21.982,167.916,22.3,168.376,22.484z"/>
	<path fill="#9ED5F3" d="M0.416,80.087c0.002,3.149,0.004,6.297,0.005,9.447C-0.311,86.386-0.304,83.237,0.416,80.087z"/>
	<path fill="#9ED5F3" d="M154.344,107.177c2.525-0.003,5.051-0.006,7.577-0.008C159.396,107.844,156.87,107.83,154.344,107.177z"/>
	<path fill="#9ED5F3" d="M58.653,1.526c-0.802-0.073-1.687,0.328-2.372-0.413C57.087,1.158,57.951,0.879,58.653,1.526z"/>
	<path fill="#9DD5F3" d="M36.744,118.747c0.683-0.741,1.567-0.336,2.366-0.416C38.414,118.995,37.548,118.695,36.744,118.747z"/>
	<path fill="#A6D8F4" d="M3.705,73.654c0.645-0.012,0.95-0.446,1.163-0.966c2.499-6.102,6.669-11.017,11.211-15.644
		c0.925-0.943,1.297-1.881,0.993-3.094c-1.17-4.676-0.798-9.518-1.546-14.244c-0.215-1.36,1.202-2.717,0.273-4.195
		c0.533-5.709,2.52-10.89,5.75-15.596c0.66-0.962,0.992-2.086,1.693-3.011c0,0,0,0,0,0c0.881,0.059,1.51-0.168,2.182-0.914
		C31.204,9.577,38.18,5.596,46.905,4.197c6.981-1.12,13.629-0.213,20.111,1.756c2.566,0.779,5.622,1.826,7.395,4.436
		c0,0.155,0,0.311,0,0.466c-0.978,1.255-1.896,0.173-2.614-0.237c-4.07-2.32-8.417-3.743-13.014-4.575
		C50.928,4.621,43.673,6.212,36.6,9.727c-5.622,2.794-9.783,7.196-13.055,12.181c-3.061,4.664-4.859,10.042-5.372,15.847
		c-0.467,5.283,0.219,10.465,0.309,15.691c0.261,3.022-1.267,5.26-3.185,7.352c-2.233,2.436-4.357,4.959-5.771,7.991
		c-3.139,5.358-5.186,11.15-4.607,17.336c0.428,4.569,1.401,9.232,4.276,13.13c0.164,0.158,0.304,0.338,0.421,0.533
		c0.711,1.565,1.544,3.05,2.897,4.173c0.156,0.149,0.293,0.314,0.417,0.489c0.382,0.643,0.85,1.208,1.385,1.738
		c0.506,0.501,1.186,1.023,0.552,1.888c-2.589-0.997-3.569-3.557-5.247-5.435c-0.439-0.491-0.542-1.27-1.266-1.542
		c-2.644-0.556-3.012-3.047-3.824-4.925c-0.711-1.645-1.287-3.421-1.779-5.189c-1.22-5.71-0.556-11.312,0.952-16.866
		C3.705,73.963,3.705,73.809,3.705,73.654z"/>
	<path fill="#AFDCF5" d="M77.201,13.646c2.808,1.714,5.523,3.537,9.132,3.078c1.721-0.219,3.048-1.319,4.231-2.091
		c4.838-3.156,10.281-4.333,15.721-4.889c6.246-0.639,12.601,0.15,18.288,3.126c3.708,1.94,7.113,4.529,10.139,7.446
		c2.485,2.395,4.92,4.634,8.543,4.96c0.871-0.411,1.775-0.221,2.673-0.152c0.475,0.572,0.064,0.933-0.309,1.304
		c-3.312,1.044-6.259,0.024-8.993-1.75c-2.98-1.933-5.677-4.266-8.625-6.259c-8.031-5.432-16.812-7.325-26.267-5.325
		c-3.135,0.663-6.185,1.928-9.162,3.222c-3.288,1.429-6.568,2.747-10.289,1.869c-1.521-0.358-2.898-1.006-4.281-1.677
		c-0.553-0.996-1.865-1.539-1.77-2.929C76.574,13.349,76.895,13.389,77.201,13.646z"/>
	<path fill="#AFDCF5" d="M107.903,118.776c-0.465,0.155-0.93,0.309-1.395,0.464c-3.359,2.85-6.235,6.203-9.585,9.074
		c-3.502,3.001-7.304,5.183-11.774,6.565c-3.574,1.105-7.052,2.093-10.802,2.044c-2.489-0.033-4.826-0.509-7.178-1.417
		c-2.424-0.936-5.07-1.223-7.457-2.411c-4.844-2.411-8.753-5.928-12.356-9.883c-0.77-0.845-1.698-1.542-2.252-2.577v0.001
		c-0.874-1.013-2.101-1.753-2.442-3.177c0.147-0.201,0.343-0.313,0.59-0.341c1.629,0.356,2.557,1.651,3.632,2.736
		c3.982,4.02,7.923,8.175,13.078,10.656c6.884,3.313,13.951,4.71,21.777,2.858c8.298-1.963,14.395-6.794,20.098-12.582
		c2.709-2.749,5.969-4.242,9.882-4.514c3.407-0.237,6.737,0.669,10.172,0.203c7.96-1.079,14.98-4.213,21.325-9.03
		c0.704-0.535,1.341-1.401,2.435-0.785c0.163,0.927-0.519,1.356-1.071,1.896c-3.527,3.449-7.765,5.7-12.252,7.651
		c-2.602,1.131-5.35,1.263-7.988,1.954c-4.96,1.3-9.775-0.381-14.649-0.087c-0.31,0.019-0.614,0.005-0.858,0.236
		C108.523,118.465,108.213,118.621,107.903,118.776z"/>
	<path fill="#ADDBF4" d="M108.833,118.31c2.144-0.95,4.396-0.51,6.57-0.323c2.584,0.222,5.093,0.857,7.619-0.473
		c0.701-0.369,1.847,0.222,2.712,0.028c7.647-1.718,14.614-4.719,19.848-10.862c-0.195-0.992,0.526-1.457,1.21-1.729
		c1.789-0.71,3.555-1.808,5.42-1.943c5.357-0.387,10.438-1.92,15.584-3.22c0.375-0.095,0.759-0.14,1.145-0.151
		c2.361,0.262,3.88-1.629,5.875-2.325c4.376-1.526,7.234-5.04,10.354-8.197c0.895-0.906,1.68-2.047,3.202-1.943
		c0.275,0.299,0.273,0.6,0.006,0.901c-1.358,2.939-3.884,4.88-6.246,6.852c-4.957,4.138-10.737,6.758-17.013,8.257
		c-3.29,0.786-6.618,1.319-10.018,1.33c-4.475,0.014-7.911,2.206-11.056,5.171c-4.2,3.96-9.317,6.53-14.709,8.268
		c-4.866,1.569-10.039,1.768-15.085,0.626C112.403,118.159,110.59,119.143,108.833,118.31z"/>
	<path fill="#ACDBF4" d="M77.201,13.646c-0.31,0-0.62,0-0.93,0c-1.177,0.733-2.019-0.183-2.881-0.669
		c-1.442-0.812-2.711-1.919-4.269-2.545c-0.513-0.611-1.205-0.894-1.965-1.054c-0.221-0.075-0.426-0.175-0.626-0.294
		C63.104,7.782,59.614,6.8,55.91,6.826c-6.523-0.481-12.712,1.087-18.537,3.719c-3.612,1.632-6.752,4.257-9.374,7.347
		c-0.906,1.019-1.908,1.961-2.574,3.176c-0.153,0.276-0.343,0.526-0.551,0.762c-0.96,0.848-1.448,1.977-1.868,3.147
		c-0.798,1.169-1.363,2.453-1.847,3.777c-0.944,1.407-1.109,2.989-1.042,4.626c-0.024,0.518-0.108,1.023-0.276,1.514
		c-0.77,1.726-1.139,3.522-1.076,5.418c0.128,3.869-0.227,7.746,0.213,11.611c0.084,0.734-0.069,1.398-0.853,1.726
		c-0.131-0.186-0.368-0.368-0.378-0.56c-0.392-7.917-1.251-15.938,1.467-23.57c1.579-4.436,3.856-8.614,7.082-12.288
		C31.799,10.965,38.6,7.206,46.633,5.466C52.098,4.282,57.41,5.092,62.812,6.32c3.939,0.895,7.206,2.956,10.736,4.589
		c0.23,0.106,0.573-0.03,0.863-0.054C74.861,12.264,76.889,12.097,77.201,13.646z"/>
	<path fill="#ACDBF4" d="M188.378,88.074c0-0.31,0-0.62,0-0.931c0.013-0.101,0.025-0.202,0.035-0.304
		c0.408-1.056,1.398-1.724,1.833-2.763c0.092-0.184,0.2-0.357,0.312-0.529c0.47-0.597,0.561-1.336,0.761-2.036
		c1.558-3.684,3.443-7.234,3.893-11.318c0.807-7.332,0.881-14.42-2.468-21.41c-2.956-6.171-6.988-11.173-12.387-15.207
		c-2.364-2.229-5.132-3.8-8.081-5.127c-1.257-0.566-2.851-0.697-3.527-2.222c0.177-0.237,0.363-0.244,0.558-0.023
		c2.719-0.674,4.591,1.292,6.657,2.344c6.951,3.54,12.342,8.953,16.333,15.533c2.899,4.778,4.621,10.091,5.145,15.824
		c0.377,4.128,0.191,8.217-0.821,12.065C195.074,77.851,193.243,83.798,188.378,88.074z"/>
	<path fill="#ACDBF4" d="M169.307,26.205c-0.155,0-0.311,0-0.466,0c-0.685,0.599-1.488,0.312-2.199,0.183
		c-3.689-0.669-7.424-0.782-11.148-1.031c-1.741-0.534-3.447-0.592-5.081,0.374c-1.487,0.146-3.003,0.575-4.365-0.457
		c-0.93,0-1.861,0-2.791-0.001c1.852-1.128,4.011-0.904,6.017-1.255c5.915-1.036,11.816-0.595,17.632,0.86
		C167.788,25.1,168.67,25.467,169.307,26.205z"/>
	<path fill="#9ED5F3" d="M171.632,24.345c0.819,0.2,2.024-0.562,2.326,0.93C173.114,25.136,172.08,25.473,171.632,24.345z"/>
	<path fill="#AFDCF5" d="M18.124,53.65c0.422-0.702,0.205-1.411,0.181-2.174c-0.15-4.962-0.606-9.937,0.253-14.885
		c0.134-0.773,0.312-1.498,0.961-2.013c0.876,1.474,0.21,3.02,0.047,4.472c-0.449,3.983-0.549,7.939,0.046,11.903
		c0.234,1.556-0.144,3.05-0.357,4.56c0.032,1.612-0.564,2.973-1.478,4.3c-3.115,4.523-6.351,9.004-8.246,14.214
		c-1.545,4.247-2.116,8.571-1.666,13.208c0.781,8.06,4.892,14.023,10.702,19.077c5.255,4.57,11.704,6.431,18.4,7.71
		c2.24,0.428,4.808,0.637,5.812,3.358l0,0.001c-0.129,0.182-0.185,0.436-0.465,0.465c-2.239-1.47-4.81-1.968-7.381-2.222
		c-3.931-0.388-7.876-0.804-11.41-2.618c-2.589-1.329-5.614-2.158-7.259-4.929c-1.42-1.061-2.684-2.278-3.722-3.721
		c-1.218-1.292-2.142-2.813-3.256-4.187c0-0.155,0-0.31,0-0.465c-3.469-5.21-4.602-11.008-4.341-17.164
		c0.214-5.053,1.938-9.632,4.341-14.003c0.81-3.277,3.267-5.474,5.366-7.836C16.502,58.618,17.928,56.477,18.124,53.65z"/>
	<path fill="#ADDBF4" d="M45.104,120.635c3.505,3.142,6.725,6.593,10.53,9.41c2.877,2.13,6.009,3.432,9.482,4.371
		c3.757,1.016,7.366,2.528,11.361,2.024c2.487-0.314,4.933-0.422,7.267-1.863c1.639-1.013,3.941-0.838,5.837-1.734
		c4.472-2.115,7.681-5.786,11.348-8.903c1.852-1.574,3.211-3.742,5.579-4.701c-4.271,5.205-8.86,10.156-14.761,13.471
		c-7.049,3.96-14.524,5.726-22.788,3.943c-7.88-1.7-14.577-5.227-20.058-10.99C47.491,124.182,45.51,122.947,45.104,120.635z"/>
	<path fill="#9DD5F3" d="M39.987,117.844c-3.178,0.463-6.451,0.302-9.503-0.196c-5.437-0.887-10.818-2.45-15.193-6.159
		c-1.288-1.092-2.614-2.095-4.01-3.048c-1.596-1.089-2.654-2.74-3.39-4.552c0.615-0.509,1.03-0.133,1.29,0.378
		c0.795,1.566,2.232,2.549,3.362,3.808c3.881,3.376,8.354,5.872,13.137,7.517c3.465,1.192,7.261,1.484,10.97,1.8
		C37.766,117.487,38.978,116.952,39.987,117.844z"/>
	<path fill="#A1D6F3" d="M12.542,108.076c-1.612-0.365-2.403-1.678-3.279-2.875c-0.385-0.526-0.504-1.3-1.372-1.311
		c-0.31-0.465-0.62-0.93-0.93-1.396c-0.753-1.562-1.966-2.894-2.326-4.652c-0.155-0.31-0.31-0.62-0.465-0.93
		c-0.509-1.029-0.526-2.198-0.93-3.256h0c-0.439-0.775-0.675-1.551,0-2.326c1.537,2.479,1.577,5.606,3.475,7.95
		c0.519,0.642,0.833,1.443,1.641,1.819c-0.14,2.059,1.563,3.113,2.485,4.598C11.358,106.53,12.767,106.723,12.542,108.076z"/>
	<path fill="#ABDAF4" d="M12.542,104.354c1.429,1.052,2.669,2.292,3.722,3.721c-0.465,0-0.93,0-1.396,0
		C14.819,106.381,12.405,106.165,12.542,104.354z"/>
	<path fill="#ADDBF4" d="M42.313,117.845c0.155-0.155,0.31-0.31,0.465-0.465c0.532,1.259,2.198,1.708,2.326,3.256
		C43.5,120.379,42.948,119.071,42.313,117.845z"/>
	<path fill="#9ED5F3" d="M3.239,91.329c0,0.775,0,1.551,0,2.326c-0.626-0.283-0.817-0.802-0.959-1.451
		c-1.228-5.639-1.538-11.24,0.579-16.755c0.185-0.481,0.559-0.889,0.846-1.331c1.177,1.503-0.298,2.718-0.474,4.07
		C2.661,82.575,2.609,86.949,3.239,91.329z"/>
	<path fill="#9ED5F3" d="M4.634,97.842c0.967,1.455,2.191,2.781,2.326,4.652C5.808,101.132,4.247,99.974,4.634,97.842z"/>
	<path fill="#9ED5F3" d="M3.239,93.655c0.782,0.951,0.959,2.074,0.93,3.256C3.098,96.044,3.236,94.83,3.239,93.655z"/>
	<path fill="#9ED5F3" d="M23.242,16.902c-0.085,1.331-0.581,2.442-1.385,3.549c-3.032,4.177-4.616,8.956-5.384,14.014
		c-0.083,0.546-0.246,0.825-0.674,1.044c-0.155-0.155-0.31-0.31-0.465-0.466c-0.218-0.775-0.218-1.551,0-2.326
		c0.31-0.582,1.048-1.056,0.465-1.861c0.629-3.346,2.5-6.195,3.721-9.303C20.602,19.876,21.415,17.983,23.242,16.902z"/>
	<path fill="#9ED5F3" d="M15.799,30.857c0.906,0.885,0.29,1.39-0.465,1.861C15.489,32.097,15.644,31.477,15.799,30.857z"/>
	<path fill="#ABDAF4" d="M9.286,68.536c-0.071,1.775-1.363,3.047-1.9,4.651C4.527,81.736,4.481,90.08,8.907,98.161
		c0.278,0.508,0.379,0.997,0.379,1.542c-2.546-0.389-2.168-2.862-2.75-4.364C4.356,89.713,3.15,83.85,5.128,77.877
		C6.199,74.643,6.751,71.135,9.286,68.536z"/>
	<path fill="#ABDAF4" d="M9.286,100.168c1.533,1.047,2.542,2.502,3.256,4.187C10.642,103.593,10.006,101.848,9.286,100.168z"/>
	<path fill="#B6DFF6" d="M42.779,117.379c-2.51-2.86-6.202-2.977-9.461-3.567c-6.7-1.213-12.568-4.117-17.186-8.78
		C11.476,100.33,7.855,94.85,7.26,87.654c-0.367-4.443-0.156-8.721,1.261-12.723c1.261-3.562,2.993-7.041,5.191-10.28
		c1.843-2.716,4.607-5.037,4.878-8.674c0.878-1.487,0.817-3.145,0.68-4.746c-0.588-6.901-0.167-13.701,1.493-20.447
		c0.741-3.01,2.356-5.565,3.914-8.101c3.737-6.084,8.85-10.806,15.643-13.214c4.025-1.427,8.149-2.929,12.599-2.519
		c1.316,0.121,2.619-0.175,3.927-0.262c0.243,0,0.487,0.018,0.728,0.048c1.992,0.683,4.094,0.969,6.094,1.628
		c0.23,0.034,0.455,0.089,0.678,0.15c5.108,1.535,9.528,4.344,13.784,7.457c4.432,2.452,8.813,2.344,13.374,0.148
		c3.035-1.461,6.212-2.942,9.483-3.527c5.745-1.028,11.578-1.578,17.358,0.43c6.339,2.202,11.793,5.781,16.903,10.012
		c2.988,2.474,6.433,3.597,10.332,3.171c2.246-0.936,4.742-0.836,7.001-0.878c7.068-0.133,14.13,0.434,20.676,3.637
		c2.722,1.332,5.013,3.308,7.583,4.859c6.655,5.318,11.208,12.146,13.775,20.183c1.235,3.868,1.402,7.958,1.001,12.112
		c-0.286,2.958-0.986,5.727-1.791,8.537c-1.432,5.003-4.018,9.328-7.357,13.263c-4.276,5.039-9.519,8.766-15.45,11.596
		c-0.561,0.268-1.239,0.195-1.716,0.655c-3.717,0.498-7.254,1.782-10.905,2.587c-3.324,0.733-6.883,0.374-10.028,2.179
		c-0.957,0.549-2.094,0.769-2.79,1.746c-2.688,1.733-5.416,3.408-8.056,5.211c-4.459,3.046-9.656,3.818-14.73,5.069
		c-3.502,0.863-6.89-0.236-10.345-0.104c-4.353,0.167-7.641,1.916-10.756,4.935c-3.431,3.325-6.857,6.668-11.295,8.966
		c-4.899,2.537-10.021,4.208-15.307,4.155c-9.361-0.092-17.481-3.626-24.291-10.388C48.296,122.035,46.209,118.894,42.779,117.379z"
		/>
	<path fill="#B0DDF5" d="M180.935,34.114c-0.844,0.096-1.415-0.36-2.055-0.85c-4.732-3.625-10.044-5.801-15.954-6.797
		c-5.799-0.978-11.565-0.228-17.345-0.262c0.155-0.31,0.31-0.62,0.465-0.93c1.551,0,3.101,0,4.652,0
		c1.477-0.895,3.109-0.229,4.652-0.465c4.545-0.004,9.052,0.362,13.49,1.396c3.216,1.718,6.735,2.849,9.701,5.06
		c0.746,0.556,1.469,1.092,1.928,1.917C180.731,33.44,181.219,33.585,180.935,34.114z"/>
	<path fill="#B0DDF5" d="M78.132,15.971c-2.262-1.284-4.527-2.563-6.786-3.853c-2.278-1.3-4.619-2.451-7.169-3.125
		c0.93-1.953,1.861-0.34,2.791,0c0.155,0,0.31,0,0.465,0c0.597,0.356,1.334,0.432,1.86,0.93c2.56,0.801,4.266,3.204,6.978,3.721
		C76.742,14.54,77.905,14.881,78.132,15.971z"/>
	<path fill="#AFDDF5" d="M180.935,34.114c-0.155-0.31-0.31-0.621-0.465-0.931c5.683,3.537,9.416,8.643,12.476,14.529
		c2.608,5.017,3.641,10.298,3.457,15.714c-0.173,5.108-0.338,10.382-3.16,15.027c-0.673,1.108-1.079,2.378-1.608,3.573
		c-0.497,0.527-0.466,1.318-0.93,1.861c-0.777,1.084-1.736,2.038-2.326,3.256c-3.191,2.355-5.55,5.604-8.579,8.093
		c-1.719,1.412-3.928,2.32-6.042,3.127c-1.498,0.572-2.499,2.403-4.451,1.805c1.32-1.335,3.103-1.907,4.692-2.777
		c7.288-3.992,12.884-9.594,16.815-16.934c2.671-4.988,4.214-10.311,4.46-15.882c0.24-5.42-1.087-10.519-3.368-15.618
		c-2.549-5.699-6.492-9.985-10.762-14.196C181.001,34.619,181.001,34.333,180.935,34.114z"/>
	<path fill="#B0DDF5" d="M57.199,7.133c-1.961,0.511-3.964,0.421-5.965,0.482c-5.946,0.181-11.323,2.199-16.323,5.304
		c-6.176,3.836-10.023,9.652-12.884,16.072c-1.055,2.369-1.221,5.227-1.841,7.821c-1.319,5.52-0.242,11.036-0.663,16.529
		c-0.074,0.968,0.266,2.07-0.933,2.635c0.948-3.26-0.016-6.52-0.039-9.778c-0.028-3.915,0.32-7.774,0.969-11.62
		c0-0.465,0-0.93,0-1.396c0.37-1.579,0.637-3.189,1.396-4.652c0.091-1.505,0.632-2.785,1.861-3.721
		c0.473-1.17,1.138-2.23,1.861-3.256c0.155-0.155,0.31-0.31,0.465-0.465c0.759-1.097,1.765-2.018,2.326-3.256
		c4.598-5.388,10.127-8.91,17.273-10.374c3.728-0.764,7.35-1.268,11.103-1.255C56.073,6.806,57.341,5.911,57.199,7.133z"/>
	<path fill="#AFDCF5" d="M57.199,7.133c-0.465-0.31-0.93-0.62-1.396-0.93c3.378-0.544,6.366,1.489,9.675,1.477
		c0.703-0.003,1.163,0.677,1.489,1.314c-0.93,0.022-1.861-1.065-2.791,0c-0.155,0-0.31,0-0.465,0
		c-1.808-1.295-4.025-1.262-6.048-1.86C57.509,7.133,57.354,7.133,57.199,7.133z"/>
	<path fill="#AFDCF5" d="M20.915,28.531c0.081,1.714-0.827,3.132-1.396,4.652C19.535,31.497,19.352,29.752,20.915,28.531z"/>
	<path fill="#AFDCF5" d="M27.428,17.832c-0.215,1.485-1.091,2.499-2.326,3.256C25.2,19.519,26.56,18.851,27.428,17.832z"/>
	<path fill="#AFDCF5" d="M24.637,21.553c-0.178,1.338-1.021,2.296-1.861,3.256C22.78,23.372,23.376,22.273,24.637,21.553z"/>
	<path fill="#AFDCF5" d="M69.293,9.924c-0.737-0.075-1.388-0.326-1.86-0.93C68.23,8.95,68.942,9.077,69.293,9.924z"/>
	<path fill="#ADDBF4" d="M188.378,87.143c0.215-1.485,1.091-2.499,2.326-3.256C190.501,85.381,189.404,86.236,188.378,87.143z"/>
	<path fill="#ADDBF4" d="M190.704,83.887c-0.044-0.797,0.083-1.509,0.93-1.861C191.678,82.823,191.551,83.535,190.704,83.887z"/>
	<path fill="#AFDCF5" d="M155.351,24.81c-1.471,0.949-3.107,0.253-4.652,0.465C152.103,23.652,153.736,24.322,155.351,24.81z"/>
	<path fill="#BCE1F6" d="M136.744,25.739c1.4,0.462,2.778,1.013,4.205,1.366c2.656,0.658,5.351,0.034,8.015-0.034
		c5.369-0.137,10.633,0.166,15.877,1.454c9.781,2.403,17.052,8.125,22.716,16.278c2.775,3.995,4.551,8.325,5.461,13.038
		c0.98,5.078,0.675,10.069-1.383,14.88c-0.548-0.473-0.576-1.125-0.616-1.773c-0.02-3.447,0.879-6.845,0.492-10.321
		c-0.922-8.277-4.585-15.102-10.525-20.891c-4.539-4.423-9.751-7.552-15.784-9.379c-3.649-1.105-7.374-1.294-11.18-1.361
		c-4.988-0.087-10.05,0.258-14.947-1.158c-0.893-0.258-1.782-0.561-2.352-1.387C136.597,26.211,136.605,25.973,136.744,25.739z"/>
	<path fill="#BEE2F6" d="M146.047,104.354c-4.217,3.494-8.924,6.258-13.88,8.468c-4.616,2.058-9.633,2.605-14.71,2.747
		c-4.039,0.113-8.138,0.086-11.984,1.839c-1.238,0.565-2.003,2.055-3.617,1.832c-0.217,0.137-0.408,0.115-0.57-0.091
		c-0.011-1.116,0.86-1.522,1.634-1.973c1.115-0.65,2.161-1.39,3.155-2.211c3.015-2.092,6.58-1.728,9.897-1.845
		c7.618-0.269,14.63-2.224,21.209-6.024c2.802-1.618,5.498-3.458,8.562-4.599c0.379-0.025,0.74,0.042,1.075,0.226
		C147.562,103.738,146.451,103.88,146.047,104.354z"/>
	<path fill="#BCE2F6" d="M136.744,25.739c0,0.155,0,0.31,0,0.466c-2.02,0.137-3.511-1.095-4.93-2.178
		c-4.088-3.123-8.533-5.561-13.317-7.383c-3.064-1.167-6.267-1.305-9.542-1.192c-3.38,0.117-6.684,0.198-10.001,1.178
		c-3.481,1.028-6.911,2.15-10.286,3.47c-0.877,0.272-1.781,0.21-2.679,0.235c-1.289-0.018-2.579,0.026-3.867-0.044
		c-3.372-0.921-6.468-2.517-9.524-4.143c-3.378-1.797-6.906-3.063-10.629-3.877c-1.071-0.234-2.406-0.302-2.532-1.887
		c0.34-0.249,0.68-0.269,1.017,0.006c4.827,0.165,9.132,1.87,13.083,4.532c6.028,4.061,12.387,5.013,19.16,2.123
		c5.646-2.409,11.603-3.608,17.66-3.746c4.311-0.098,8.397,1.584,12.37,3.324c3.765,1.649,7.219,3.734,10.277,6.472
		C134.153,24.121,135.819,24.406,136.744,25.739z"/>
	<path fill="#BCE2F6" d="M60.456,10.389c-0.31,0-0.621,0-0.931,0c-1.216,1.004-2.708,0.765-4.014,0.583
		c-5.82-0.813-11.02,1.387-16.086,3.537c-4.211,1.787-7.53,5.01-10.191,8.868c-4.486,6.504-6.323,13.728-6.901,21.523
		c-0.233,3.138,0.409,6.309-0.432,9.4c-0.589,1.41-0.584,3.006-1.357,4.364c-0.365,0.641-0.468,1.505-1.443,1.585
		c-0.15-0.111-0.207-0.23-0.17-0.357c0.038-0.13,0.079-0.196,0.125-0.196c-0.064-1.769,1.12-3.168,1.416-4.847
		c0.6-3.412,0.393-6.851,0.412-10.272c0.035-6.401,0.976-12.537,4.222-18.184c3.544-6.167,8.135-11.2,14.745-14.18
		c4.393-1.981,8.951-2.941,13.784-2.788C55.959,9.5,58.366,8.723,60.456,10.389z"/>
	<path fill="#BCE2F6" d="M45.569,117.379c-4.88-3.246-10.49-4.525-16.01-6.136c-3.24-0.946-6.166-2.788-8.977-4.688
		c-5.611-3.792-8.957-9.265-10.688-15.624c-1.717-6.307-1.487-12.592,1.619-18.607c0.81-1.568,1.601-3.153,2.425-4.719
		c0.325-0.248,0.658-0.296,1-0.035c0.123,1.881-0.97,3.37-1.666,4.969c-3.832,8.809-3.346,17.334,1.89,25.394
		c3.96,6.096,9.523,10.011,16.576,12.199c3.855,1.196,7.919,2.053,11.472,4.195c1.135,0.685,2.307,1.258,2.546,2.741
		C45.694,117.173,45.632,117.276,45.569,117.379z"/>
	<path fill="#BCE2F6" d="M101.391,119.24c0.155,0,0.31,0,0.466,0.001c0.016,0.793-0.502,1.3-1.043,1.722
		c-3.984,3.105-7.604,6.728-12.266,8.884c-11.398,5.272-22.147,3.96-32.459-3.034c-3.66-2.482-6.491-5.885-10.082-8.411
		c-0.258-0.181-0.296-0.674-0.437-1.022l0.001-0.001c1.411-0.69,2.17,0.52,2.974,1.18c2.621,2.153,5.065,4.51,7.87,6.452
		c6.448,4.462,13.571,6.731,21.384,6.095c5.037-0.411,9.816-2.013,13.914-5.175c0.859-0.663,1.752-1.262,2.677-1.818
		c1.255-0.475,2.126-1.442,3.021-2.379C98.632,120.735,99.511,119.186,101.391,119.24z"/>
	<path fill="#BCE2F6" d="M146.047,104.354c0.31-0.465,0.62-0.93,0.93-1.396c2.558-1.701,5.494-2.657,8.437-2.815
		c4.211-0.226,8.027-1.719,11.757-3.213c6.597-2.644,12.329-6.696,16.762-12.422c2.537-3.278,4.526-6.772,5.682-10.785
		c0.298-1.035-0.272-3.086,2.019-2.862c0,0.62,0,1.24,0,1.861c0.509,0.983-0.197,1.74-0.467,2.585
		c-1.786,5.578-5.291,9.999-9.294,14.138c-4.831,4.995-10.776,8.103-17.233,10.261c-2.968,0.992-6.077,2.314-9.062,2.401
		C152.11,102.21,149.184,103.48,146.047,104.354z"/>
	<path fill="#BBE1F6" d="M14.868,67.606c-0.31,0-0.62,0-0.93,0c1.414-2.825,2.799-5.668,5.117-7.908c0,0.155,0,0.31,0,0.465
		c0.163,0.174,0.345,0.436,0.239,0.611c-1.28,2.098-2.282,4.353-3.623,6.414C15.5,67.45,15.179,67.547,14.868,67.606z"/>
	<path fill="#B0DDF5" d="M57.664,7.133c2.214-0.024,4.337,0.246,6.048,1.86C61.762,8.157,59.499,8.342,57.664,7.133z"/>
	<path fill="#C0E3F7" d="M191.634,70.862c-1.549,0.694-1.358,2.322-1.647,3.527c-0.876,3.653-2.72,6.794-4.906,9.708
		c-3.463,4.617-7.829,8.247-12.879,11.098c-2.888,1.63-5.93,2.8-9.048,3.848c-5.28,1.775-10.961,1.886-16.177,3.916
		c-0.31,0-0.62,0-0.93,0c0.103-1.504,1.442-1.435,2.37-1.739c4.478-1.47,9.069-2.55,13.577-3.944
		c7.668-2.372,14.235-6.401,19.747-12.127c2.322-2.412,3.943-5.354,4.468-8.768c0.783-1.752,2.286-3.096,2.826-4.989
		c2.612-9.48,0.667-18.075-5.047-25.922c-5.733-7.872-13.432-12.872-22.954-14.596c-4.731-0.857-9.527-1.633-14.514-1
		c-4.221,0.536-8.475-0.558-12.175-2.993c-2.91-1.915-5.84-3.784-8.88-5.499c-7.907-4.46-16.18-5.931-25.086-3.753
		c-2.561,0.626-5.119,1.216-7.609,2.087c-0.951,0.333-1.916,0.642-2.954,0.507c-0.388-0.066-0.731-0.216-0.986-0.529
		c2.44-1.832,5.484-2.135,8.224-3.205c1.317-0.514,2.754-0.77,4.16-1.002c7.246-1.196,14.296-1.199,21.21,2.07
		c5.101,2.412,9.237,6.291,14.32,8.65c2.509,1.302,5.148,1.769,7.999,1.937c6.111,0.361,12.297-0.328,18.324,0.93
		c2.91,0.607,5.819,1.647,8.464,3.006c5.296,2.723,9.983,6.378,13.583,11.16c3.748,4.978,6.279,10.524,7.026,16.836
		C192.572,63.73,191.607,67.26,191.634,70.862z"/>
	<path fill="#C6E6F8" d="M89.762,19.693c1.689,0.119,3.138-0.725,4.68-1.182c4.957-1.471,9.957-2.794,15.179-2.513
		c5.515,0.298,10.733,1.729,15.586,4.483c3.545,2.012,6.845,4.426,10.375,6.415c3.709,2.09,7.854,2.862,12.234,2.263
		c2.65-0.362,5.401-0.569,8.029,0.381c2.346,0.848,4.826,0.434,7.27,1.095c13.669,3.699,22.582,12.345,26.875,25.621
		c1.483,4.587,1.075,9.552,0.093,14.339c-0.107,0.521-0.401,1.01-0.931,1.273c-0.396,0.321-0.805,0.301-1.221,0.049
		c-0.732-2.535,0.32-5.054,0.075-7.587c-0.055-0.207-0.091-0.417-0.123-0.628c0.062-1.557-0.823-2.886-1.055-4.374
		c0.065-0.219,0.16-0.423,0.276-0.617c0.348-1.573,0.037-3.058-0.558-4.516c-4.079-10.004-11.107-16.861-21.374-20.464
		c-4.533-1.59-9.18-2.179-13.89-2.223c-6.264-0.059-12.347-0.715-18.009-3.634c-4.932-3.206-9.927-6.273-15.572-8.127
		c-6.405-2.104-12.792-1.708-19.194-0.045c-4.784,1.243-9.485,2.738-14.569,2.535c-4.231-0.169-7.96-1.637-11.745-3.259
		c-8.413-3.603-16.96-6.542-26.25-3.363c-9.168,3.137-15.208,9.317-18.497,18.469c-2.185,6.082-2.308,12.417-3.077,18.678
		c-0.208,1.696-1.03,3.264-0.88,5.005c-0.919,1.881-1.625,3.831-1.83,5.935c-0.133,0.201-0.323,0.308-0.558,0.335
		c-0.199,0.115-0.368-0.48-0.622,0.018c-1.684,3.309-3.197,6.718-4.407,10.203c-1.916,5.516-2.104,11.128-0.244,16.829
		c2.888,8.851,9.63,13.623,17.689,16.775c6.737,2.634,13.339,5.255,18.73,10.332c2.347,2.21,5.108,4.006,8.035,5.465
		c3.603,2.551,7.858,3.243,12.03,3.694c7.7,0.832,14.659-1.419,20.924-5.992c2.624-1.916,5.196-3.906,7.983-5.611
		c3.509-2.147,7.259-3.225,11.328-3.748c7.272-0.933,14.654-1.495,21.375-4.943c3.028-1.554,5.944-3.312,9.001-4.804
		c3.428-1.608,6.943-2.952,10.629-3.895c8.049-2.059,15.829-4.811,22.355-10.175c3.667-3.014,6.578-6.728,8.894-10.887
		c0.337-0.652,0.815-1.057,1.606-0.898c0.505,1.166-0.026,2.174-0.456,3.216c-2.237,5.415-6.534,8.958-11.135,12.195
		c-6.203,4.365-13.382,6.33-20.554,8.381c-2.762,0.79-5.769,0.991-8.213,2.767c-3.129,1.282-5.849,3.312-8.843,4.839
		c-5.204,2.653-10.377,5.301-16.452,5.442c-3.606,0.084-7.203,0.568-10.802,0.896c-1.412,0.128-2.667,0.746-3.908,1.383
		c-4.8,2.438-8.656,6.197-12.929,9.362c-11.416,8.456-25.429,7.092-36.552,0.038c-4.338-2.751-7.667-6.718-11.936-9.521
		c-2.048-1.344-4.175-2.497-6.57-3.212c-7.378-2.201-14.651-4.751-19.827-10.882c-7.133-8.449-9.141-18.106-4.77-28.547
		c1.828-4.366,4.025-8.52,6.434-12.584c0.776-1.308,1.18-2.83,1.403-4.365c1.489-3.379,0.645-6.99,0.939-10.477
		c0.853-10.121,3.629-19.379,11.39-26.355c6.014-5.405,13.062-8.264,21.432-7.495c4.893,0.45,9.68,1.078,14.16,3.149
		c3.568,1.649,7.08,3.416,10.752,4.834c0.577,0.223,1.135,0.508,1.779,0.467c0.872-0.104,1.708,0.217,2.57,0.224
		C86.145,20.158,87.98,20.244,89.762,19.693z"/>
	<path fill="#C0E3F7" d="M21.381,55.977c0.352,3.058-1.637,5.286-2.888,7.718c-2.422,4.709-5.006,9.339-6.144,14.567
		c-1.559,7.16,0.073,13.617,4.152,19.68c2.384,3.543,5.273,6.361,8.933,8.465c3.946,2.269,8.127,4.006,12.496,5.231
		c3.855,1.081,7.183,3.098,10.093,5.7c5.701,5.096,11.549,9.826,19.212,11.695c8.216,2.004,15.921,1.33,23.304-3.232
		c4.661-2.88,8.54-6.82,13.407-9.371c0.683-0.358,1.29-0.852,2.096-0.912c-1.113,1.787-3.626,1.825-4.652,3.721
		c-1.24,0.93-2.481,1.861-3.721,2.791c-1.058,0.622-1.75,1.684-2.791,2.326c-6.238,5.322-13.435,8.006-21.643,7.405
		c-7.597-0.556-14.197-3.654-20.126-8.406c-2.5-2.004-4.428-4.747-7.539-5.977c-1.523-2.868-4.529-3.626-7.19-4.47
		c-1.644-0.521-3.309-1.104-4.987-1.581c-4.362-1.24-8.757-2.712-12.157-5.663c-5.263-4.569-9.382-9.963-10.627-17.261
		c-1.297-7.599,0.852-14.276,4.259-20.799c1.396-2.481,2.791-4.962,4.187-7.443c1.505-1.556,1.387-3.789,2.326-5.582
		C21.697,55.046,21.7,55.511,21.381,55.977z"/>
	<path fill="#C0E3F7" d="M21.381,55.977c0-0.465,0-0.931,0-1.396c0.663-3.243,0.023-6.519,0.35-9.813
		c0.723-7.283,2.135-14.125,6.207-20.453c3.104-4.826,6.991-8.483,12.057-10.833c6.17-2.862,12.758-3.715,19.531-3.091
		c1.387,1.838,3.638,1.486,5.48,1.96c3.713,0.955,6.992,2.815,10.338,4.487c2.136,1.068,4.407,1.758,6.51,2.856
		c0.153,0.103,0.203,0.207,0.153,0.31c-0.051,0.103-0.101,0.155-0.153,0.155c-2.137,0.031-3.917-0.958-5.827-1.775
		c-6.429-2.749-12.648-5.902-19.969-6.305c-4.616-0.254-8.793,0.351-13.025,1.858c-4.468,1.592-8.171,4.218-11.258,7.78
		c-5.239,6.046-7.728,13.157-8.612,21.033c-0.4,3.56-0.467,7.13-0.855,10.68C22.207,54.349,22.031,55.252,21.381,55.977z"/>
	<path fill="#C0E3F7" d="M89.762,19.693c-1.731,1.087-3.671,0.926-5.583,0.93c0.131-1.288,1.413-0.275,1.861-0.93
		c0.93,0,1.86,0,2.79,0C89.141,19.693,89.451,19.693,89.762,19.693z"/>
	<path fill="#C0E3F7" d="M86.04,19.693c-0.399,0.753-1.462,0.177-1.861,0.93c-0.775-0.155-1.551-0.31-2.326-0.465
		c0-0.155,0-0.31,0-0.465C83.249,19.693,84.644,19.693,86.04,19.693z"/>
	<path fill="#BEE2F6" d="M94.878,124.357c0.751-0.991,1.398-2.106,2.791-2.326C96.919,123.022,96.272,124.137,94.878,124.357z"/>
	<path fill="#060809" d="M186.405,76.4c-0.459,0.31-0.918,0.619-1.377,0.929c-0.429,0.673-1.047,0.933-1.827,0.846
		c-1.458-0.269-2.917-0.301-4.378-0.011c-0.332,0.081-0.668,0.109-1.008,0.086c-0.564-0.06-1.073-0.285-1.576-0.53
		c-0.584-0.31-1.181-0.6-1.758-0.927c-1.126-0.714-1.736-1.863-2.471-2.911c-2.099-4.09-2.022-8.263-0.487-12.494
		c0.614-0.983,1.284-1.929,2.065-2.791c0.635-0.628,1.271-1.258,2.055-1.71c0.704-0.378,1.407-0.76,2.201-0.93
		c0.467-0.091,0.94-0.125,1.415-0.129c1.089,0.012,2.18-0.054,3.266,0.083c0.48,0.067,0.934,0.234,1.393,0.381
		c1.389,0.62,3.004,0.999,3.17,2.938c0.935,1.409,1.599,2.891,1.248,4.646c-0.813,0.783-1.846,0.623-2.831,0.652
		c-3.14,0.095-6.286-0.177-9.412,0.156c-0.182,0.132-0.33,0.297-0.422,0.506c-0.63,3.224,0.134,5.967,2.758,8.074
		c1.258,1.342,2.895,1.232,4.515,1.173c0.52-0.024,1.024-0.126,1.515-0.298c1.463-0.337,2.036-1.969,3.449-2.376
		c0.415,0.034,0.829,0.068,1.244,0.102C189.144,73.927,187.459,74.972,186.405,76.4z"/>
	<path fill="#D0EAF8" d="M20.916,63.885c0.136,0.001,0.272,0.001,0.407,0.002c0.731,0.224,0.884,0.779,0.835,1.452
		c-0.461,2.872-2.121,5.289-3.043,8.002c-2.685,7.904-2.33,15.403,2.398,22.45c2.286,3.408,5.425,5.933,8.932,7.986
		c2.543,1.489,5.213,2.74,8.004,3.713c5.808,2.024,10.542,5.862,15.5,9.292c4.625,3.2,9.427,6.144,14.933,7.264
		c6.056,1.232,12.183,1.231,17.876-1.938c1.69-0.941,3.457-1.745,5.173-2.644c0.8-0.419,1.652-0.979,2.582-0.22
		c0.201,0.997-0.351,1.583-1.097,2.101c-5.93,4.12-12.433,6.75-19.715,6.156c-5.114-0.417-10.269-1.323-14.634-4.476
		c-2.723-1.182-5.16-2.922-7.269-4.892c-5.212-4.87-11.498-7.582-18.011-10.086c-7.42-2.853-13.743-7.318-17.053-14.802
		c-1.865-4.216-2.444-8.802-1.912-13.572C15.479,73.805,18.158,68.864,20.916,63.885z"/>
	<path fill="#CFEAF8" d="M187.087,59.23c-0.863-1.16-1.868-2.134-3.309-2.541c0.111-3.396-1.766-6.032-3.559-8.586
		c-3.457-4.924-8.23-8.34-13.546-11.048c-2.455-1.251-5.098-1.822-7.782-2.261c-4.119-0.675-8.25-1.249-12.43-1.389
		c-7.389-0.247-13.728-3.448-19.934-7.053c-5.57-3.236-11.529-5.49-18.012-5.445c-3.988,0.027-8.061,0.254-11.927,1.596
		c-1.332,0.463-2.704,0.673-4.118,0.607c-0.641-0.036-1.284-0.067-1.794-0.537c-0.046-1.241,1.063-1.225,1.758-1.424
		c7.089-2.024,14.242-3.804,21.688-2.463c5.068,0.913,9.655,3.161,13.982,5.879c1.764,1.108,3.733,1.869,5.351,3.209
		c2.443,0.678,4.53,2.204,7.1,2.684c4.857,0.906,9.779,0.949,14.662,1.236c7.904,0.465,15.031,2.985,20.99,7.953
		c4.224,3.522,7.835,7.882,9.766,13.264c0.729,2.031,2.031,3.951,1.469,6.292C187.324,59.212,187.205,59.221,187.087,59.23z"/>
	<path fill="#CCE9F8" d="M133.488,28.065c-3.542-2.003-6.97-4.25-10.65-5.954c-6.555-3.036-13.495-4.398-20.654-2.704
		c-3.85,0.911-8.006,0.79-11.492,3.076c-2.776,0.811-5.658,0.914-8.438,0.472c-3.955-0.629-7.718-1.943-11.461-3.525
		c-9.272-3.92-18.812-5.864-28.444-1.028c-6.498,3.263-10.819,8.467-13.538,15.224c-2.091,5.194-2.469,10.618-3.041,16.05
		c-0.201,1.911-0.832,3.766-0.753,5.71c0.201,0.404,0.541,0.73,0.673,1.174c-0.493,1.151-1.522,1.224-2.564,1.273
		c-0.332-0.349-0.653-0.782-0.442-1.237c1.798-3.881,1.451-8.12,1.878-12.187c1.247-11.87,5.738-21.668,16.677-27.524
		c5.814-3.113,12.052-4.191,18.578-2.597c4.852,1.185,9.59,2.581,14.13,4.843c6.162,3.069,12.751,3.28,19.377,1.324
		c5.636-1.664,11.284-2.932,17.275-2.719c3.835,0.136,7.283,1.262,10.673,2.668c4.038,1.675,7.797,3.945,11.447,6.364
		c0.306,0.203,0.516,0.552,0.771,0.833c0.161,0.104,0.214,0.207,0.16,0.311C133.595,28.014,133.542,28.065,133.488,28.065z"/>
	<path fill="#807B7A" d="M23.124,57.832c0.816-0.462,1.633-0.925,2.449-1.387c0.372-0.512,0.945-0.669,1.502-0.858
		c0.578-0.158,1.167-0.198,1.763-0.149c0.944,0.141,1.86,0.414,2.79,0.625c1.075,0.364,2.116,0.778,2.674,1.88
		c0.402,1.334,1.027,2.654,0.292,4.07c-1.22,0.878-2.082,0.359-2.804-0.714c-0.476-0.874-1.124-1.606-1.891-2.237
		c-1.143-0.873-2.342-0.814-3.571-0.22c-1.727,1.059-1.987,2.447-0.933,4.128c0.469,0.55,1.126,0.787,1.762,1.059
		c0.853,0.369,1.749,0.595,2.65,0.805c1.037,0.327,1.974,0.864,2.934,1.358c0.59,0.348,1.103,0.782,1.501,1.346
		c0.321,0.498,0.586,1.024,0.824,1.567c1.106,4.5-0.171,7.141-4.402,9.13c-1.452,0.412-2.902,0.866-4.444,0.519
		c-1.165-0.372-2.407-0.501-3.51-1.083c-1.537-0.974-1.49-2.784-2.216-4.189c-0.203-0.9-0.281-1.79,0.237-2.625
		c0.522-0.491,1.13-0.527,1.78-0.336c0.473,0.188,0.738,0.581,0.978,0.996c0.49,0.943,0.851,1.959,1.52,2.809
		c0.749,0.969,1.639,1.661,2.954,1.529c1.441-0.13,2.756-0.522,3.293-2.039c0.506-1.431-0.18-2.511-1.246-3.409
		c-0.672-0.504-1.486-0.7-2.237-1.03c-0.877-0.35-1.839-0.456-2.674-0.925c-0.836-0.453-1.635-0.964-2.415-1.509
		c-0.524-0.433-0.847-0.967-0.832-1.668c-0.177-0.463-0.354-0.926-0.531-1.389C21.025,61.601,21.583,59.57,23.124,57.832z"/>
	<path fill="#CDE9F8" d="M59.06,122.496c4.169,2.936,9.1,3.437,13.895,4.432c2.123,0.441,4.127,0.026,6.18-0.242
		c5.132-0.671,9.596-2.986,13.944-5.605c0.729-0.439,0.97-1.171,1.334-1.841c-0.179-0.407-0.069-0.817,0.23-1.054
		c2.275-1.801,4.206-4.152,7.305-4.666c3.07-0.762,5.89-2.362,9.047-2.8c4.038-0.559,8.068-1.183,12.112-1.679
		c1.246-0.153,2.367-0.662,3.589-0.791c2.645,0.045,4.913-1.14,7.11-2.367c2.35-1.313,4.821-2.363,7.204-3.598
		c0.67-0.347,1.365-0.753,2.18-0.397c0.208,0.181,0.23,0.383,0.067,0.606c-2.798,2.028-5.906,3.526-8.972,5.065
		c-7.437,3.734-15.596,4.246-23.673,5.238c-4.647,0.571-8.741,2.835-12.432,5.713c-5.609,4.374-11.403,8.416-18.702,9.323
		c-3.978,0.494-7.951,0.555-11.881-0.757c-1.858-0.62-3.828-0.912-5.672-1.671c-0.832-0.342-1.528-0.699-1.934-1.512
		C59.622,123.466,58.751,123.374,59.06,122.496z"/>
	<path fill="#CCE8F8" d="M59.06,122.496c0.31,0.465,0.62,0.931,0.93,1.396c-3.335-1.032-5.993-3.256-8.423-5.526
		c-5.162-4.822-11.397-7.466-17.858-9.795c-7.591-2.736-14.061-7.154-17.491-14.526c-3.213-6.906-3.283-14.317-0.091-21.475
		c1.371-3.076,2.197-6.416,4.338-9.126c0.039-0.05,0.108-0.076,0.164-0.113c0.096,0.185,0.191,0.37,0.287,0.554
		c-0.656,2.849-2.266,5.278-3.497,7.87c-3.252,6.85-2.81,13.87-0.448,20.719c1.727,5.007,5.795,8.33,9.986,11.466
		c4.482,3.353,9.931,4.466,14.795,6.915c3.393,1.709,6.466,3.815,9.347,6.244C53.564,119.178,56.135,121.096,59.06,122.496z"/>
	<path fill="#CCE8F8" d="M133.488,28.065c0-0.155,0-0.31,0.001-0.466c1.415-0.096,2.447,0.867,3.658,1.332
		c3.648,1.402,7.48,1.853,11.322,1.88c4.948,0.034,9.897,0.214,14.644,1.547c6.266,1.76,11.802,4.867,16.346,9.737
		c3.357,3.597,6.131,7.467,7.768,12.104c0.572,1.619,1.301,3.288,0.216,5.003c-1.23-4.585-2.734-9.003-5.907-12.732
		c-1.236-1.453-2.261-3.088-3.618-4.483c-3.583-3.682-7.884-6.175-12.675-7.854c-5.935-2.079-12.169-1.942-18.331-2.396
		C142.226,31.393,137.579,30.684,133.488,28.065z"/>
	<path fill="#CCE9F8" d="M143.256,102.494c0-0.155,0-0.31,0-0.466c0.211-1.556,1.638-1.673,2.676-2.142
		c4.16-1.878,8.632-2.831,12.968-4.176c9.581-2.972,17.688-7.909,23.163-16.567c0.228-0.275,0.534-0.51,0.515-0.929
		c0.008-0.183,0.069-0.346,0.178-0.492c0.177-0.074,0.342-0.054,0.495,0.06c0.592-0.151,1.184-0.302,1.776-0.453
		c-0.046,1.947-1.466,3.236-2.502,4.571c-6.022,7.762-13.816,12.688-23.396,15.275C153.779,98.62,148.351,100.139,143.256,102.494z"
		/>
	<path fill="#CEE9F8" d="M187.907,71.764c-0.691,1.391-1.703,2.409-3.254,2.799c-0.746-0.157-1.359-0.511-1.181-1.373
		c0.524-2.537,0.952-5.107,2.082-7.475c0.167-0.349,0.483-0.583,1.102-0.601c-0.702-0.076-1.114,0.307-1.609,0.3
		c-0.905,0.028-1.808,0.049-2.713,0.019c-0.555-0.063-1.095-0.164-1.488-0.617c-0.079-0.315,0.032-0.536,0.331-0.662
		c2.382,0.048,4.772-0.251,7.144,0.171C188.961,66.848,188.151,69.29,187.907,71.764z"/>
	<path fill="#212527" d="M188.32,64.325c-2.462,0.035-4.924,0.07-7.386,0.105c-2.005,0.865-4.009,0.884-6.011-0.012
		c0.54-0.824,1.385-0.511,2.108-0.517c3.768-0.033,7.536-0.021,11.304-0.025C188.33,64.026,188.325,64.175,188.32,64.325z"/>
	<path fill="#F5FAFD" d="M34.407,62.029c0.295-1.434-0.543-2.731-0.499-4.135c0.04-5.081,1.322-9.906,2.957-14.671
		c0.833-2.426,1.941-4.698,3.183-6.939c2.049-3.697,5.206-5.926,8.908-7.793c6.162-3.106,12.205-1.364,18.342-0.204
		c5.904,1.116,11.556,3.464,17.715,3.371c4.172-0.063,8.237-0.896,12.36-1.285c6.395-0.603,12.657-0.783,19.021,1.168
		c5.175,1.586,9.882,4.373,15.212,5.43c3.535,1.29,6.983,2.697,10.788,3.29c6.169,0.961,12.436,1.914,18.17,4.488
		c5.41,2.428,10.335,5.683,12.386,11.777c0.265,0.788,1.265,1.231,1.007,2.241c-0.599,0.819-1.197,1.638-1.796,2.457
		c-1.122-0.108-1.796-0.662-2.049-1.814c-0.336-1.529-1.149-2.819-2.285-3.904c-3.147-5.417-8.744-7.05-14.128-8.535
		c-6.626-1.828-13.546-2.582-20.069-4.866c-6.124-2.144-12.3-4.121-18.294-6.675c-3.901-1.663-8.26-1.731-12.548-1.276
		c-3.824,0.406-7.623,1.26-11.508,0.792c-0.154-0.019-0.327-0.104-0.457-0.057c-3.557,1.274-7.148,0.092-10.721,0.157
		c-3.759,0.068-7.317-1.061-10.94-1.85c-4.734-1.032-9.41-2.579-14.402-1.635c-3.613,0.683-6.861,1.901-9.163,4.943
		c-2.246,1.629-3.823,3.695-4.238,6.518c-0.142,0.575-0.37,1.117-0.607,1.657c-1.61,4.124-2.445,8.46-3.524,12.73
		c-0.52,2.056-1.048,4.145-2.781,5.617C34.162,62.705,34.126,62.373,34.407,62.029z"/>
	<path fill="#E7F4FB" d="M22.884,77.31c1.075,0.319,2.15,0.638,3.224,0.958c-0.136,0.313-0.378,0.541-0.611,0.777
		c-0.938,3.362-0.505,6.72,0.937,9.716c2.692,5.594,7.032,9.812,12.602,12.532c6.625,3.235,12.824,7.152,19.09,10.998
		c6.679,4.1,13.939,6.371,21.907,5.018c1.887-0.321,3.71-1.074,5.47-1.894c3.632-1.692,7.229-3.468,10.63-5.581
		c5.1-3.168,10.884-4.422,16.527-6.022c4.223-1.197,8.652-1.549,12.897-2.732c1.574-0.439,3.071-0.971,4.522-1.764
		c2.165-1.183,4.371-2.344,6.87-2.735c2.599-0.407,4.587-2.195,6.972-3.119c4.612-1.788,9.327-3.303,13.851-5.322
		c2.609-1.164,4.961-2.79,7.592-3.951c2.808-1.239,4.291-4.157,6.459-6.234c0.443-0.425,0.732-1,1.204-1.411
		c0.608-0.65,1.234,0.179,1.85-0.022c0.471,0.281,0.941,0.563,1.412,0.844c0.208,0.972-0.414,1.637-0.957,2.249
		c-4.416,4.984-9.55,8.948-15.833,11.383c-4.257,1.65-8.534,3.234-12.824,4.792c-5.164,1.875-10.017,4.48-15.084,6.567
		c-5.874,2.419-12.098,3.732-18.358,4.739c-6.118,0.985-11.769,3.063-17.025,6.351c-3.464,2.167-7.088,4.072-10.822,5.746
		c-3.09,1.385-6.294,1.827-9.71,1.739c-2.94-0.075-5.783-0.053-8.665-0.942c-2.917-0.9-5.594-2.193-8.211-3.678
		c-5.567-3.16-10.534-7.34-16.563-9.714c-4.072-2.651-8.888-4.045-12.523-7.435c-5.591-5.212-8.987-11.39-8.437-19.277
		C21.351,78.803,21.238,77.47,22.884,77.31z"/>
	<path fill="#E7F4FC" d="M178.992,56.404c-0.442-0.014-0.883-0.028-1.325-0.041c-1.207-0.016-1.7-0.886-2.203-1.79
		c-4.542-8.162-11.573-12.541-20.731-13.918c-4.89-0.735-9.733-1.791-14.641-2.449c-5.186-1.685-10.212-3.791-15.257-5.843
		c-0.221-0.058-0.435-0.14-0.643-0.235c-0.945-0.629-2.006-0.988-3.092-1.29c-0.231-0.069-0.449-0.162-0.664-0.268
		c-3.309-1.822-6.796-2.769-10.624-2.847c-6.215-0.126-12.277,0.877-18.404,1.649c-4.85,0.611-9.846,0.762-14.721-0.706
		c-6.442-1.941-12.984-3.506-19.653-4.48c-0.461-0.067-0.956-0.225-1.382-0.095c-3.229,0.981-6.834,0.901-9.741,2.636
		c-4.102,2.448-7.125,5.969-9.272,10.387c-2.173,4.471-3.143,9.178-4.009,13.968c-0.18,0.993-0.535,1.94-0.803,2.91
		c-0.432,1.562-1.373,2.171-2.956,1.652c-0.56-2.3,0.515-4.376,0.944-6.53c0.872-4.374,1.502-8.795,3.346-12.949
		c2.508-5.651,6.24-10.102,11.776-12.922c4.873-2.482,10.092-2.666,15.4-2.123c2.01,0.205,3.892,0.953,5.861,1.328
		c2.598,0.17,4.918,1.327,7.307,2.173c6.606,2.34,13.352,2.533,20.108,1.225c6.651-1.288,13.309-1.621,20.03-1.14
		c2.827,0.202,5.334,1.552,7.916,2.557c3.881,1.511,7.5,3.624,11.365,5.18c4.718,1.9,9.538,3.228,14.677,3.673
		c8.042,0.696,16.003,2.069,22.703,7.097c3.228,2.422,6.028,5.296,7.915,8.978c0.521,1.017,0.838,2.426,2.353,2.647
		c0.633,0.005,1.262,0.055,1.894,0.096c0.525,0.11,1.18,0.179,1.251,0.798c0.052,0.452-0.48,0.482-0.871,0.473
		C181.561,56.298,180.257,55.988,178.992,56.404z"/>
	<path fill="#D6EDFA" d="M182.684,56.03c0.204-0.085,0.408-0.169,0.612-0.254c-0.225-0.434-0.639-0.195-0.964-0.27
		c-1.587-1.528-2.132-3.688-3.322-5.477c-4.444-6.678-10.442-11.033-18.182-13.115c-4.585-1.233-9.274-1.802-13.965-2.097
		c-6.649-0.417-12.682-2.52-18.406-5.738c-0.821-0.462-1.626-0.881-2.575-0.964c-1.531-0.881-3.152-1.597-4.706-2.422
		c-3.815-2.024-7.87-2.346-12.087-2.679c-6.849-0.541-13.303,1.311-19.89,2.395c-2.242,0.369-4.386,0.493-6.656,0.136
		c-5.925-0.932-11.493-3.04-17.17-4.817c-5.083-1.592-10.41-2.283-15.581-1.108c-6.771,1.539-12.3,5.226-15.905,11.451
		c-3.572,6.169-4.94,12.945-5.796,19.885c-0.161,1.306-0.417,2.595-0.642,3.887c-0.064,0.418-0.506,0.717-0.38,1.199
		c-0.434,0.376-0.966,0.386-1.497,0.402c-0.381-0.019-0.735-0.091-0.936-0.468c1.619-7.377,1.455-15.131,4.329-22.223
		c2.599-6.413,7.004-11.318,13.168-14.723c7.807-4.313,15.727-3.52,23.843-1.288c4.631,1.273,8.777,3.805,13.526,4.802
		c4.4,0.923,8.704,0.728,13.05-0.06c1.161,0.021,2.278-0.111,3.425-0.418c8.508-2.278,16.807-2.599,25.241,1.043
		c5.101,2.203,9.562,5.546,14.804,7.406c4.527,1.607,9.179,1.933,13.917,2.435c6.323,0.67,12.819,1.03,18.693,4.429
		c4.757,2.752,8.823,6.078,12.175,10.348c1.874,2.387,2.836,5.256,3.938,8.035c0.368,0.929-0.762,0.488-0.968,0.926
		c-0.436,0.317-0.519-0.344-0.853-0.308C182.727,56.345,182.647,56.228,182.684,56.03z"/>
	<path fill="#F0F8FC" d="M174.877,76.521c-0.498,0.639-0.928,0.043-1.384-0.077c-1.033-0.145-1.543,0.627-2.07,1.263
		c-5.03,6.064-11.796,9.392-18.978,12.052c-7.042,2.608-13.858,5.767-20.836,8.516c-3.57,1.407-7.136,2.934-11.021,3.542
		c-10.398,1.628-20.161,4.896-29.365,10.257c-8.748,5.095-18.071,6.885-27.925,2.116c-4.907-2.374-9.363-5.427-14.111-8.016
		c-2.854-1.555-5.712-3.113-8.511-4.757c-3.776-2.218-7.692-4.257-10.498-7.87c-3.048-3.925-4.082-8.435-4.475-13.205
		c-0.053-0.639,0.172-1.222,0.694-1.649c1.654-0.524,2.524,0.057,2.58,1.816c0.012,0.386,0.191,0.778,0.154,1.147
		c-0.429,4.288,1.919,7.493,4.166,10.73c1.449,2.087,3.607,3.37,5.644,4.762c2.548,1.74,5.376,3.007,8.048,4.544
		c5.482,3.156,10.679,6.838,16.558,9.281c5.778,2.402,11.497,4.278,17.901,1.748c5.535-2.187,10.857-4.71,16.181-7.353
		c5.154-2.559,10.689-4.555,16.518-5.207c3.109-0.347,6.052-1.216,8.972-2.228c2.845-0.985,5.856-1.409,8.604-2.746
		c3.331-1.621,6.858-2.8,10.234-4.328c2.398-1.085,4.947-1.848,7.314-2.922c5.03-2.282,10.528-3.698,14.803-7.504
		c1.329-1.183,2.226-2.722,3.505-3.93c0.596-1.054,1.644-1.673,2.444-2.531c0.875-1.011,1.74-1.018,2.589,0.034
		C173.367,74.847,174.122,75.684,174.877,76.521z"/>
	<path fill="#E0F2FA" d="M42.314,106.214c3.196,0.748,5.977,2.479,8.573,4.29c4.543,3.169,9.141,6.299,14.268,8.282
		c2.621,1.013,5.52,2.469,8.656,1.423c1.572-0.524,3.124,0.288,4.778,0.125c5.074-0.5,9.228-2.951,13.495-5.393
		c7.076-4.048,14.259-7.816,22.603-8.789c5.742-0.67,11.38-2.167,16.732-4.35c4.806-1.96,9.398-4.437,14.274-6.27
		c5.405-2.032,10.915-3.789,16.153-6.265c4.105-1.94,7.801-4.411,10.83-7.823c1.206-1.358,2.409-2.72,3.613-4.08
		c0.462,0.167,0.924,0.333,1.386,0.5c0.182,0.82-0.433,1.282-0.851,1.806c-2.713,3.403-5.781,6.495-9.463,8.783
		c-2.135,1.327-4.566,2.254-6.905,3.28c-6.175,2.71-12.741,4.388-18.872,7.212c-2.386,1.099-4.777,2.199-7.122,3.369
		c-6.916,3.453-14.409,4.625-21.893,5.923c-4.514,0.782-8.928,1.929-12.876,4.4c-3.57,1.848-7.006,3.941-10.468,5.973
		c-8.554,5.017-17.288,4.806-26.196,1.242c-4.561-1.825-8.501-4.734-12.414-7.607c-2.384-1.75-5.344-2.495-7.483-4.593
		C42.745,107.24,42.129,106.953,42.314,106.214z"/>
	<path fill="#DCF0FA" d="M99.53,112.262c3.529-2.921,7.925-3.842,12.177-4.484c9.045-1.365,17.877-3.326,25.993-7.608
		c7.312-3.857,15.293-5.929,22.865-9.081c6.411-2.668,11.743-6.616,16.036-12.032c0.332-0.418,0.715-0.796,1.074-1.193
		c0.316-0.015,0.632-0.031,0.948-0.046c0.049,0.06,0.097,0.121,0.147,0.181c0.034,0.154,0.037,0.309,0.023,0.463
		c0.313,0.324,0.575,0.66,0.282,1.137c-4.282,5.907-9.992,9.991-16.543,13.003c-3.944,1.814-8.078,3.105-12.251,4.235
		c-5.731,1.552-10.765,4.679-16.081,7.121c-6.158,2.829-12.546,4.291-19.153,5.133c-2.923,0.373-5.83,0.684-8.509,2.042
		c-0.703,0.357-1.503,0.328-2.275,0.371c-0.878-0.05-1.62,0.362-2.392,0.689C101.109,112.519,100.33,112.966,99.53,112.262z"/>
	<path fill="#ECF6FC" d="M140.001,37.834c4.712,0.016,9.219,1.441,13.845,2.005c3.153,0.385,6.194,1.198,9.103,2.286
		c3.185,1.191,5.764,3.485,8.316,5.767c2.346,2.098,3.961,4.595,5.222,7.412c0.197,0.44,0.778,0.709,1.181,1.057
		c-0.62,0.313-1.239,0.625-1.859,0.938c-1.44-0.349-2.077-1.537-2.748-2.668c-3.539-5.963-8.804-9.582-15.361-11.587
		c-5.879-1.798-12.053-2.059-17.975-3.633c-1.946-0.517-3.836-1.226-5.811-1.632c-4.879-1.438-9.33-3.931-14.068-5.718
		c-2.012-0.759-3.972-1.657-6.115-2.042c-0.867-0.156-1.92-0.284-1.553-1.662c2.789-0.969,5.004,0.954,7.487,1.518
		c0.413,0.094,0.888,0.236,1.264,0.517c0.155,0,0.31,0,0.465,0c0.783,0.76,1.918,0.816,2.792,1.395c0.155,0,0.31,0,0.465,0
		C129.504,34.47,134.674,36.35,140.001,37.834z"/>
	<path fill="#F1F9FC" d="M133.953,37.369c4.177,0.935,8.333,1.982,12.537,2.775c4.797,0.905,9.612,1.557,14.229,3.35
		c5.436,2.111,9.65,5.551,12.641,10.475c0.73,1.202,1.634,2.221,2.448,3.331c-0.617,0.489-1.233,0.978-1.85,1.468
		c-2.235-1.468-2.041-4.415-3.897-6.23c-1.778-1.739-3.417-3.419-5.584-4.824c-2.376-1.54-4.807-2.513-7.384-3.474
		c-3.698-1.38-7.5-2.215-11.38-2.651c-4.763-0.534-9.22-2.09-13.684-3.669c-0.177-0.063-0.27-0.361-0.402-0.55
		C132.402,37.018,133.177,37.021,133.953,37.369z"/>
	<path fill="#F9FBFC" d="M172.612,74.01c-0.748-0.004-1.532-0.755-2.24,0.105c-1.313,0.039-2.134,1.537-3.575,1.206
		c-1.711-0.481-1.63-1.358-0.808-2.719c1.936-3.209,2.669-6.735,2.307-10.475c1.112-1.754,0.395-3.367-0.393-4.977
		c-0.065-0.612-0.035-1.195,0.473-1.639c1.297,0.556,1.796,1.887,2.045,2.964c0.286,1.237,0.999,1.941,1.741,2.75
		C170.5,65.55,170.509,69.817,172.612,74.01z"/>
	<path fill="#E6F4FC" d="M180.937,64.814c0.464,0.001,0.928,0.001,1.392,0.002c0.006,0.076,0.031,0.215,0.017,0.219
		c-2.183,0.621-1.533,2.463-1.744,3.959c-0.266,1.89-0.28,3.955-2.605,4.724c-3.188-2.225-3.44-5.451-3.034-8.901
		C176.954,64.448,178.945,64.453,180.937,64.814z"/>
	<path fill="#DEF0FA" d="M177.997,73.718c1.389-1.449,2.094-3.143,2.022-5.183c-0.061-1.715,0.079-3.389,2.309-3.719
		c0.929,0.001,1.858,0.002,2.787,0.003c-1.456,2.054-0.953,4.76-2.24,6.841c-0.803,1.298-0.501,2.306,0.375,3.33
		C181.297,75.404,179.493,75.197,177.997,73.718z"/>
	<path fill="#D6EDFA" d="M183.251,74.99c-0.529-0.725-1.518-0.113-2.133-0.759c1.082-2.698,2.697-5.257,2.493-8.374
		c-0.065-0.99,1.278-0.28,1.505-1.038c0.758,0,1.517,0,2.275,0c-1.171,0.495-1.634,1.323-1.86,2.512
		c-0.339,1.788-0.805,3.566-1.404,5.284c-0.313,0.896-0.124,1.426,0.525,1.949C184.254,74.931,183.79,75.084,183.251,74.99z"/>
	<path fill="#E7F4FA" d="M175.865,61.098c0.444-1.712,1.74-2.6,3.209-3.322c0.598-0.263,1.21-0.187,1.824-0.073
		c0.565,1.76,0.215,3.312-1.063,4.654C178.423,62.218,176.575,63.448,175.865,61.098z"/>
	<path fill="#DEF0F8" d="M180.008,62.019c0.194-1.411,0.351-2.83,0.927-4.156c0.114-0.201,0.269-0.24,0.465-0.119
		c2.107,0.846,2.732,2.568,2.75,4.65c-0.154,0.241-0.36,0.3-0.618,0.178C182.381,62.235,181.069,62.925,180.008,62.019z"/>
	<path fill="#F3FAFA" d="M180.008,62.019c1.231,0.184,2.545-0.395,3.71,0.402c-2.657,0.739-5.402-0.072-8.072,0.456
		c-1.714-0.813,0.31-1.166,0.219-1.779C176.974,62.63,178.602,61.825,180.008,62.019z"/>
	<path fill="#212527" d="M175.646,62.878c2.668-0.556,5.412,0.233,8.072-0.456c0.147,0.039,0.291,0.03,0.432-0.028
		c-1.552,1.275-3.371,0.427-5.058,0.601C177.959,63.112,176.796,62.927,175.646,62.878z"/>
	<path fill="#E5EEF3" d="M180.937,64.814c-1.991,0.001-3.983,0.002-5.974,0.004c-0.067-0.128-0.081-0.261-0.04-0.4
		c2.004,0.004,4.007,0.008,6.011,0.012C180.934,64.558,180.935,64.686,180.937,64.814z"/>
	<path fill="#000001" d="M183.252,77.782c-0.101,0.105-0.225,0.154-0.371,0.147c-1.445,0.806-2.883,0.757-4.313-0.038l0.056-0.072
		C180.16,77.107,181.704,77.162,183.252,77.782z"/>
	<path fill="#000102" d="M174.333,64.899c0,1.021,0,2.043,0,3.064c-0.076,0.003-0.152,0.005-0.228,0.007c0-1.017,0-2.034,0-3.051
		C174.181,64.912,174.257,64.905,174.333,64.899z"/>
	<path fill="#1C1E20" d="M182.684,56.03c0.077,0.119,0.158,0.236,0.242,0.351c-1.311,0.007-2.622,0.015-3.933,0.022
		C180.172,55.782,181.455,56.175,182.684,56.03z"/>
	<path fill="#1C1E20" d="M181.4,57.744c-0.155,0.04-0.31,0.079-0.465,0.119c-0.62-0.029-1.24-0.058-1.86-0.087
		C179.841,57.137,180.616,57.129,181.4,57.744z"/>
	<path fill="#D6EDF9" d="M104.182,110.867c1.306,0.241,2.357-0.418,3.487-0.907c3.158-1.368,6.605-1.323,9.929-1.856
		c5.471-0.877,10.761-2.105,15.834-4.56c7.997-3.87,16.1-7.527,24.741-9.888c4.598-1.256,8.959-3.46,12.582-6.533
		c2.972-2.521,6.37-4.761,8.322-8.352c0.411-0.403,0.872-0.418,1.366-0.176c0.659,0.72,0.404,1.453-0.046,2.12
		c-1.299,1.925-2.601,3.822-4.426,5.348c-6.852,5.726-14.674,9.3-23.333,11.428c-5.789,1.423-11.066,4.326-16.368,7.049
		c-3.02,1.551-6.021,3.198-9.437,3.786c-4.734,0.999-9.523,1.578-14.314,2.221c-3.673,0.493-7.39,1.545-10.662,3.574
		c-3.117,0.78-5.192,3.077-7.443,5.116c-2.704,0.49-4.927,2.106-7.239,3.378c-4.778,2.628-9.861,3.022-15.045,2.562
		c-7.267-0.645-13.323-4.207-19.11-8.401c-6.186-4.483-12.861-8.057-19.939-11.042c-10.193-4.299-16.432-12.823-16.27-23.465
		c0.072-4.745,1.243-9.419,3.72-13.616c0.626-1.061,0.365-2.457,1.324-3.378c0.355,0.439,0.71,0.879,1.065,1.318
		c-0.032,1.496-0.626,2.965-0.218,4.482c-0.509-0.35-1.069-0.27-1.628-0.189c-0.927,5.266-2.258,10.509-1.251,15.917
		c1.177,6.321,4.899,10.88,10.062,14.468c2.946,2.047,6.05,3.8,9.41,4.993c3.402,1.208,6.383,3.138,9.358,5.058
		c2.92,1.885,5.843,3.772,8.694,5.775c4.44,3.119,9.553,4.917,14.882,5.592c7.185,0.91,13.757-1.32,19.706-5.268
		C95.821,114.841,99.954,112.78,104.182,110.867z"/>
	<path fill="#D0EAF8" d="M92.552,22.484c-2.752,1.417-5.731,1.539-8.705,1.333c-4.979-0.346-9.499-2.317-14.104-4.074
		c-5.214-1.988-10.535-3.123-16.299-3.092c-7.75,0.042-13.558,3.726-18.535,8.678c-3.799,3.78-5.953,8.879-7.064,14.333
		c-0.831,4.074-1.036,8.218-1.845,12.275c-0.276,1.382-0.899,2.695-1.363,4.04c-0.937-2.234,0.188-4.365,0.585-6.436
		c0.566-2.96,0.219-5.936,0.895-8.913c1.366-6.013,3.46-11.514,7.523-16.277c4.298-5.038,9.818-7.952,16.1-9.103
		c4.528-0.829,9.196-0.255,13.738,1.009c3.702,1.031,7.232,2.434,10.764,3.912c4.524,1.893,9.229,2.872,14.185,2.091
		c0.725-0.114,1.508,0.14,2.264,0.224C91.311,22.484,91.932,22.484,92.552,22.484z"/>
	<path fill="#FEFEFE" d="M30.541,77.78c4.051-2.351,5.079-4.648,3.935-8.791c2.241-1.231,1.723-3.503,2.057-5.455
		c0.356-0.42,0.757-0.213,1.152-0.088c0.615,0.321,1.131,0.121,1.599-0.314c0.305-0.266,0.596-0.541,0.802-0.895
		c0.478-1.029,0.036-2.205,0.524-3.231c1.493-1.745,3.327-2.071,5.396-1.236c2.014,0.813,2.401,2.469,2.555,4.472
		c0.209,2.718-0.781,4.388-3.326,5.306c-1.442,0.52-2.843,1.167-4.217,1.865c-1.205,0.613-2.211,1.39-2.695,2.701
		c-0.488,0.996-0.664,2.017-0.238,3.084c0.28,1.017,0.916,1.732,1.862,2.182c1.1,0.533,2.182,0.332,3.26-0.074
		c0.581-0.204,1.202-0.359,1.689-0.726c1.872-1.409,3.531-1.837,5.308,0.316c0.82,0.994,2.281,0.959,3.38,0.103
		c1.026-0.799,1.97-0.603,2.986-0.111c2.7-0.277,5.391-0.12,8.139,0.077c-1.121-0.481-2.395-0.624-3.039-1.813
		c-0.583-1.078-0.497-2.251-0.498-3.406c-0.012-8.824,0.003-17.649-0.011-26.473c-0.004-2.703-0.103-2.759-2.483-1.457
		c-0.736,0.402-1.612,0.562-2.355,1.371c2.432,0.996,2.504,3.07,2.497,5.223c-0.023,7.508,0.014,15.017-0.024,22.526
		c-0.008,1.649,0.008,3.401-2.34,3.542c-1.081-0.215-1.991-0.856-3.258-0.722c-1.335,0.141-1.8-1.186-2.128-2.335
		c-0.219-4.038-0.055-8.076-0.101-12.108c-0.138-2.917-0.616-3.541-3.436-4.459c-0.84-0.312-1.679-0.325-2.517,0.018
		c-1.927,0.457-3.734,1.162-5.414,2.246c-0.584,0.377-1.295,1.223-2.152,0.317c-0.167-0.872,0.4-1.459,0.822-2.095
		c0.431-0.65,0.867-1.304,0.96-2.095c0.592-5.069,2.388-9.769,4.637-14.274c2.383-4.772,6.444-7.174,11.714-8.026
		c5.667-0.916,10.853,0.829,16.214,2.019c4.486,0.996,8.997,2.367,13.736,1.421c1.505-0.3,3.067,0.109,4.619,0.085
		c4.494-0.07,8.901-0.941,13.374-1.165c8.484-0.425,16.051,2.629,23.717,5.683c4.334,1.727,8.613,3.798,13.42,4.257
		c3.545,0.339,6.93,1.615,10.387,2.461c1.724,0.422,3.475,0.743,5.196,1.198c4.208,1.111,7.279,3.986,10.612,6.469
		c1.198,0.892,0.467,1.358-0.469,1.721c-0.617,0.151-1.194-0.035-1.769-0.219c-1.06-0.399-2.121-0.429-3.181,0.01
		c-5.009,1.248-7.849,4.363-8.255,9.576c-0.006,1.048-0.006,2.095,0.007,3.14c0.279,2.681,1.596,4.74,3.668,6.425
		c0.823,0.669,2.151,0.963,2.15,2.399c-3.01,2.192-6.199,4.09-9.671,5.434c-7.856,3.04-15.722,6.049-23.52,9.242
		c-2.969,1.216-6.119,2.048-9.33,2.68c-8.817,1.738-17.333,4.407-25.421,8.471c-5.559,2.793-11.13,5.868-17.742,5.371
		c-1.482-0.111-2.925-0.317-4.306-0.855c-6.219-2.423-12.119-5.46-17.675-9.167c-3.073-2.051-6.672-3.16-9.545-5.642
		c-2.235-1.931-4.474-3.844-6.28-6.161c-1.766-2.265-1.743-5.231-2.576-7.865c-0.267-0.844-0.282-1.714-1.473-1.654
		C31.1,78.227,30.767,78.1,30.541,77.78z"/>
	<path fill="#F6FAFD" d="M30.541,77.78c0.358,0.02,0.716,0.04,1.074,0.059c1.032,1.259,0.695,2.838,0.808,4.238
		c0.362,4.471,2.583,7.79,5.785,10.706c3.364,3.063,7.467,4.902,11.349,7.099c1.129,0.639,2.333,1.171,3.447,1.868
		c2.673,1.673,5.134,3.642,8.027,5.027c2.463,1.179,4.954,1.989,7.575,2.702c4.892,1.33,9.629,0.825,14.4-0.349
		c2.121-0.134,3.968-1.024,5.742-2.107c0.182-0.108,0.373-0.199,0.565-0.286c0.826-0.384,1.769-0.556,2.396-1.309
		c0.223-0.223,0.475-0.404,0.758-0.542c1.119-0.496,2.375-0.698,3.325-1.557c0.156-0.139,0.324-0.262,0.496-0.38
		c1.534-0.913,3.398-1.04,4.89-2.06c0.195-0.107,0.398-0.191,0.608-0.26c2.943-0.365,5.63-1.528,8.323-2.671
		c0.219-0.073,0.443-0.123,0.669-0.162c1.029-0.065,2.038-0.24,3.027-0.534c0.675-0.149,1.339-0.347,2.027-0.432
		c1.33-0.17,2.758,0.236,3.961-0.682c0.517-0.275,1.052-0.505,1.625-0.634c3.381,0.1,6.132-1.865,9.146-2.917
		c1.869-0.653,3.678-1.571,5.562-2.249c0.181-0.124,0.374-0.23,0.569-0.328c1.706-0.843,3.693-0.989,5.281-2.131
		c0.191-0.099,0.391-0.173,0.596-0.236c1.826-0.3,3.325-1.322,4.883-2.215c0.706-0.266,1.449-0.393,2.172-0.594
		c1.995-0.627,4.058-1.092,5.753-2.429c0.169-0.136,0.35-0.252,0.538-0.358c2.461-0.646,4.175-2.622,6.436-3.623
		c0.875-0.301,1.904-0.118,2.643-0.848c0.971-0.341,1.653-1.508,2.911-1.026c0.069,0.216,0.265,0.551,0.19,0.631
		c-3.179,3.388-6.483,6.512-11.05,8.132c-4.915,1.743-9.683,3.904-14.506,5.907c-5.213,2.165-10.231,4.92-15.698,6.318
		c-4.551,1.164-8.9,2.984-13.739,3.367c-4.325,0.342-8.441,2.298-12.576,3.813c-3.116,1.142-5.683,3.256-8.741,4.445
		c-5.906,2.298-11.446,5.963-18.157,5.371c-3.582-0.316-6.959-1.58-10.311-2.923c-3.501-1.403-6.573-3.576-9.954-5.201
		c-2.492-1.197-4.815-2.944-7.165-4.481c-2.086-1.364-4.333-2.513-6.478-3.573c-4.943-2.445-7.699-6.697-10.442-10.985
		c-1.24-1.939-0.341-4.53-0.834-6.814c-0.289-1.34-0.564-1.979-1.952-1.798c-0.601,0.306-1.217,0.661-1.369-0.438
		c0.327-0.021,0.653-0.043,0.98-0.064C27.586,78.105,29.063,77.943,30.541,77.78z"/>
	<path fill="#FBFCFE" d="M36.746,63.38c0.013,1.107,0.24,2.172,0.068,3.333c-0.227,1.534-0.789,2.301-2.339,2.276
		c-0.201-0.416-0.402-0.831-0.603-1.247c0.048-2.283,1.276-4.255,1.972-6.315c1.14-3.376,1.417-6.945,2.729-10.244
		c0.878-2.209,1.101-4.599,1.88-6.836c0.155-0.465,0.31-0.93,0.465-1.395c1.338-2.208,2.288-4.665,4.186-6.513
		c3.593-5.226,8.876-6.086,14.642-5.617c5.146,0.419,10.065,1.933,15.067,3.076c1.903,0.435,4.022,1.155,6.137,0.323
		c0.774-0.305,1.677-0.186,2.485,0.225c1.697,0.863,3.422,0.888,5.124,0.035c0.733-0.368,1.559-0.578,2.25-0.307
		c2.487,0.977,4.939,0.173,7.317-0.197c5.485-0.854,10.905-0.653,16.354,0.133c1.092,0.158,1.605,1.117,2.584,1.462
		c3.686,1.296,7.474,2.415,11.05,3.869c4.154,1.688,8.431,2.806,12.678,4.031c2.849,0.822,5.792,1.474,8.786,1.851
		c5.761,0.726,10.933,3.157,15.855,6.123c1.515,0.913,2.027,2.661,2.941,4.067c-0.006,0.637-0.011,1.273-0.017,1.91
		c-1.013,0.61-1.763,0.318-2.31-0.673c0.33-0.169,0.659-0.337,1.246-0.637c-2.106-0.565-3.336-2.015-4.69-3.329
		c-2.136-2.073-5.015-2.952-7.695-3.568c-4.557-1.048-9.026-2.801-13.648-3.147c-4.758-0.357-8.833-2.532-13.138-3.942
		c-3.895-1.275-7.677-3.105-11.612-4.448c-5.144-1.755-10.513-2.362-15.754-1.544c-3.8,0.594-7.656,0.994-11.374,0.934
		c-3.825-0.061-7.634,0.498-11.614-0.268c-5.431-1.046-10.676-3.07-16.175-3.496c-5.375-0.417-10.654,0.367-14.775,4.458
		c-2.721,2.701-3.867,6.253-4.929,9.783c-0.813,2.701-2.201,5.236-2.023,8.257c0.089,1.51-1.96,2.323-2.189,3.941
		C38.213,61.171,37.41,62.258,36.746,63.38z"/>
	<path fill="#F0F8FC" d="M133.953,37.369c-0.775,0-1.551,0-2.326,0c-4.11-0.484-7.711-2.468-11.477-3.947
		c-3.008-1.181-6.121-1.913-9.265-2.557c-4.751-0.974-9.448-0.144-14.171,0.356c-4.347,0.461-8.678,1.225-13.081,1.033
		c-3.74-0.163-7.3-1.133-10.904-2.086c-2.949-0.779-5.985-1.373-9.037-1.842c-1.778-0.273-3.623-0.414-5.362-0.835
		c-4.607-1.115-8.307,1.111-11.941,3.135c-4.614,2.571-6.658,7.096-8.494,11.908c-1.32,3.459-2.155,6.991-3.005,10.531
		c-0.379,1.578,0.122,3.363-0.981,4.828c-0.766-0.482-1.532-0.963-2.298-1.445c1.207-5.423,2.235-10.94,4.149-16.124
		c2.275-6.16,6.352-11.168,12.526-13.989c4.241-1.938,8.778-1.457,13.222-0.963c5.302,0.589,10.385,2.28,15.548,3.54
		c3.294,0.803,6.605,0.74,9.882,0.702c4.147-0.049,8.275-0.662,12.409-1.289c4.145-0.629,8.517-0.946,12.744,0.206
		c1.554,1.592,3.814,1.253,5.696,2.021c4.522,1.845,9.022,3.743,13.425,5.842C132.123,36.83,133.248,36.507,133.953,37.369z"/>
	<path fill="#ECF6FC" d="M112.09,28.531c-1.662,0.396-3.304,0.172-4.992,0.09c-3.865-0.187-7.713,0.42-11.563,0.936
		c-3.921,0.526-7.874,0.737-11.884,0.569c-2.861-0.12-5.749-0.28-8.476-0.864c-2.031-0.435-4.17-0.88-6.127-1.609
		c-5.109-1.902-10.451-2.116-15.714-2.035c-3.345,0.051-6.444,1.845-9.227,4.062c-5.737,4.57-8.091,10.858-9.657,17.637
		c-0.52,2.251-0.983,4.516-1.509,6.766c-0.211,0.903-0.56,1.761-1.329,2.366c-0.929-0.159-1.857-0.318-2.786-0.477
		c-0.118-0.102-0.157-0.205-0.118-0.307c0.039-0.102,0.079-0.154,0.118-0.154c1.291,0.095,1.954-0.252,2.454-1.723
		c1.336-3.927,1.297-8.122,2.733-12.026c2.394-6.509,5.785-12.202,11.798-16.012c1.088-0.689,2.365-0.729,3.535-0.838
		c0.843-0.079,1.628-0.088,2.368-0.52c3.762-2.195,7.546-0.29,11.226,0.18c5.377,0.687,10.461,2.938,15.773,3.934
		c4.538,0.851,9.248,1.092,13.879-0.125c1.534-0.403,3.169-0.436,4.762-0.597c6.991-0.704,13.995-1.754,20.836,0.978
		c1.018,0.407,1.971,0.84,2.74,1.628C117.887,30.223,115.211,28.317,112.09,28.531z"/>
	<path fill="#DCEFFA" d="M104.182,110.867c-1.056,1.721-3.119,2.023-4.662,2.776c-4.601,2.245-8.459,5.751-13.365,7.463
		c-3.64,1.27-7.13,2.038-11.132,2.089c-6.629,0.084-12.267-2.121-17.575-5.354c-4.448-2.709-8.77-5.666-13.134-8.532
		c-2.299-1.51-4.875-2.226-7.3-3.337c-5.664-2.594-10.818-5.842-14.439-10.981c-2.036-2.889-3.107-6.23-3.597-9.848
		c-0.651-4.804,0.888-9.229,1.608-13.803c0.027-0.172,0.32-0.302,0.489-0.452c-0.042,0.895-0.085,1.79-0.128,2.686
		c0.834,1.952,0.362,3.914,0.134,5.905c-0.947,8.28,2.283,14.737,8.741,19.781c2.248,1.756,4.6,3.342,7.21,4.466
		c2.193,0.944,4.174,2.225,6.214,3.42c7.211,3.704,13.223,9.427,20.811,12.473c3.844,1.543,7.849,2.005,12.066,2.112
		c7.007,0.179,12.293-3.478,17.934-6.565c1.812-0.992,3.434-2.344,5.476-2.903C101.268,112.423,102.443,110.706,104.182,110.867z"/>
	<path fill="#E1F2FA" d="M28.824,55.512c-0.001,0.154-0.001,0.307,0,0.461c-0.585,0.023-1.17,0.046-1.754,0.069
		c-0.262-0.131-0.509-0.266-0.108-0.532c1.397-2.093,1.322-4.556,1.669-6.896c1.117-7.517,3.134-14.665,8.048-20.698
		c3.364-4.131,7.824-6.5,12.892-7.706c4.513-1.074,9.067-0.704,13.578,0.26c0.767,0.164,1.494,0.404,2.096,0.934
		c0.396,0.446,0.986,0.796,0.792,1.545c-1.898-0.401-3.779-0.955-5.699-1.172c-5.497-0.623-10.89-0.406-15.885,2.428
		c-6.821,3.871-10.502,9.926-12.416,17.339C30.842,46.174,30.384,50.969,28.824,55.512z"/>
	<path fill="#E0F1FA" d="M43.244,107.145c-2.504-1.112-5.086-2.079-7.494-3.37c-3.463-1.857-6.555-4.259-9.538-6.842
		c-2.733-2.367-3.47-5.754-5.041-8.706c-1.85-3.477-0.568-7.176-0.27-10.755c0.11-1.32-0.192-2.607,0.043-3.898
		c1.272,0.921,0.42,2.944,1.939,3.737c-1.935,2.653-1.357,5.708-0.688,8.404c1.416,5.707,4.449,10.558,9.304,14.124
		c2.234,1.641,4.626,2.988,7.165,4.056c1.365,0.575,2.595,1.289,3.647,2.32C42.624,106.525,42.934,106.835,43.244,107.145z"/>
	<path fill="#FAFCFD" d="M40.453,44.347c0.038,2.329-0.746,4.474-1.38,6.674c-1.325,4.6-2.5,9.245-3.685,13.884
		c-0.279,1.093-1.01,1.893-1.515,2.837c-0.435-0.382-0.87-0.764-1.305-1.146c0.095-1.476,0.876-2.605,1.838-3.643
		c2.599-4.93,3.177-10.464,4.722-15.71C39.426,46.231,39.531,45.09,40.453,44.347z"/>
	<path fill="#EEF7FB" d="M27.944,68.981c0.844,0.085,1.608,0.353,2.224,0.964c-0.972,1.211-1.252,2.638-1.158,4.128
		c0.065,1.032-0.202,1.813-1.116,2.332c-1.519,0.199-2.592-0.434-3.289-1.766c-0.177-2.214,1.88-3.624,2.092-5.725
		C26.72,68.685,27.523,68.718,27.944,68.981z"/>
	<path fill="#E5F3FA" d="M26.044,58.327c1.516-0.771,2.976-0.882,4.321,0.364c-0.186,0.895-0.354,1.794-0.44,2.703
		c-0.176,1.851-1.086,2.957-3.019,3.068c-0.693-0.199-1.365-0.432-1.775-1.091c-0.123-1.059,0.644-1.808,1.046-2.644
		C26.624,59.799,26.456,59.105,26.044,58.327z"/>
	<path fill="#F3F7FA" d="M27.895,76.405c0.827-1.335,0.512-2.88,0.729-4.319c0.162-1.077,0.42-1.861,1.544-2.14
		c1.707,0.881,2.204,2.361,1.702,4.074C31.31,75.928,29.701,76.406,27.895,76.405z"/>
	<path fill="#EDF6FB" d="M26.906,64.462c1.959-0.835,2.763-2.352,2.53-4.421c-0.088-0.779,0.364-1.077,0.929-1.35
		c0.768,0.468,1.256,1.169,1.632,1.963c0.633,2.809-0.02,4.155-2.238,4.611C28.767,65.143,27.778,65.012,26.906,64.462z"/>
	<path fill="#E6F3FB" d="M27.944,68.981c-0.316,0.192-0.936-0.343-1.011,0.439c-0.191,1.998-1.437,3.53-2.328,5.219
		c-0.739-0.754-1.156-1.683-1.458-2.676c0.43-1.436-0.558-3.602,2.023-3.932C26.096,68.348,27.02,68.664,27.944,68.981z"/>
	<path fill="#F5F9FC" d="M29.758,65.265c2.275-0.795,1.889-2.881,2.238-4.611c0.606,0.806,1.052,1.891,2.411,1.375
		c-0.001,0.308-0.001,0.616-0.002,0.924c-0.191,1.427-1.022,2.531-1.838,3.643C31.631,66.153,30.695,65.709,29.758,65.265z"/>
	<path fill="#DAEEF9" d="M26.044,58.327c1.787,0.742,0.685,1.919,0.467,2.982c-0.182,0.889-0.759,1.483-1.38,2.063
		C23.508,61.128,23.734,59.88,26.044,58.327z"/>
	<path fill="#DDEFF8" d="M25.171,68.031c-1.819,0.721-0.884,2.859-2.023,3.931c-0.149-0.296-0.298-0.592-0.447-0.887
		c-1.673-1.578-0.461-3.017,0.218-4.481C23.67,67.073,24.421,67.552,25.171,68.031z"/>
	<path fill="#D0EAF8" d="M126.975,108.076c8.306-3.249,15.898-8.15,24.4-10.87c4.079-1.305,8.359-2.124,12.219-3.982
		c6.329-3.047,12.33-6.64,16.34-12.735c0.366-0.557,0.56-1.08,0.537-1.715c0.774-0.642,1.549-0.544,2.324-0.002
		c-2.536,4.564-6.033,8.079-10.346,11.14c-5.347,3.794-11.316,5.888-17.398,7.695c-4.063,1.207-8.166,2.128-11.796,4.422
		c-4.14,1.458-7.793,3.943-11.822,5.615c-1.374,0.57-2.754,1.727-4.459,0.898c-0.161-0.103-0.214-0.207-0.161-0.31
		C126.867,108.127,126.921,108.076,126.975,108.076z"/>
	<path fill="#D2EBF9" d="M126.975,108.076c0,0.155,0,0.31,0,0.465c-2.54,1.628-5.541,1.328-8.311,1.742
		c-5.192,0.775-10.408,1.242-15.243,3.517c-0.469,0.221-1.041,0.221-1.566,0.323c0.326-0.64,0.779-1.158,1.488-1.362
		c3.617-1.042,7.038-2.598,10.966-2.735c3.631-0.127,7.231-1.126,10.847-1.731C125.758,108.194,126.369,108.147,126.975,108.076z"/>
	<path fill="#DEF7FE" d="M182.796,78.771c-0.775,0.001-1.549,0.001-2.324,0.002c-0.465-0.001-0.93-0.001-1.396-0.002
		c-0.203-0.074-0.406-0.147-0.61-0.221c0.096-0.106,0.192-0.212,0.288-0.318c1.337-0.205,2.674-0.325,4.003,0.055
		C183.03,78.428,183.155,78.581,182.796,78.771z"/>
	<path fill="#555F65" d="M182.758,78.288c-1.334-0.018-2.669-0.037-4.003-0.055c-0.062-0.114-0.125-0.228-0.188-0.342
		c1.438,0.013,2.876,0.026,4.313,0.038C182.857,78.054,182.816,78.174,182.758,78.288z"/>
	<path fill="#FAFCFD" d="M45.104,36.439c-1.366,2.19-2.008,4.845-4.186,6.513C41.162,40.04,42.555,37.868,45.104,36.439z"/>
	<path fill="#ECF6FC" d="M25.128,78.332c0.333,0.532,0.873,0.416,1.369,0.438c-0.727,6.954,3.09,15.682,9.691,19.232
		c3.286,1.768,6.517,3.735,9.764,5.625c4.767,2.774,9.309,6.002,14.205,8.454c6.761,3.386,14.052,6.191,21.715,3.295
		c3.368-1.273,6.826-2.495,10.048-4.323c6.593-3.74,13.399-6.883,21.056-8.271c5.075-0.92,10.229-1.874,15.166-3.804
		c9.086-3.552,17.991-7.539,27.136-10.963c6.326-2.368,12.276-5.823,16.357-11.609c0.708-1.003,1.258-1.052,1.856,0.036
		c-2.272,3.394-4.685,6.797-8.421,8.589c-4.222,2.026-8.251,4.412-12.764,5.955c-4.301,1.47-8.534,3.339-12.731,5.192
		c-3.989,1.761-8.1,3.431-12.225,4.943c-3.149,1.154-6.466,2.147-9.782,2.479c-6.239,0.625-12.007,2.736-17.709,5.009
		c-2.553,1.017-5.304,2.005-7.257,4.208c-0.776,0.876-1.995,0.729-2.96,1.201c-2.879,1.408-5.693,3.192-8.822,3.747
		c-2.718,0.482-5.578,0.875-8.399,0.421c-7.248-1.166-13.562-4.358-19.547-8.537c-3.753-2.621-7.825-4.883-11.992-6.786
		c-4.319-1.973-8.207-4.549-11.25-8.008c-3.865-4.393-6.089-9.65-4.966-15.776C24.717,78.813,24.97,78.582,25.128,78.332z"/>
	<path fill="#E0F1FA" d="M66.037,22.949c-0.31-0.31-0.62-0.62-0.93-0.93c1.508-1.146,2.949-0.355,4.377,0.18
		c5.445,2.042,11.045,3.562,16.87,3.466c3.896-0.064,7.782-0.917,11.611-1.712c9.428-1.958,18.405-0.979,26.909,3.657
		c0.484,0.264,0.999,0.409,1.529,0.518c2.845,1.015,5.221,2.929,8.055,4.035c6.064,2.365,12.432,2.959,18.785,3.654
		c10.24,1.12,18.813,5.225,25.017,13.657c1.298,1.764,2.718,3.57,2.211,6.036c-2.224-0.238-2.44-2.364-3.251-3.744
		c-3.443-5.859-8.413-9.84-14.728-11.998c-5.705-1.949-11.629-2.745-17.694-3.217c-3.885-0.303-7.922-1.555-11.643-3.283
		c-5.422-2.517-10.749-5.281-16.408-7.233c-4.687-1.617-9.574-0.794-14.4-0.721c-6.148,0.093-12.02,2.365-18.27,1.905
		c-4.895-0.36-9.566-1.279-14.031-3.232C68.741,23.415,67.335,23.435,66.037,22.949z"/>
	<path fill="#DCF0FA" d="M180.471,55.508c-2.11-6.95-7.196-11.248-13.114-14.86c-5.72-3.491-12.199-3.826-18.566-4.681
		c-6.999-0.94-13.992-1.906-19.951-6.2c-0.719-0.518-1.944-0.088-2.331-1.237c-0.259-0.258-0.754-0.398-0.465-0.93
		c0.963-0.077,1.691,0.334,2.536,0.822c5.582,3.22,11.504,5.293,18.041,5.751c6.971,0.488,13.941,1.258,20.399,4.353
		c4.979,2.387,8.916,5.946,12.015,10.45c1.386,2.014,2.84,4.03,3.296,6.529C181.712,55.507,181.091,55.508,180.471,55.508z"/>
	<path fill="#ECF6FC" d="M140.001,37.834c-5.563-0.883-10.784-2.636-15.351-6.047c2.68,0.397,4.916,1.95,7.386,2.894
		c2.293,0.876,4.573,1.725,6.965,2.272C139.484,37.064,139.794,37.396,140.001,37.834z"/>
	<path fill="#ECF6FC" d="M124.185,31.787c-1.156-0.014-2.168-0.317-2.792-1.395C122.392,30.72,123.589,30.652,124.185,31.787z"/>
	<path fill="#DDEFFA" d="M126.045,27.601c0.155,0.31,0.31,0.62,0.465,0.93c-4.349-1.486-8.505-3.519-13.1-4.31
		c-4.363-0.752-8.767-0.989-13.058-0.152c-6.143,1.199-12.271,2.685-18.531,1.966c-4.163-0.479-8.35-1.402-12.245-3.104
		c-1.471-0.643-2.9-0.995-4.469-0.912c-3.785-1.824-7.815-1.859-11.893-1.713c-5.067,0.182-9.311,2.49-13.391,5.138
		c-1.882,1.222-3.218,3.165-4.351,5.031c-3.49,5.753-5.634,12.009-6.215,18.769c-0.137,1.599-0.618,3.166-0.866,4.76
		c-0.137,0.883-0.474,1.457-1.429,1.506c0.553-7.614,1.625-15.202,4.839-22.138c2.312-4.989,5.985-8.966,11.101-11.804
		c7.43-4.122,14.896-3.517,22.48-1.462c5.858,1.587,11.519,3.813,17.546,4.921c3.323,0.611,6.269-0.42,9.344-0.871
		c4.311-0.632,8.555-1.962,12.916-2.006c6.701-0.066,13.297,0.754,19.263,4.233C125.036,26.725,125.177,27.638,126.045,27.601z"/>
	<path fill="#07080A" d="M166.049,56.748c0.86-0.083,1.411,0.891,2.31,0.673c1.954,2.539,1.959,3.141,0.034,4.608
		c-1.24,0.868-1.969-0.104-2.723-0.804c-0.945-0.877-1.52-2.098-2.594-2.86c-0.771-0.581-1.54-0.371-2.309,0.011
		c-2.691,1.11-3.705,3.292-3.867,6.022c-0.134,2.259,0.125,4.421,1.208,6.477c1.367,2.594,3.244,4.247,6.363,4.043
		c0.842-0.055,1.678,0.177,2.525,0.167c0.713-0.13,1.233-0.591,1.715-1.071c0.622-0.621,1.152-0.673,1.661,0.102
		c-0.274,1.365-1.765,1.506-2.462,2.446c-1.005,0.289-1.678,1.272-2.792,1.334c-1.84,0.825-3.733,1.181-5.728,0.659
		c-0.09-0.099-0.179-0.199-0.268-0.299c-3.264-1.924-6.092-4.189-6.515-8.334c0.304-1.238,0.333-2.474-0.02-3.708
		c0.703-5.22,3.275-8.784,8.702-9.817c1.129-0.256,2.256-0.333,3.378,0.04C165.127,56.541,165.588,56.644,166.049,56.748z"/>
	<path fill="#FEFEFE" d="M163.258,57.821c0.859,0.62,1.492,1.408,2.087,2.301c0.685,1.028,1.474,2.174,3.048,1.907
		c0.437,0.112,1.271-0.246,1.004,0.744c-0.979,3.632-0.582,7.673-3.383,10.774c-1.023,1.133,0.897,0.854,0.982,1.537
		c-5.683,1.704-9.782-1.338-10.771-7.875c-0.555-3.671,0.807-8.691,4.709-9.42C161.713,57.531,162.488,57.482,163.258,57.821z"/>
	<path fill="#FBFCFE" d="M110.694,98.307c-0.155,0-0.31,0-0.465,0.001c-3.109,0.415-5.72,2.405-8.838,2.79
		c-1.572,1.07-3.757,0.79-5.117,2.326c-1.205,0.691-2.646,0.91-3.721,1.861c-0.155,0.155-0.31,0.31-0.465,0.465
		c-0.899,0.528-2.038,0.576-2.791,1.396c-2.007,0.797-3.964,1.727-6.047,2.326c-4.111,1.453-8.256,1.715-12.61,1.065
		c-4.495-0.67-8.472-2.525-12.478-4.404c-0.882-0.413-1.593-1.188-2.386-1.792c-3.373-2.565-7.168-4.452-10.924-6.312
		c-4.267-2.113-7.72-5.13-10.673-8.677c-2.123-2.55-2.191-5.988-2.551-9.192c-0.086-0.764-0.013-1.546-0.013-2.32
		c1.161-0.634,1.8-0.588,1.886,1.028c0.327,6.089,3.167,10.9,8.187,14.184c8.783,5.746,17.695,11.342,27.536,15.136
		c4.063,1.566,8.271,1.102,12.424-0.439c8.355-3.1,15.913-8.139,24.731-10.094c4.118-0.913,8.135-2.185,12.301-2.989
		c5.014-0.968,9.694-3.198,14.412-5.218c5.506-2.358,11.166-4.362,16.789-6.439c2.205-0.814,4.058-2.224,6.109-3.293
		c1.026-0.535,1.971-1.22,3.132-1.46l-0.016-0.017c0.167,0.282,0.545,0.374,0.649,0.714c-0.354,2.246-2.612,2.374-3.939,3.538v0
		c-1.894,1.195-4.151,1.602-6.047,2.791c-0.718,0.442-1.509,0.516-2.326,0.465c-1.566,1.082-3.543,1.261-5.117,2.326v0
		c-1.749,1.043-3.93,1.051-5.582,2.326c-4.158,1.165-7.926,3.333-12.023,4.669c-1.102,0.36-2.304,0.312-3.328,0.913
		c-0.465,0.155-0.93,0.31-1.396,0.465c-1.263,0.906-2.874,0.246-4.187,0.93c-0.62,0.155-1.24,0.31-1.861,0.465
		C112.81,97.612,111.715,97.701,110.694,98.307z"/>
	<path fill="#060709" d="M91.151,97.915c3.22-1.095,4.825-3.703,6.123-6.579c2.776-6.149,4.369-12.7,6.429-19.091
		c1.445-4.483,2.837-8.984,4.253-13.477c0.004-1.052-0.81-0.636-1.311-0.694c-1.42-0.163-2.876,0.255-4.279-0.247
		c-0.142-0.392-0.143-0.749,0.254-1.005c1.414-0.298,2.846-0.074,4.268-0.14c0.729-0.034,1.551,0.175,1.914-0.767
		c1.32-4.76,3.372-9.067,7.154-12.448c3.3-2.95,9.297-2.008,11.314,0.457c0.583,0.713,2.115,1.691,0.81,2.797
		c-1.237,1.048-2.575,0.577-3.443-0.858c-0.354-0.586-0.654-1.217-1.081-1.744c-1.315-1.621-4.143-1.552-5.527,0.033
		c-2.851,3.262-3.747,7.373-5.017,11.328c-0.334,1.038,0.202,1.108,1.034,1.166c1.198,0.084,2.444-0.391,3.596,0.271
		c-1.175,0.891-2.539,0.227-3.642,0.462c1.075,0.215,2.41-0.442,3.552,0.454c-0.216,0.445-0.629,0.346-1,0.361
		c-4.405,0.173-4.396,0.175-5.711,4.442c-2.369,7.687-4.703,15.385-7.148,23.047c-1.037,3.249-2.429,6.369-4.584,9.07
		c-3.21,4.022-9.168,5.816-13.214,4.029c-0.86-0.38-1.636-0.848-2.236-1.589c-0.897-1.108-1.435-2.406-0.406-3.551
		c0.938-1.044,2.189-0.63,3.248,0.14c0.57,0.986-0.069,2.125,0.395,3.125c0.277,0.651,0.824,0.89,1.476,0.971
		C89.293,98.215,90.22,98.161,91.151,97.915z"/>
	<path fill="#060709" d="M123.178,77.869c-4.291-0.542-7.948-4.264-8.261-8.41c0.141-1.7,0.083-3.401,0.029-5.102
		c1.411-4.571,4.863-7.609,9.071-7.984c1.055-0.255,2.111-0.226,3.167-0.01c4.542,0.676,7.892,3.962,8.618,8.454
		c0.062,1.548-0.124,3.095-0.036,4.643c-1.035,4.523-4.358,7.631-9.026,8.443C125.551,78.134,124.363,78.196,123.178,77.869z"/>
	<path fill="#7F7A7A" d="M55.802,76.074c1.64-0.087,2.402-0.739,2.374-2.591c-0.113-7.434-0.033-14.87-0.079-22.305
		c-0.027-4.295-0.074-4.295-4.226-5.994c2.697-1.161,4.995-2.29,7.227-3.519c0.989-0.545,0.865,0.716,0.864,1.334
		c-0.006,3.33-0.062,6.66-0.072,9.99c-0.021,6.661,0.033,13.323-0.067,19.982c-0.032,2.164,0.612,3.234,2.923,2.958
		c0.681-0.081,1.722-0.334,1.7,0.921c-0.022,1.249-1.041,0.903-1.739,0.886c-2.976-0.073-5.951-0.197-8.926-0.303
		C55.528,76.977,55.447,76.522,55.802,76.074z"/>
	<path fill="#807B7A" d="M78.684,56.411c2.762,0.857,4.873,2.31,5.061,5.525c0.357,0.929,0.373,1.744-0.923,1.681
		c-1.023-0.049-2.142,0.428-3.059-0.418c-0.551-1.685-0.684-3.578-2.309-4.74c-0.769-0.689-1.591-0.605-2.437-0.156
		c-1.62,1.147-3.539,2.089-3.047,4.618c0.848,0.549,1.793,0.327,2.681,0.303c3.187-0.089,6.33,0.382,9.489,0.649
		c-0.594,0.75-1.431,0.427-2.161,0.437c-2.708,0.04-5.417,0.016-8.126,0.016c-3.532,0-3.578,0.005-3.208,3.627
		c0.321,3.14,1.715,5.729,4.796,6.82c2.955,1.046,5.643,0.274,7.728-2.189c0.386-0.456,0.734-1.215,1.451-0.676
		c0.698,0.526,0.056,1.126-0.216,1.622c-3.358,6.127-12.343,6.326-15.979,0.365c-2.863-4.694-2.251-11.438,1.404-15.084
		c1.46-1.457,3.134-2.521,5.318-2.425C76.327,56.135,77.507,56.093,78.684,56.411z"/>
	<path fill="#807B7A" d="M55.802,76.074c-0.007,0.453-0.014,0.906-0.02,1.359c-0.451,0.038-0.091-1.188-1.092-0.536
		c-2.96,1.928-3.75,1.801-5.964-0.693c-0.595-0.67-0.938-0.608-1.671-0.184c-1.211,0.701-2.309,1.71-3.814,1.813
		c-1.236-0.055-2.473,0.001-3.709-0.025c-1.057-0.414-1.838-1.049-1.846-2.304c0.016-1.081,0.059-2.163-0.016-3.244
		c0.377-3.238,3.454-3.315,5.461-4.634c0.497-0.327,1.149-0.407,1.697-0.669c3.137-1.501,3.971-3.409,2.968-6.721
		c-0.498-1.646-2.335-2.629-4.329-2.226c-0.96,0.194-1.92,0.487-2.634,1.246c-0.452,1.164,0.191,2.445-0.383,3.596
		c-0.281,0.198-0.561,0.395-0.842,0.593c-0.602,0.36-1.267,0.454-1.953,0.452c-0.303-0.173-0.606-0.345-0.91-0.518
		c-0.411-1.398,0.796-2.381,0.932-3.638c2.23-1.52,4.429-3.108,7.248-3.358c0.881-0.244,1.762-0.273,2.641,0.01
		c2.823,0.445,3.847,1.53,4.011,4.249c-0.241,4.451-0.499,8.902,0.128,13.344c0.612,1.06,1.169,1.923,2.63,0.902
		C55.711,73.928,55.303,75.671,55.802,76.074z"/>
	<path fill="#807A7A" d="M93.348,78.23c-4.664,0.046-6.665-1.994-6.704-6.375c-0.004-0.403-0.05-0.781,0.404-0.96
		c0.527-0.207,0.9,0.023,1.153,0.474c0.606,1.08,1.149,2.2,1.806,3.247c1.224,1.951,3.081,2.22,5.103,1.646
		c1.361-0.386,2.282-1.352,2.454-2.808c0.166-1.411-0.36-2.585-1.541-3.422c-1.356-0.961-2.981-1.263-4.498-1.831
		c-3.527-1.32-4.973-3.388-4.654-6.59c0.274-2.748,2.538-4.853,5.842-5.433c1.904-0.334,3.713,0.075,5.435,0.824
		c1.982,0.862,1.673,2.85,1.775,4.438c0.062,0.971-0.909,0.845-1.467,0.201c-0.658-0.759-1.213-1.607-1.844-2.391
		c-1.235-1.534-2.874-1.784-4.618-1.206c-1.431,0.474-2.327,1.484-2.303,3.124c0.029,1.979,1.327,2.852,2.955,3.422
		c1.168,0.409,2.382,0.692,3.53,1.146c3.202,1.267,4.541,3.308,4.279,6.382c-0.246,2.894-2.149,5-5.238,5.759
		C94.467,78.06,93.699,78.165,93.348,78.23z"/>
	<path fill="#060709" d="M144.407,59.896c1.122-1.093,2.01-2.064,3.011-2.903c0.902-0.757,1.984-1.173,3.212-1.138
		c1.011,0.029,1.858,0.346,2.259,1.316c0.384,0.928,0.217,1.841-0.477,2.588c-0.702,0.755-1.498,0.863-2.523,0.533
		c-3.411-1.096-5.376,0.318-5.44,3.894c-0.056,3.097,0.048,6.198-0.036,9.293c-0.048,1.766,0.533,2.615,2.408,2.44
		c0.64-0.06,1.681-0.452,1.676,0.886c-0.005,1.322-0.982,0.929-1.671,0.889c-2.787-0.162-5.571-0.169-8.355,0.039
		c-0.762,0.057-1.391,0.04-1.366-1.014c0.024-1.001,0.73-0.894,1.302-0.814c1.919,0.269,2.397-0.625,2.338-2.398
		c-0.107-3.248,0.036-6.503-0.04-9.753c-0.038-1.636-0.205-3.26-2.384-3.691c-1.056-0.209-0.952-0.875,0-1.321
		c0.7-0.328,1.417-0.622,2.104-0.975C143.881,55.989,143.878,55.984,144.407,59.896z"/>
	<path fill="#7C7676" d="M84.139,63.874c-3.937,0.002-7.874,0.029-11.81-0.03c-0.399-0.006-1.931,0.664-1.039-0.959
		c2.827-1.164,5.758-0.548,8.655-0.509c0.339,1.632,1.643,0.909,2.573,1.019c1.061,0.126,1.214-0.636,1.225-1.459
		C84.48,62.459,84.75,63.077,84.139,63.874z"/>
	<path fill="#7B7776" d="M51.706,73.987c-0.363,0.281-0.55,0.124-0.55-0.267c-0.001-4.092,0.002-8.185,0.034-12.277
		c0.002-0.268,0.253-0.534,0.388-0.801C51.62,65.09,51.663,69.538,51.706,73.987z"/>
	<path d="M117.551,57.832c-1.679,0-3.358,0-5.037,0c1.592-1.287,3.414-0.712,5.126-0.916
		C118.167,57.276,117.715,57.54,117.551,57.832z"/>
	<path fill="#000100" d="M135.767,69.46c-0.639-1.553-0.691-3.101,0.036-4.643C136.395,66.369,136.354,67.917,135.767,69.46z"/>
	<path fill="#000100" d="M114.946,64.357c0.627,1.704,0.67,3.405-0.029,5.102C114.458,67.756,114.554,66.055,114.946,64.357z"/>
	<path fill="#292929" d="M108.802,55.915c0.024,0.999-0.675,1.062-1.394,1.047c-1.596-0.033-3.192-0.091-4.788-0.139
		c1.338-0.533,2.733-0.161,4.098-0.251C107.477,56.522,108.285,56.701,108.802,55.915z"/>
	<path fill="#292929" d="M102.366,57.827c1.595-0.009,3.19-0.043,4.784-0.012c0.536,0.01,1.406-0.093,0.806,0.953
		c-0.897-1.018-2.087-0.304-3.117-0.532C104.021,58.055,103.072,58.675,102.366,57.827z"/>
	<path fill="#797474" d="M39.532,77.808c1.241-0.664,2.478-0.693,3.709,0.025C42.002,78.353,40.765,78.343,39.532,77.808z"/>
	<path fill="#787373" d="M37.67,72.26c0.723,1.078,0.704,2.159,0.016,3.244C37.181,74.425,37.148,73.344,37.67,72.26z"/>
	<path fill="#84807F" d="M40.45,62.853c0.174-1.194-0.394-2.467,0.383-3.596C40.607,60.445,41.346,61.736,40.45,62.853z"/>
	<path fill="#000201" d="M152.587,66.214c0.686,1.232,0.661,2.468,0.02,3.708C152.312,68.687,152.292,67.452,152.587,66.214z"/>
	<path fill="#0B0C0D" d="M86.895,96.906c-0.756-0.963-0.235-2.087-0.395-3.125C87.557,94.706,86.761,95.865,86.895,96.906z"/>
	<path fill="#767171" d="M37.655,63.898c0.522-0.709,1.275-0.415,1.953-0.452C39.139,64.384,38.444,64.346,37.655,63.898z"/>
	<path fill="#171818" d="M164.666,56.437c-1.126-0.013-2.252-0.027-3.378-0.04C162.42,55.961,163.548,55.784,164.666,56.437z"/>
	<path fill="#817C7C" d="M78.684,56.411c-1.178-0.008-2.356-0.015-3.536-0.023C76.329,55.899,77.508,55.873,78.684,56.411z"/>
	<path fill="#121212" d="M123.178,77.869c1.187,0.011,2.374,0.022,3.562,0.033C125.548,78.426,124.361,78.392,123.178,77.869z"/>
	<path fill="#0D0D0D" d="M91.151,97.915c-0.935,0.603-1.863,0.637-2.78-0.039C89.297,97.89,90.224,97.903,91.151,97.915z"/>
	<path fill="#1C1C1C" d="M127.185,56.363c-1.056,0.003-2.111,0.007-3.167,0.01C125.072,55.9,126.127,55.879,127.185,56.363z"/>
	<path fill="#84807F" d="M47.566,56.393c-0.88-0.003-1.759-0.006-2.64-0.01C45.807,55.931,46.688,55.946,47.566,56.393z"/>
	<path fill="#FAFCFE" d="M121.393,95.981c1.45-1.054,3.105-1.522,4.839-1.924c2.611-0.605,4.977-1.913,7.384-3.059
		c1.02-0.486,2.035-0.661,3.128-0.599c-2.592,1.205-5.086,2.779-7.806,3.507C126.421,94.579,124.301,96.803,121.393,95.981z"/>
	<path fill="#FAFCFE" d="M101.391,101.098c3.003-0.749,5.374-3.501,8.838-2.79C107.509,99.955,104.599,100.999,101.391,101.098z"/>
	<path fill="#FAFCFE" d="M155.816,82.491c0.882-1.599,3.093-1.869,3.721-3.722c0.931-0.354,1.861-0.355,2.792,0
		C160.312,80.28,158.473,82.101,155.816,82.491z"/>
	<path fill="#FAFCFE" d="M83.249,109.472c1.743-1.484,3.869-1.973,6.047-2.326C87.506,108.509,85.645,109.686,83.249,109.472z"/>
	<path fill="#FAFCFE" d="M149.769,85.282c1.676-1.666,3.802-2.359,6.047-2.791C154.273,84.447,151.921,84.648,149.769,85.282z"/>
	<path fill="#FAFCFE" d="M142.326,88.074c1.129-2.044,3.373-1.636,5.117-2.326C146.062,87.237,144.368,88.038,142.326,88.074z"/>
	<path fill="#FAFCFE" d="M136.744,90.399c1.397-1.888,3.589-1.868,5.582-2.326C140.819,89.698,138.64,89.71,136.744,90.399z"/>
	<path fill="#FAFCFE" d="M96.274,103.424c1.111-2.083,3.328-1.733,5.117-2.326C100.049,102.674,97.897,102.468,96.274,103.424z"/>
	<path fill="#FAFCFE" d="M92.552,105.285c0.853-1.395,2.144-1.914,3.721-1.861C95.419,104.815,93.88,104.839,92.552,105.285z"/>
	<path fill="#FEFEFE" d="M162.329,78.77c-0.931,0-1.861,0-2.792,0c-0.144-0.177-0.287-0.354-0.431-0.531
		c1.999-0.2,4.036,0.267,6.012-0.344C164.6,79.497,163.254,78.463,162.329,78.77z"/>
	<path fill="#FAFCFE" d="M115.811,97.377c1.208-1.152,2.748-0.815,4.187-0.93C118.908,98.134,117.209,97.077,115.811,97.377z"/>
	<path fill="#FAFCFE" d="M110.694,98.307c0.918-1.329,2.041-1.222,3.256-0.465C112.881,98.109,111.823,98.454,110.694,98.307z"/>
	<path fill="#FAFCFE" d="M89.296,107.145c0.559-1.209,1.564-1.523,2.791-1.396C91.492,106.886,90.295,106.817,89.296,107.145z"/>
	<path fill="#171818" d="M163.258,57.821c-0.775-0.011-1.549-0.021-2.324-0.032C161.718,57.156,162.493,57.141,163.258,57.821z"/>
	<path fill="#FEFEFE" d="M126.51,57.805c7.107,4.184,7.358,14.38,0.461,18.705c-1.086,0.225-2.171,0.294-3.25-0.037
		c-2.805-0.832-4.008-2.996-4.667-5.613c-0.46-0.813,0.001-1.775-0.421-2.594c0.217-0.754,0.21-1.508,0.004-2.263
		c0.403-0.819-0.007-1.759,0.384-2.58c0.685-2.616,1.832-4.847,4.699-5.647C124.652,57.532,125.583,57.486,126.51,57.805z"/>
	<path fill="#121212" d="M123.721,76.473c1.083,0.012,2.167,0.025,3.25,0.037C125.88,77.17,124.796,77.192,123.721,76.473z"/>
	<path fill="#1C1C1C" d="M126.51,57.805c-0.93-0.009-1.86-0.019-2.791-0.028C124.656,57.119,125.587,57.096,126.51,57.805z"/>
	<path fill="#07080A" d="M118.632,68.266c0.424,0.819,0.382,1.713,0.421,2.594C118.265,70.101,118.727,69.138,118.632,68.266z"/>
	<path fill="#07080A" d="M119.02,63.424c-0.012,0.876,0.014,1.759-0.384,2.579C118.717,65.137,118.286,64.194,119.02,63.424z"/>
	<path fill="#FBFBFB" d="M79.946,62.376c-2.836,0.998-5.784,0.109-8.655,0.509c-0.24-2.732,1.511-4.067,3.617-5.152
		c0.925-0.098,1.865-0.405,2.735,0.211C79.197,59.012,79.933,60.506,79.946,62.376z"/>
	<path fill="#7F7A79" d="M70.123,64.707c0,1.176,0,2.208,0,3.239C69.887,66.926,69.13,65.923,70.123,64.707z"/>
	<path fill="#817C7C" d="M77.642,57.944c-0.912-0.07-1.823-0.14-2.735-0.211C75.863,57.236,76.796,57.018,77.642,57.944z"/>
	<path fill="#FBFBFB" d="M41.358,71.8c0.547-2.003,2.095-2.954,3.855-3.699c0.754-0.319,1.487-0.689,2.229-1.036
		c0.859,0.09,0.919,0.77,0.881,1.37c-0.11,1.736,0.488,3.545-0.503,5.194c-0.776,0.83-1.598,1.635-2.691,1.998
		c-1.648,0.548-3.19,0.647-3.781-1.52C41.058,73.337,41.045,72.568,41.358,71.8z"/>
	<path fill="#848080" d="M47.822,73.629c-0.029-2.194,0.686-4.43-0.379-6.564c0.307-0.13,0.613-0.259,0.92-0.389
		c0.375,2.164,0.353,4.329,0.011,6.494C48.19,73.323,48.006,73.476,47.822,73.629z"/>
	<path fill="#7B7575" d="M48.375,73.171c-0.004-2.165-0.008-4.33-0.011-6.494C49.114,68.84,49.099,71.004,48.375,73.171z"/>
	<path fill="#797473" d="M48.449,64.723c0-1.025,0-2.049,0-3.074c0.076-0.002,0.152-0.005,0.228-0.007c0,1.024,0,2.048,0,3.072
		C48.601,64.718,48.525,64.72,48.449,64.723z"/>
	<path fill="#807B7B" d="M41.358,71.8c-0.003,0.769-0.005,1.538-0.008,2.308C40.708,73.336,40.702,72.567,41.358,71.8z"/>
	<path d="M143.849,74.894c0-4.117,0-8.234,0-12.351c0.073,0.001,0.146,0.002,0.219,0.003c0,4.145,0,8.29,0,12.434
		C143.995,74.951,143.922,74.923,143.849,74.894z"/>
</g>
</svg>
