<?xml version="1.0" encoding="utf-8"?>
<!-- Generator: Adobe Illustrator 17.0.0, SVG Export Plug-In . SVG Version: 6.00 Build 0)  -->
<!DOCTYPE svg PUBLIC "-//W3C//DTD SVG 1.1//EN" "http://www.w3.org/Graphics/SVG/1.1/DTD/svg11.dtd">
<svg version="1.1" id="Layer_1" xmlns="http://www.w3.org/2000/svg" xmlns:xlink="http://www.w3.org/1999/xlink" x="0px" y="0px"
	 width="33.024px" height="33.024px" viewBox="0 0 33.024 33.024" enable-background="new 0 0 33.024 33.024" xml:space="preserve">
<g>
	<g>
		<path fill="#6D6E70" d="M15.624,4.012c4.578,4.272,9.155,8.545,13.733,12.817c1.412,1.318,3.538-0.799,2.121-2.121
			c-4.578-4.272-9.155-8.545-13.733-12.817C16.333,0.573,14.207,2.69,15.624,4.012L15.624,4.012z"/>
	</g>
</g>
<polyline fill="none" stroke="#6D6E70" stroke-width="3" stroke-miterlimit="10" points="7.451,11.951 7.451,28.451 26.451,28.451 
	26.451,11.951 "/>
<g>
	<g>
		<path fill="#6D6E70" d="M15.624,1.891C11.047,6.163,6.47,10.436,1.892,14.708c-1.417,1.323,0.709,3.44,2.121,2.121
			c4.577-4.272,9.154-8.545,13.732-12.817C19.162,2.69,17.036,0.573,15.624,1.891L15.624,1.891z"/>
	</g>
</g>
</svg>
