<?xml version="1.0" encoding="utf-8"?>
<!-- Generator: Adobe Illustrator 17.0.0, SVG Export Plug-In . SVG Version: 6.00 Build 0)  -->
<!DOCTYPE svg PUBLIC "-//W3C//DTD SVG 1.1//EN" "http://www.w3.org/Graphics/SVG/1.1/DTD/svg11.dtd">
<svg version="1.1" xmlns="http://www.w3.org/2000/svg" xmlns:xlink="http://www.w3.org/1999/xlink" x="0px" y="0px" width="148px"
	 height="147.594px" viewBox="0 0 148 147.594" enable-background="new 0 0 148 147.594" xml:space="preserve">
<g id="salesFetch">
	<rect x="0.703" y="0" fill="#67C76E" width="147.594" height="147.594"/>
	<rect x="12.277" y="11.574" fill="#3F9645" width="124.446" height="124.446"/>
</g>
<g id="Layer_1_xA0_Image_1_">
	<g>
		<path fill="#FFFFFF" d="M130.934,67.052v7.245c-0.839,1.014-0.763,2.334-1.144,3.5c-3.615,10.89-13.27,17.388-25.174,16.9
			c-1.411-0.061-2.707-0.313-3.874,1.167c-5.567,7.024-12.309,9.06-20.942,6.467c-1.22-0.366-1.716-0.084-2.303,1.022
			c-2.898,5.46-7.42,8.869-13.46,10.242c-0.252,0.053-0.488,0.076-0.595,0.358h-8.389c-0.191-0.137-0.358-0.343-0.572-0.404
			c-6.208-1.8-10.692-5.651-13.46-11.462c-0.519-1.091-1.197-1.052-2.12-0.961c-9.174,0.892-17.212-4.377-20.133-13.148
			c-0.168-0.511-0.114-1.159-0.702-1.479v-8.77c0.572-0.252,0.519-0.847,0.648-1.296c1.174-4.057,3.516-7.314,6.886-9.784
			c1.174-0.854,1.335-1.601,0.915-2.997c-4.019-13.392,3.92-26.173,17.67-28.606c0.343-0.061,0.793,0.099,0.953-0.404h4.576
			c0.084,0.29,0.313,0.343,0.572,0.381c5.575,0.778,10.234,3.272,13.872,7.558c0.801,0.946,1.235,0.473,1.792-0.092
			c7.085-7.169,22.314-7.611,29.727,3.745c0.725,1.106,1.373,1.258,2.639,0.831c12.255-4.149,24.907,1.342,30.429,13.033
			C129.798,62.339,130.179,64.741,130.934,67.052z"/>
		<g>
			<defs>
				<path id="SVGID_1_" d="M130.934,67.052v7.245c-0.839,1.014-0.763,2.334-1.144,3.5c-3.615,10.89-13.27,17.388-25.174,16.9
					c-1.411-0.061-2.707-0.313-3.874,1.167c-5.567,7.024-12.309,9.06-20.942,6.467c-1.22-0.366-1.716-0.084-2.303,1.022
					c-2.898,5.46-7.42,8.869-13.46,10.242c-0.252,0.053-0.488,0.076-0.595,0.358h-8.389c-0.191-0.137-0.358-0.343-0.572-0.404
					c-6.208-1.8-10.692-5.651-13.46-11.462c-0.519-1.091-1.197-1.052-2.12-0.961c-9.174,0.892-17.212-4.377-20.133-13.148
					c-0.168-0.511-0.114-1.159-0.702-1.479v-8.77c0.572-0.252,0.519-0.847,0.648-1.296c1.174-4.057,3.516-7.314,6.886-9.784
					c1.174-0.854,1.335-1.601,0.915-2.997c-4.019-13.392,3.92-26.173,17.67-28.606c0.343-0.061,0.793,0.099,0.953-0.404h4.576
					c0.084,0.29,0.313,0.343,0.572,0.381c5.575,0.778,10.234,3.272,13.872,7.558c0.801,0.946,1.235,0.473,1.792-0.092
					c7.085-7.169,22.314-7.611,29.727,3.745c0.725,1.106,1.373,1.258,2.639,0.831c12.255-4.149,24.907,1.342,30.429,13.033
					C129.798,62.339,130.179,64.741,130.934,67.052z"/>
			</defs>
			<clipPath id="SVGID_2_">
				<use xlink:href="#SVGID_1_"  overflow="visible"/>
			</clipPath>
			<path clip-path="url(#SVGID_2_)" fill="#3F9645" d="M65.264,114.242L65.264,114.242c2.366-4.194,4.723-8.392,7.113-12.572
				c0.231-0.404,0.617-0.882,1.024-0.997c3.004-0.848,4.455-3.225,5.88-5.695c1.486-2.576,2.953-5.178,4.641-7.622
				c2.806-4.063,2.378-8.121,0.179-12.151c-2.28-4.178-5.844-6.401-10.697-6.368c-2.481,0.017-4.963,0.003-7.444,0.003
				c-2.695,0-5.39,0-8.036,0c-0.399-4.529-0.287-4.657,3.733-4.657c12.489-0.001,24.978,0.002,37.467-0.006
				c0.852-0.001,1.705-0.079,2.557-0.121c-0.563-0.761-1.186-1.055-1.842-1.193c-12.12-2.566-24.245-5.111-36.367-7.666
				c-6.984-1.472-15.344,4.131-17.004,11.733c1.483-1.418,2.74-2.62,4.376-4.183c0,2.432-0.001,4.311,0,6.189
				c0.004,4.934,1.795,6.748,6.679,6.754c4.714,0.006,9.43-0.069,14.143,0.027c4.047,0.082,6.409,2.774,5.964,6.556
				c-0.413,3.511-3.476,5.572-7.281,4.768c-1.329-0.281-2.59-0.891-4.315-1.505c2.567,5.857,0.546,10.659-2.317,15.419
				c-2.611,4.34-4.941,8.85-7.391,13.287h-2.98c3.195-5.914,6.488-11.778,9.553-17.759c3.207-6.257,0.726-13.617-5.607-17.269
				c-5.933-3.422-12.43-1.811-16.474,4.082c-0.64,0.932-1.294,1.855-1.941,2.781l-0.093,24.706c0,1.961,1.59,3.552,3.552,3.552"/>
		</g>
	</g>
</g>
</svg>
