<?xml version="1.0" encoding="utf-8"?>
<!-- Generator: Adobe Illustrator 17.0.0, SVG Export Plug-In . SVG Version: 6.00 Build 0)  -->
<!DOCTYPE svg PUBLIC "-//W3C//DTD SVG 1.1//EN" "http://www.w3.org/Graphics/SVG/1.1/DTD/svg11.dtd">
<svg version="1.1" xmlns="http://www.w3.org/2000/svg" xmlns:xlink="http://www.w3.org/1999/xlink" x="0px" y="0px"
	 width="149.213px" height="196.239px" viewBox="0 0 149.213 196.239" enable-background="new 0 0 149.213 196.239"
	 xml:space="preserve">
<g id="salesFetch">
	<rect x="0.703" y="0" fill="#3F9645" width="148.51" height="196.239"/>
	<text transform="matrix(1 0 0 1 3.0005 183.0771)" fill="#FFFFFF" font-family="'PTSans-Regular'" font-size="32.2313">salesFetch</text>
</g>
<g id="Layer_1_xA0_Image_1_">
	<g>
		<g>
			<defs>
				<rect id="SVGID_4_" x="0.5" y="0" width="148" height="147.594"/>
			</defs>
			<clipPath id="SVGID_1_">
				<use xlink:href="#SVGID_4_"  overflow="visible"/>
			</clipPath>
			<rect x="1.203" y="0" clip-path="url(#SVGID_1_)" fill="#53B35A" width="147.297" height="147.594"/>
			<rect x="12.777" y="11.574" clip-path="url(#SVGID_1_)" fill="#3F9645" width="124.446" height="124.446"/>
			<g clip-path="url(#SVGID_1_)">
				<defs>
					<rect id="SVGID_6_" x="0.5" y="0" width="148" height="147.594"/>
				</defs>
				<clipPath id="SVGID_2_">
					<use xlink:href="#SVGID_6_"  overflow="visible"/>
				</clipPath>
				<path clip-path="url(#SVGID_2_)" fill="#FFFFFF" d="M131.434,67.052v7.245c-0.839,1.014-0.763,2.334-1.144,3.5
					c-3.615,10.891-13.27,17.388-25.174,16.9c-1.411-0.061-2.708-0.312-3.874,1.167c-5.568,7.024-12.309,9.06-20.942,6.467
					c-1.22-0.366-1.716-0.084-2.303,1.022c-2.898,5.46-7.42,8.869-13.46,10.242c-0.252,0.053-0.489,0.076-0.595,0.358h-8.389
					c-0.191-0.137-0.359-0.343-0.572-0.404c-6.208-1.8-10.692-5.651-13.461-11.462c-0.518-1.091-1.197-1.052-2.12-0.961
					c-9.174,0.892-17.212-4.377-20.133-13.148c-0.168-0.511-0.114-1.159-0.702-1.479v-8.77c0.572-0.252,0.519-0.847,0.649-1.297
					c1.174-4.057,3.515-7.313,6.886-9.784c1.175-0.854,1.335-1.602,0.915-2.997c-4.019-13.392,3.92-26.174,17.67-28.606
					c0.344-0.061,0.794,0.099,0.954-0.405h4.575c0.084,0.29,0.313,0.344,0.572,0.382c5.575,0.778,10.235,3.271,13.873,7.557
					c0.8,0.946,1.235,0.473,1.792-0.091c7.084-7.169,22.314-7.611,29.727,3.744c0.724,1.106,1.373,1.259,2.639,0.832
					c12.255-4.149,24.907,1.342,30.428,13.033C130.298,62.339,130.679,64.741,131.434,67.052"/>
			</g>
			<g clip-path="url(#SVGID_1_)">
				<defs>
					<path id="SVGID_5_" d="M45.639,34.64c-0.161,0.504-0.611,0.344-0.953,0.405c-13.751,2.432-21.69,15.214-17.67,28.606
						c0.419,1.396,0.259,2.143-0.916,2.997c-3.37,2.471-5.712,5.728-6.886,9.785c-0.13,0.45-0.076,1.045-0.648,1.296v8.77
						c0.586,0.321,0.533,0.969,0.702,1.48c2.92,8.769,10.958,14.04,20.133,13.147c0.922-0.091,1.601-0.13,2.12,0.961
						c2.769,5.812,7.252,9.663,13.461,11.463c0.213,0.061,0.38,0.266,0.571,0.404h8.389c0.107-0.283,0.343-0.305,0.595-0.358
						c6.04-1.374,10.562-4.782,13.46-10.242c0.587-1.106,1.083-1.389,2.303-1.023c8.633,2.593,15.375,0.557,20.942-6.467
						c1.167-1.479,2.463-1.228,3.874-1.167c11.904,0.488,21.56-6.009,25.174-16.9c0.381-1.166,0.305-2.486,1.145-3.5v-7.245
						c-0.755-2.31-1.137-4.713-2.189-6.955c-5.522-11.691-18.174-17.182-30.429-13.033c-1.266,0.427-1.914,0.274-2.639-0.832
						c-7.412-11.355-22.642-10.913-29.727-3.744c-0.557,0.565-0.992,1.037-1.792,0.091c-3.638-4.286-8.298-6.779-13.872-7.557
						c-0.26-0.038-0.488-0.092-0.572-0.382H45.639z"/>
				</defs>
				<clipPath id="SVGID_3_">
					<use xlink:href="#SVGID_5_"  overflow="visible"/>
				</clipPath>
				<path clip-path="url(#SVGID_3_)" fill="#3F9645" d="M65.764,114.242L65.764,114.242c2.366-4.194,4.723-8.392,7.113-12.572
					c0.231-0.404,0.617-0.883,1.023-0.998c3.004-0.848,4.456-3.225,5.881-5.695c1.486-2.576,2.953-5.177,4.641-7.621
					c2.805-4.063,2.377-8.122,0.179-12.151c-2.28-4.178-5.844-6.401-10.697-6.368c-2.482,0.017-4.963,0.003-7.444,0.003h-8.036
					c-0.399-4.529-0.287-4.657,3.733-4.657c12.489-0.001,24.978,0.002,37.467-0.006c0.852-0.001,1.705-0.079,2.557-0.121
					c-0.563-0.761-1.186-1.055-1.842-1.193c-12.12-2.566-24.245-5.111-36.367-7.666c-6.984-1.472-15.344,4.131-17.004,11.733
					c1.483-1.418,2.74-2.62,4.375-4.183c0,2.431-0.001,4.31,0.001,6.189c0.004,4.934,1.795,6.748,6.679,6.754
					c4.714,0.006,9.431-0.069,14.143,0.027c4.047,0.082,6.409,2.773,5.964,6.556c-0.413,3.51-3.476,5.572-7.281,4.768
					c-1.33-0.281-2.59-0.891-4.315-1.505c2.566,5.857,0.546,10.659-2.318,15.419c-2.611,4.34-4.941,8.85-7.39,13.287h-2.98
					c3.195-5.914,6.488-11.778,9.553-17.759c3.207-6.257,0.726-13.617-5.606-17.269c-5.934-3.422-12.43-1.811-16.475,4.082
					c-0.639,0.932-1.293,1.854-1.941,2.781l-0.092,24.706c0,1.961,1.59,3.552,3.552,3.552"/>
			</g>
		</g>
	</g>
</g>
</svg>
