<?xml version="1.0" encoding="utf-8"?>
<!-- Generator: Adobe Illustrator 17.0.0, SVG Export Plug-In . SVG Version: 6.00 Build 0)  -->
<!DOCTYPE svg PUBLIC "-//W3C//DTD SVG 1.1//EN" "http://www.w3.org/Graphics/SVG/1.1/DTD/svg11.dtd">
<svg version="1.1" xmlns="http://www.w3.org/2000/svg" xmlns:xlink="http://www.w3.org/1999/xlink" x="0px" y="0px" width="148px"
	 height="147.594px" viewBox="0 0 148 147.594" enable-background="new 0 0 148 147.594" xml:space="preserve">
<g id="salesFetch">
	<rect x="0.703" y="0" fill="#53B35A" width="147.594" height="147.594"/>
	<rect x="6.902" y="6.199" fill="#3F9645" width="135.195" height="135.195"/>
</g>
<g id="Layer_1_xA0_Image_1_">
	<g>
		<path fill="#FFFFFF" d="M135.825,66.424v7.873c-0.912,1.102-0.829,2.536-1.243,3.804c-3.928,11.834-14.42,18.895-27.356,18.364
			c-1.533-0.066-2.942-0.34-4.21,1.268c-6.05,7.632-13.376,9.845-22.757,7.028c-1.326-0.398-1.865-0.091-2.503,1.11
			c-3.149,5.934-8.063,9.638-14.627,11.13c-0.273,0.058-0.53,0.083-0.646,0.39h-9.116c-0.207-0.149-0.389-0.373-0.622-0.439
			c-6.746-1.956-11.619-6.141-14.627-12.456c-0.564-1.185-1.301-1.144-2.304-1.044c-9.969,0.97-18.704-4.757-21.878-14.287
			c-0.182-0.555-0.124-1.26-0.762-1.608v-9.53c0.622-0.273,0.564-0.92,0.704-1.409c1.276-4.409,3.82-7.947,7.483-10.632
			c1.276-0.928,1.45-1.74,0.994-3.257c-4.367-14.552,4.26-28.442,19.201-31.085c0.373-0.066,0.862,0.108,1.036-0.439h4.972
			c0.091,0.315,0.34,0.373,0.622,0.414c6.058,0.845,11.121,3.555,15.074,8.213c0.87,1.028,1.343,0.514,1.948-0.099
			c7.699-7.79,24.248-8.271,32.303,4.069c0.787,1.202,1.492,1.367,2.867,0.903c13.317-4.508,27.066,1.459,33.066,14.163
			C134.59,61.303,135.005,63.913,135.825,66.424z"/>
		<g>
			<defs>
				<path id="SVGID_1_" d="M135.825,66.424v7.873c-0.912,1.102-0.829,2.536-1.243,3.804c-3.928,11.834-14.42,18.895-27.356,18.364
					c-1.533-0.066-2.942-0.34-4.21,1.268c-6.05,7.632-13.376,9.845-22.757,7.028c-1.326-0.398-1.865-0.091-2.503,1.11
					c-3.149,5.934-8.063,9.638-14.627,11.13c-0.273,0.058-0.53,0.083-0.646,0.39h-9.116c-0.207-0.149-0.389-0.373-0.622-0.439
					c-6.746-1.956-11.619-6.141-14.627-12.456c-0.564-1.185-1.301-1.144-2.304-1.044c-9.969,0.97-18.704-4.757-21.878-14.287
					c-0.182-0.555-0.124-1.26-0.762-1.608v-9.53c0.622-0.273,0.564-0.92,0.704-1.409c1.276-4.409,3.82-7.947,7.483-10.632
					c1.276-0.928,1.45-1.74,0.994-3.257c-4.367-14.552,4.26-28.442,19.201-31.085c0.373-0.066,0.862,0.108,1.036-0.439h4.972
					c0.091,0.315,0.34,0.373,0.622,0.414c6.058,0.845,11.121,3.555,15.074,8.213c0.87,1.028,1.343,0.514,1.948-0.099
					c7.699-7.79,24.248-8.271,32.303,4.069c0.787,1.202,1.492,1.367,2.867,0.903c13.317-4.508,27.066,1.459,33.066,14.163
					C134.59,61.303,135.005,63.913,135.825,66.424z"/>
			</defs>
			<clipPath id="SVGID_2_">
				<use xlink:href="#SVGID_1_"  overflow="visible"/>
			</clipPath>
			<path clip-path="url(#SVGID_2_)" fill="#3F9645" d="M64.463,117.704L64.463,117.704c2.571-4.557,5.132-9.12,7.729-13.662
				c0.251-0.439,0.671-0.959,1.113-1.084c3.264-0.922,4.841-3.505,6.39-6.189c1.615-2.8,3.209-5.626,5.043-8.282
				c3.049-4.415,2.584-8.825,0.195-13.204c-2.478-4.54-6.35-6.956-11.624-6.92c-2.696,0.018-5.393,0.003-8.089,0.003
				c-2.929,0-5.857,0-8.732,0c-0.433-4.921-0.312-5.061,4.056-5.061c13.571-0.001,27.143,0.002,40.714-0.006
				c0.926-0.001,1.852-0.085,2.779-0.131c-0.612-0.827-1.289-1.146-2.002-1.297c-13.17-2.788-26.346-5.553-39.519-8.33
				c-7.589-1.599-16.674,4.489-18.478,12.749c1.611-1.54,2.978-2.847,4.755-4.546c0,2.642-0.002,4.684,0,6.726
				c0.004,5.362,1.951,7.333,7.258,7.339c5.123,0.006,10.248-0.075,15.368,0.029c4.398,0.089,6.965,3.014,6.481,7.125
				c-0.449,3.815-3.778,6.055-7.912,5.182c-1.445-0.305-2.814-0.969-4.689-1.636c2.789,6.365,0.594,11.583-2.518,16.755
				c-2.837,4.716-5.369,9.617-8.031,14.438h-3.238c3.472-6.427,7.05-12.799,10.381-19.298c3.485-6.799,0.789-14.797-6.092-18.766
				c-6.448-3.718-13.507-1.968-17.902,4.436c-0.695,1.013-1.406,2.015-2.109,3.022l-0.101,26.847c0,2.131,1.728,3.86,3.86,3.86"/>
		</g>
	</g>
</g>
</svg>
