<?xml version="1.0" encoding="utf-8"?>
<!-- Generator: Adobe Illustrator 17.0.0, SVG Export Plug-In . SVG Version: 6.00 Build 0)  -->
<!DOCTYPE svg PUBLIC "-//W3C//DTD SVG 1.1//EN" "http://www.w3.org/Graphics/SVG/1.1/DTD/svg11.dtd">
<svg version="1.1" xmlns="http://www.w3.org/2000/svg" xmlns:xlink="http://www.w3.org/1999/xlink" x="0px" y="0px"
	 width="149.213px" height="196.239px" viewBox="0 0 149.213 196.239" enable-background="new 0 0 149.213 196.239"
	 xml:space="preserve">
<g id="salesFetch">
	<rect x="0.703" y="0" fill="#3F9645" width="148.51" height="196.239"/>
	<g>
		<path fill="#FFFFFF" d="M12.573,178.693c0-0.645-0.193-1.148-0.58-1.515c-0.387-0.365-0.865-0.671-1.435-0.919
			c-0.569-0.246-1.192-0.483-1.869-0.709c-0.677-0.226-1.3-0.516-1.87-0.87s-1.047-0.811-1.434-1.369s-0.58-1.311-0.58-2.257
			c0-1.547,0.44-2.68,1.321-3.4c0.881-0.72,2.105-1.079,3.674-1.079c1.16,0,2.132,0.102,2.917,0.306
			c0.784,0.204,1.466,0.446,2.046,0.726l-0.612,2.127c-0.495-0.236-1.091-0.445-1.789-0.629c-0.699-0.182-1.445-0.273-2.24-0.273
			c-0.946,0-1.639,0.161-2.079,0.483s-0.661,0.881-0.661,1.676c0,0.56,0.193,0.994,0.58,1.306s0.865,0.591,1.435,0.838
			c0.569,0.247,1.192,0.489,1.869,0.726s1.3,0.548,1.87,0.935c0.569,0.387,1.047,0.876,1.434,1.466
			c0.387,0.592,0.58,1.37,0.58,2.337c0,0.688-0.113,1.333-0.338,1.935s-0.575,1.117-1.047,1.547
			c-0.473,0.43-1.059,0.769-1.756,1.016c-0.699,0.246-1.521,0.37-2.466,0.37c-1.225,0-2.267-0.118-3.126-0.354
			c-0.86-0.236-1.579-0.516-2.16-0.838l0.774-2.191c0.494,0.279,1.139,0.537,1.934,0.773s1.601,0.354,2.417,0.354
			c0.923,0,1.687-0.183,2.288-0.548S12.573,179.64,12.573,178.693z"/>
		<path fill="#FFFFFF" d="M18.793,168.154c0.816-0.494,1.767-0.859,2.852-1.096s2.219-0.354,3.4-0.354
			c1.117,0,2.015,0.15,2.691,0.451s1.192,0.692,1.547,1.176c0.354,0.483,0.59,1.016,0.709,1.596c0.118,0.58,0.177,1.16,0.177,1.74
			c0,1.289-0.032,2.547-0.097,3.771s-0.097,2.385-0.097,3.48c0,0.796,0.032,1.548,0.097,2.257s0.182,1.364,0.354,1.966h-1.902
			l-0.677-2.256h-0.161c-0.193,0.301-0.435,0.596-0.725,0.886s-0.64,0.548-1.047,0.773c-0.409,0.226-0.881,0.414-1.418,0.564
			s-1.149,0.226-1.837,0.226c-0.688,0-1.327-0.107-1.918-0.322c-0.591-0.215-1.101-0.521-1.531-0.919
			c-0.43-0.397-0.769-0.875-1.016-1.434s-0.371-1.193-0.371-1.902c0-0.945,0.193-1.734,0.581-2.369
			c0.387-0.633,0.929-1.138,1.627-1.515c0.698-0.375,1.536-0.645,2.514-0.806c0.978-0.161,2.057-0.241,3.239-0.241
			c0.3,0,0.596,0,0.886,0s0.585,0.021,0.886,0.064c0.064-0.645,0.097-1.226,0.097-1.741c0-1.181-0.237-2.009-0.709-2.481
			c-0.473-0.473-1.333-0.709-2.579-0.709c-0.366,0-0.757,0.027-1.176,0.083s-0.849,0.133-1.29,0.232s-0.859,0.221-1.257,0.364
			c-0.398,0.144-0.747,0.304-1.047,0.48L18.793,168.154z M23.37,181.079c0.601,0,1.139-0.081,1.611-0.242s0.881-0.365,1.225-0.612
			c0.343-0.247,0.628-0.521,0.854-0.822c0.226-0.3,0.392-0.59,0.5-0.87v-2.675c-0.301-0.021-0.607-0.037-0.918-0.049
			c-0.312-0.01-0.618-0.016-0.918-0.016c-0.667,0-1.317,0.038-1.95,0.112c-0.634,0.076-1.192,0.216-1.676,0.419
			c-0.484,0.205-0.871,0.484-1.161,0.839s-0.435,0.801-0.435,1.337c0,0.753,0.269,1.37,0.806,1.854S22.532,181.079,23.37,181.079z"
			/>
		<path fill="#FFFFFF" d="M37.906,179.112c0,0.753,0.129,1.29,0.387,1.612s0.623,0.483,1.096,0.483c0.279,0,0.58-0.021,0.902-0.064
			s0.688-0.14,1.096-0.29l0.291,2.03c-0.344,0.172-0.822,0.312-1.435,0.419s-1.144,0.161-1.595,0.161
			c-0.967,0-1.762-0.273-2.385-0.822c-0.624-0.548-0.935-1.477-0.935-2.787v-19.339h2.578V179.112z"/>
		<path fill="#FFFFFF" d="M56.213,181.788c-0.645,0.516-1.456,0.924-2.434,1.225c-0.978,0.301-2.014,0.451-3.11,0.451
			c-1.225,0-2.288-0.199-3.19-0.597c-0.903-0.396-1.644-0.967-2.224-1.708s-1.01-1.628-1.289-2.659
			c-0.28-1.031-0.419-2.191-0.419-3.48c0-2.75,0.613-4.846,1.837-6.285s2.976-2.159,5.253-2.159c0.73,0,1.461,0.08,2.192,0.241
			c0.73,0.161,1.386,0.468,1.966,0.919c0.58,0.451,1.052,1.091,1.418,1.917c0.365,0.828,0.548,1.918,0.548,3.271
			c0,0.71-0.064,1.494-0.193,2.354H46.221c0,0.945,0.097,1.783,0.29,2.514s0.494,1.349,0.903,1.854
			c0.408,0.505,0.939,0.892,1.595,1.16c0.655,0.27,1.456,0.403,2.401,0.403c0.73,0,1.461-0.129,2.191-0.387s1.278-0.559,1.644-0.902
			L56.213,181.788z M50.669,168.831c-1.268,0-2.283,0.333-3.045,0.999c-0.763,0.666-1.22,1.805-1.37,3.417h7.993
			c0-1.633-0.312-2.777-0.935-3.433C52.688,169.159,51.808,168.831,50.669,168.831z"/>
		<path fill="#FFFFFF" d="M67.913,178.693c0-0.645-0.193-1.148-0.58-1.515c-0.387-0.365-0.865-0.671-1.435-0.919
			c-0.569-0.246-1.192-0.483-1.869-0.709c-0.677-0.226-1.3-0.516-1.87-0.87s-1.047-0.811-1.434-1.369s-0.58-1.311-0.58-2.257
			c0-1.547,0.44-2.68,1.321-3.4c0.881-0.72,2.105-1.079,3.674-1.079c1.16,0,2.132,0.102,2.917,0.306
			c0.784,0.204,1.466,0.446,2.046,0.726l-0.612,2.127c-0.495-0.236-1.091-0.445-1.789-0.629c-0.699-0.182-1.445-0.273-2.24-0.273
			c-0.946,0-1.639,0.161-2.079,0.483s-0.661,0.881-0.661,1.676c0,0.56,0.193,0.994,0.58,1.306s0.865,0.591,1.435,0.838
			c0.569,0.247,1.192,0.489,1.869,0.726s1.3,0.548,1.87,0.935c0.569,0.387,1.047,0.876,1.434,1.466
			c0.387,0.592,0.58,1.37,0.58,2.337c0,0.688-0.113,1.333-0.338,1.935s-0.575,1.117-1.047,1.547
			c-0.473,0.43-1.059,0.769-1.756,1.016c-0.699,0.246-1.521,0.37-2.466,0.37c-1.225,0-2.267-0.118-3.126-0.354
			c-0.86-0.236-1.579-0.516-2.16-0.838l0.774-2.191c0.494,0.279,1.139,0.537,1.934,0.773s1.601,0.354,2.417,0.354
			c0.923,0,1.687-0.183,2.288-0.548S67.913,179.64,67.913,178.693z"/>
		<path fill="#FFFFFF" d="M74.648,160.516h12.28v2.385h-9.604v7.703h8.96v2.385h-8.96v10.089h-2.675V160.516z"/>
		<path fill="#FFFFFF" d="M102.818,181.788c-0.645,0.516-1.456,0.924-2.434,1.225c-0.978,0.301-2.014,0.451-3.11,0.451
			c-1.225,0-2.288-0.199-3.19-0.597c-0.903-0.396-1.644-0.967-2.224-1.708s-1.01-1.628-1.289-2.659
			c-0.28-1.031-0.419-2.191-0.419-3.48c0-2.75,0.613-4.846,1.837-6.285s2.976-2.159,5.253-2.159c0.73,0,1.461,0.08,2.192,0.241
			c0.73,0.161,1.386,0.468,1.966,0.919c0.58,0.451,1.052,1.091,1.418,1.917c0.365,0.828,0.548,1.918,0.548,3.271
			c0,0.71-0.064,1.494-0.193,2.354H92.827c0,0.945,0.097,1.783,0.29,2.514s0.494,1.349,0.903,1.854
			c0.408,0.505,0.939,0.892,1.595,1.16c0.655,0.27,1.456,0.403,2.401,0.403c0.73,0,1.461-0.129,2.191-0.387s1.278-0.559,1.644-0.902
			L102.818,181.788z M97.274,168.831c-1.268,0-2.283,0.333-3.045,0.999c-0.763,0.666-1.22,1.805-1.37,3.417h7.993
			c0-1.633-0.312-2.777-0.935-3.433C99.294,169.159,98.413,168.831,97.274,168.831z"/>
		<path fill="#FFFFFF" d="M105.3,166.962h2.514v-3.191l2.579-0.741v3.933h4.383v2.256h-4.383v8.928c0,1.118,0.139,1.907,0.419,2.369
			c0.279,0.463,0.752,0.693,1.418,0.693c0.559,0,1.031-0.06,1.418-0.178c0.387-0.117,0.816-0.273,1.29-0.467l0.58,1.966
			c-0.58,0.279-1.214,0.505-1.902,0.677s-1.429,0.258-2.224,0.258c-1.311,0-2.235-0.37-2.772-1.112
			c-0.537-0.741-0.806-1.981-0.806-3.723v-9.411H105.3V166.962z"/>
		<path fill="#FFFFFF" d="M128.99,182.014c-0.645,0.473-1.408,0.833-2.289,1.08c-0.881,0.246-1.805,0.37-2.772,0.37
			c-1.246,0-2.299-0.199-3.159-0.597c-0.859-0.396-1.563-0.967-2.111-1.708s-0.946-1.633-1.192-2.675
			c-0.248-1.042-0.371-2.197-0.371-3.465c0-2.729,0.602-4.818,1.805-6.27c1.203-1.45,2.933-2.175,5.189-2.175
			c1.032,0,1.907,0.08,2.627,0.241c0.72,0.161,1.37,0.393,1.95,0.693l-0.742,2.224c-0.494-0.279-1.042-0.5-1.644-0.661
			c-0.602-0.161-1.247-0.241-1.934-0.241c-3.051,0-4.577,2.062-4.577,6.188c0,0.816,0.081,1.596,0.242,2.337s0.43,1.396,0.806,1.966
			s0.871,1.026,1.483,1.37s1.37,0.516,2.272,0.516c0.773,0,1.466-0.118,2.079-0.354s1.112-0.505,1.499-0.806L128.99,182.014z"/>
		<path fill="#FFFFFF" d="M142.881,183.077v-9.186c0-0.838-0.048-1.574-0.145-2.208s-0.274-1.16-0.532-1.579
			c-0.258-0.42-0.607-0.736-1.047-0.951s-1.015-0.322-1.724-0.322c-1.01,0-1.923,0.328-2.74,0.983
			c-0.817,0.655-1.343,1.498-1.58,2.529v10.733h-2.578v-22.562h2.578v8.251h0.129c0.559-0.666,1.23-1.197,2.015-1.596
			c0.784-0.397,1.756-0.596,2.917-0.596c0.902,0,1.687,0.102,2.353,0.306s1.219,0.564,1.66,1.08c0.44,0.516,0.762,1.208,0.967,2.079
			c0.204,0.87,0.306,1.972,0.306,3.304v9.733H142.881z"/>
	</g>
</g>
<g id="Layer_1_xA0_Image_1_">
	<g>
		<g>
			<defs>
				<rect id="SVGID_1_" x="0.5" y="0" width="148" height="147.594"/>
			</defs>
			<clipPath id="SVGID_2_">
				<use xlink:href="#SVGID_1_"  overflow="visible"/>
			</clipPath>
			<rect x="1.203" y="0" clip-path="url(#SVGID_2_)" fill="#53B35A" width="147.297" height="147.594"/>
			<rect x="12.777" y="11.574" clip-path="url(#SVGID_2_)" fill="#3F9645" width="124.446" height="124.446"/>
			<g clip-path="url(#SVGID_2_)">
				<defs>
					<rect id="SVGID_3_" x="0.5" y="0" width="148" height="147.594"/>
				</defs>
				<clipPath id="SVGID_4_">
					<use xlink:href="#SVGID_3_"  overflow="visible"/>
				</clipPath>
				<path clip-path="url(#SVGID_4_)" fill="#FFFFFF" d="M131.434,67.052v7.245c-0.839,1.014-0.763,2.334-1.144,3.5
					c-3.615,10.891-13.27,17.388-25.174,16.9c-1.411-0.061-2.708-0.312-3.874,1.167c-5.568,7.024-12.309,9.06-20.942,6.467
					c-1.22-0.366-1.716-0.084-2.303,1.022c-2.898,5.46-7.42,8.869-13.46,10.242c-0.252,0.053-0.489,0.076-0.595,0.358h-8.389
					c-0.191-0.137-0.359-0.343-0.572-0.404c-6.208-1.8-10.692-5.651-13.461-11.462c-0.518-1.091-1.197-1.052-2.12-0.961
					c-9.174,0.892-17.212-4.377-20.133-13.148c-0.168-0.511-0.114-1.159-0.702-1.479v-8.77c0.572-0.252,0.519-0.847,0.649-1.297
					c1.174-4.057,3.515-7.313,6.886-9.784c1.175-0.854,1.335-1.602,0.915-2.997c-4.019-13.392,3.92-26.174,17.67-28.606
					c0.344-0.061,0.794,0.099,0.954-0.405h4.575c0.084,0.29,0.313,0.344,0.572,0.382c5.575,0.778,10.235,3.271,13.873,7.557
					c0.8,0.946,1.235,0.473,1.792-0.091c7.084-7.169,22.314-7.611,29.727,3.744c0.724,1.106,1.373,1.259,2.639,0.832
					c12.255-4.149,24.907,1.342,30.428,13.033C130.298,62.339,130.679,64.741,131.434,67.052"/>
			</g>
			<g clip-path="url(#SVGID_2_)">
				<defs>
					<path id="SVGID_5_" d="M45.639,34.64c-0.161,0.504-0.611,0.344-0.953,0.405c-13.751,2.432-21.69,15.214-17.67,28.606
						c0.419,1.396,0.259,2.143-0.916,2.997c-3.37,2.471-5.712,5.728-6.886,9.785c-0.13,0.45-0.076,1.045-0.648,1.296v8.77
						c0.586,0.321,0.533,0.969,0.702,1.48c2.92,8.769,10.958,14.04,20.133,13.147c0.922-0.091,1.601-0.13,2.12,0.961
						c2.769,5.812,7.252,9.663,13.461,11.463c0.213,0.061,0.38,0.266,0.571,0.404h8.389c0.107-0.283,0.343-0.305,0.595-0.358
						c6.04-1.374,10.562-4.782,13.46-10.242c0.587-1.106,1.083-1.389,2.303-1.023c8.633,2.593,15.375,0.557,20.942-6.467
						c1.167-1.479,2.463-1.228,3.874-1.167c11.904,0.488,21.56-6.009,25.174-16.9c0.381-1.166,0.305-2.486,1.145-3.5v-7.245
						c-0.755-2.31-1.137-4.713-2.189-6.955c-5.522-11.691-18.174-17.182-30.429-13.033c-1.266,0.427-1.914,0.274-2.639-0.832
						c-7.412-11.355-22.642-10.913-29.727-3.744c-0.557,0.565-0.992,1.037-1.792,0.091c-3.638-4.286-8.298-6.779-13.872-7.557
						c-0.26-0.038-0.488-0.092-0.572-0.382H45.639z"/>
				</defs>
				<clipPath id="SVGID_6_">
					<use xlink:href="#SVGID_5_"  overflow="visible"/>
				</clipPath>
				<path clip-path="url(#SVGID_6_)" fill="#3F9645" d="M65.764,114.242L65.764,114.242c2.366-4.194,4.723-8.392,7.113-12.572
					c0.231-0.404,0.617-0.883,1.023-0.998c3.004-0.848,4.456-3.225,5.881-5.695c1.486-2.576,2.953-5.177,4.641-7.621
					c2.805-4.063,2.377-8.122,0.179-12.151c-2.28-4.178-5.844-6.401-10.697-6.368c-2.482,0.017-4.963,0.003-7.444,0.003h-8.036
					c-0.399-4.529-0.287-4.657,3.733-4.657c12.489-0.001,24.978,0.002,37.467-0.006c0.852-0.001,1.705-0.079,2.557-0.121
					c-0.563-0.761-1.186-1.055-1.842-1.193c-12.12-2.566-24.245-5.111-36.367-7.666c-6.984-1.472-15.344,4.131-17.004,11.733
					c1.483-1.418,2.74-2.62,4.375-4.183c0,2.431-0.001,4.31,0.001,6.189c0.004,4.934,1.795,6.748,6.679,6.754
					c4.714,0.006,9.431-0.069,14.143,0.027c4.047,0.082,6.409,2.773,5.964,6.556c-0.413,3.51-3.476,5.572-7.281,4.768
					c-1.33-0.281-2.59-0.891-4.315-1.505c2.566,5.857,0.546,10.659-2.318,15.419c-2.611,4.34-4.941,8.85-7.39,13.287h-2.98
					c3.195-5.914,6.488-11.778,9.553-17.759c3.207-6.257,0.726-13.617-5.606-17.269c-5.934-3.422-12.43-1.811-16.475,4.082
					c-0.639,0.932-1.293,1.854-1.941,2.781l-0.092,24.706c0,1.961,1.59,3.552,3.552,3.552"/>
			</g>
		</g>
	</g>
</g>
</svg>
