<?xml version="1.0" encoding="utf-8"?>
<!-- Generator: Adobe Illustrator 17.0.0, SVG Export Plug-In . SVG Version: 6.00 Build 0)  -->
<!DOCTYPE svg PUBLIC "-//W3C//DTD SVG 1.1//EN" "http://www.w3.org/Graphics/SVG/1.1/DTD/svg11.dtd">
<svg version="1.1" id="Layer_1" xmlns="http://www.w3.org/2000/svg" xmlns:xlink="http://www.w3.org/1999/xlink" x="0px" y="0px"
	 width="206.171px" height="273.999px" viewBox="0 0 206.171 273.999" enable-background="new 0 0 206.171 273.999"
	 xml:space="preserve">
<g>
	<g>
		<path fill="#E67E22" d="M5.999,0c44.994,0,89.989,0,134.983,0c-0.037,15.448-0.115,30.897-0.095,46.345
			c0.01,7.584,4.13,11.61,11.695,11.655c13.951,0.082,27.902,0.132,41.852,0.258c1.7,0.015,3.775-0.75,4.811,1.525
			c-0.072,24.635-0.186,49.27-0.208,73.905c-0.036,40.286,0.006,80.572-0.026,120.858c-0.007,8.992-3.304,12.482-11.717,12.483
			c-59.763,0.005-119.527-0.016-179.29-0.029c-3.066-2.282-5.961-4.733-8.006-8.032C0,174.645,0,90.322,0,5.999
			C1.867,3.866,3.262,1.262,5.999,0z"/>
	</g>
	<path fill="#BF8C6A" d="M199.246,59.783c5.347,3.739,6.957,8.679,6.925,15.315c-0.29,60.948-0.19,121.898-0.239,182.848
		c-0.012,15.078-0.902,16.034-15.706,16.04c-56.786,0.024-113.572-0.069-170.358,0.013c-5.593,0.008-9.788-1.473-11.862-6.999
		c59.764,0.013,119.527,0.035,179.29,0.03c8.412-0.001,11.71-3.491,11.717-12.483c0.031-40.286-0.01-80.572,0.026-120.858
		C199.06,109.053,199.174,84.418,199.246,59.783z"/>
</g>
<text transform="matrix(1 0 0 1 9.661 75.1981)" fill="#FFFFFF" font-family="'MyriadPro-Semibold'" font-size="39">EVENT</text>
<g id="K14nYu.tif">
	<g>
		<path fill="#F5F5F5" d="M153.436,224.835c-35.425,0-70.85,0-106.275,0c-1.04-3.904-2.931-7.798-2.979-11.714
			c-0.267-22.202-0.093-44.409-0.07-66.615c37.457,0,74.914,0,112.371,0c0.024,22.205,0.198,44.413-0.069,66.614
			C156.368,217.037,154.476,220.931,153.436,224.835z M71.907,181.072c10.296,0.026,11.133-0.656,11.187-9.113
			c0.057-8.812-0.827-9.611-10.667-9.635c-10.295-0.026-11.133,0.657-11.189,9.114C61.181,180.242,62.073,181.047,71.907,181.072z
			 M100.388,181.072c10.008-0.008,10.858-0.75,10.839-9.463c-0.019-8.561-0.888-9.293-11.017-9.285
			c-10.008,0.008-10.859,0.751-10.839,9.463C89.39,180.346,90.26,181.08,100.388,181.072z M127.515,181.077
			c11.023-0.047,11.484-0.928,11.97-9.797c0.503-9.175-5.07-9.126-11.48-8.997c-9.679,0.195-10.16,0.961-10.625,9.833
			C116.902,181.233,122.306,181.594,127.515,181.077z M72.955,206.085c5.044,0.408,10.696,0.415,10.26-8.82
			c-0.422-8.932-0.958-9.821-10.48-9.958c-6.24-0.09-12.118-0.53-11.626,8.835C61.578,205.069,62.075,206.023,72.955,206.085z
			 M99.875,206.078c10.422,0.044,11.261-0.617,11.352-8.95c0.097-8.901-0.824-9.644-10.503-9.839
			c-6.41-0.129-11.984-0.179-11.48,8.996C89.731,205.144,90.203,206.037,99.875,206.078z M128.036,206.078
			c10.799,0.034,10.929-0.464,11.454-9.551c0.463-8.022-3.4-9.505-10.275-9.305c-11.129,0.324-11.683,0.462-11.716,9.269
			C117.466,205.487,118.08,206.047,128.036,206.078z"/>
		<path fill="#A5571E" d="M83.147,110.898c11.434,0,22.869,0,34.303,0c0.019,5.208,0.167,10.42,0.015,15.624
			c-0.123,4.217,1.434,6.14,5.885,6.165c4.466,0.025,6.891-1.219,6.68-6.166c-0.222-5.198-0.016-10.414,0.002-15.623
			c6.189-0.047,12.379-0.017,18.566-0.163c5.502-0.13,8.052,2.388,7.979,7.918c-0.123,9.284-0.071,18.569-0.093,27.854
			c-37.457,0-74.914,0-112.371,0c-0.028-9.029,0.115-18.062-0.142-27.084c-0.18-6.322,2.578-8.965,8.8-8.712
			c5.924,0.241,11.862,0.138,17.794,0.187c0.019,5.208,0.167,10.42,0.015,15.624c-0.123,4.217,1.434,6.14,5.885,6.165
			c4.466,0.025,6.891-1.219,6.68-6.166C82.923,121.322,83.128,116.106,83.147,110.898z"/>
		<path fill="#EDB58C" d="M71.907,181.072c-9.835-0.024-10.726-0.83-10.668-9.634c0.056-8.457,0.894-9.14,11.189-9.114
			c9.84,0.025,10.724,0.823,10.667,9.635C83.04,180.416,82.203,181.097,71.907,181.072z"/>
		<path fill="#EDB58C" d="M100.388,181.072c-10.128,0.008-10.998-0.725-11.018-9.285c-0.02-8.712,0.831-9.455,10.839-9.463
			c10.129-0.008,10.998,0.724,11.017,9.285C111.246,180.321,110.396,181.063,100.388,181.072z"/>
		<path fill="#EDB58C" d="M127.515,181.077c-5.209,0.517-10.613,0.155-10.135-8.961c0.465-8.872,0.945-9.638,10.625-9.833
			c6.41-0.129,11.984-0.178,11.48,8.997C138.998,180.149,138.538,181.03,127.515,181.077z"/>
		<path fill="#EDB58C" d="M72.955,206.085c-10.879-0.062-11.377-1.016-11.846-9.943c-0.492-9.366,5.386-8.925,11.626-8.835
			c9.523,0.137,10.059,1.026,10.48,9.958C83.651,206.501,77.999,206.494,72.955,206.085z"/>
		<path fill="#EDB58C" d="M99.875,206.078c-9.672-0.041-10.144-0.933-10.631-9.792c-0.504-9.175,5.071-9.125,11.48-8.996
			c9.679,0.195,10.6,0.938,10.503,9.839C111.136,205.46,110.296,206.122,99.875,206.078z"/>
		<path fill="#EDB58C" d="M128.036,206.078c-9.956-0.032-10.57-0.591-10.536-9.587c0.033-8.806,0.587-8.945,11.716-9.269
			c6.875-0.2,10.738,1.282,10.275,9.305C138.965,205.614,138.835,206.113,128.036,206.078z"/>
		<path fill="#E5E5E5" d="M83.147,110.898c-0.019,5.208-0.224,10.425-0.002,15.623c0.211,4.947-2.214,6.192-6.68,6.166
			c-4.451-0.025-6.008-1.949-5.885-6.165c0.152-5.203,0.003-10.415-0.015-15.624c-0.103-4.594,0.952-8.067,6.673-7.877
			C82.662,103.201,83.126,106.815,83.147,110.898z"/>
		<path fill="#E5E5E5" d="M130.033,110.898c-0.019,5.208-0.224,10.425-0.002,15.623c0.211,4.947-2.214,6.192-6.68,6.166
			c-4.451-0.025-6.008-1.949-5.885-6.165c0.152-5.203,0.003-10.415-0.015-15.624c-0.103-4.594,0.952-8.067,6.673-7.877
			C129.548,103.201,130.013,106.815,130.033,110.898z"/>
	</g>
</g>
</svg>
