<?xml version="1.0" encoding="utf-8"?>
<!-- Generator: Adobe Illustrator 17.0.0, SVG Export Plug-In . SVG Version: 6.00 Build 0)  -->
<!DOCTYPE svg PUBLIC "-//W3C//DTD SVG 1.1//EN" "http://www.w3.org/Graphics/SVG/1.1/DTD/svg11.dtd">
<svg version="1.1" id="Layer_1" xmlns="http://www.w3.org/2000/svg" xmlns:xlink="http://www.w3.org/1999/xlink" x="0px" y="0px"
	 width="100px" height="100px" viewBox="0 0 100 100" enable-background="new 0 0 100 100" xml:space="preserve">
<g>
	<path fill="#EBEFF0" d="M8.186,0.197c23.28,0,46.56,0,69.84,0c0.112,1.787-0.375,3.411-1.029,5.08
		c-1.797,4.584-3.41,9.239-5.095,13.867c-0.437,1.201-1.052,2.523,0.148,3.523c1.01,0.842,2.12-0.03,3.143-0.356
		c6.056-1.928,12.103-3.882,18.153-5.828c0.473,7.59-1.073,15.269,0.995,22.79c-12.112,6.265-24.61,11.904-36.197,19.024
		c-7.261,4.462-12.98,3.516-19.626-0.231c-3.196-1.802-6.268-4.487-10.424-4.026l0.022-0.004c-0.437-1.402-1.6-1.216-2.674-1.223
		c-4.689-2.813-9.287-5.794-14.1-8.374c-2.788-1.494-3.862-3.427-3.32-6.422C8.076,25.41,8.131,12.804,8.186,0.197z"/>
	<path fill="#EEC231" d="M8.021,38.016c-0.541,2.995,0.533,4.929,3.32,6.422c4.814,2.579,9.412,5.561,14.1,8.374
		c0.705,0.814,1.596,1.223,2.675,1.223c0,0-0.022,0.004-0.021,0.002c7.241,5.558,15.179,10.003,23.102,14.473
		c0.019,0.188,0.029,0.376,0.032,0.565c-7.372,3.047-13.55,8.015-20.056,12.457c-6.069,1.506-10.691,5.692-15.865,8.797
		c-3.143,1.886-7,2.996-9.034,6.496c-0.941-0.074-2.092,0.53-1.975-1.439c0.216-3.655,0.062-7.331,0.062-10.999
		c1.49-1.438,0.807-3.287,0.818-4.94c0.076-11.068,0.075-22.137,0.05-33.206c-0.006-2.672-0.054-5.322,1.151-7.803
		C6.926,38.299,7.473,38.158,8.021,38.016z"/>
	<path fill="#E37E31" d="M51.228,69.075c-0.002-0.189-0.013-0.377-0.031-0.565c13.314-8.078,26.628-16.155,39.94-24.234
		c1.905-1.156,3.895-2.242,4.205-4.798c0.292-0.044,0.576-0.121,0.85-0.231c0.323,0.059,0.646,0.118,0.968,0.177
		c0,7.335,0,14.67,0,22.004c-1.56,7.973-1.561,15.945,0,23.918c0,3.508,0,7.016,0,10.524c-1.533,0.186-2.687-0.568-3.948-1.337
		C79.241,86.009,65.229,77.551,51.228,69.075z"/>
	<path fill="#F09A2C" d="M51.228,69.075c14.001,8.476,28.013,16.934,41.985,25.457c1.26,0.769,2.414,1.523,3.948,1.337
		c-0.852,1.967-2.567,0.895-3.801,0.899c-27.434,0.076-54.869,0.058-82.303,0.058c0.886-1.853,2.906-2.326,4.321-3.54
		c4.991-4.282,11.324-6.767,15.795-11.754C37.678,77.09,43.857,72.122,51.228,69.075z"/>
	<path fill="#FEFCFC" d="M96.192,39.246c-0.274,0.111-0.558,0.188-0.85,0.231c-0.334-0.068-0.668-0.136-1.001-0.204
		c-2.068-7.521-0.522-15.199-0.995-22.79c-0.038-0.364-0.076-0.729-0.114-1.093c-4.366-5.087-8.959-9.945-14.199-14.155
		C79.016,0.889,79,0.543,78.983,0.197c5.059,0,10.131,0.222,15.171-0.087c2.833-0.174,3.104,0.787,3.072,3.252
		c-0.148,11.38-0.065,22.764-0.065,34.146C96.838,38.088,96.515,38.667,96.192,39.246z"/>
	<path fill="#FEFCFC" d="M8.021,38.016c-0.547,0.141-1.095,0.282-1.643,0.424c-0.673,0.009-1.346,0.017-2.018,0.025
		c0-11.481,0.158-22.965-0.1-34.439c-0.074-3.29,0.651-4.553,3.926-3.829C8.131,12.804,8.076,25.41,8.021,38.016z"/>
	<path fill="#D4D6D3" d="M78.983,0.197C79,0.543,79.016,0.889,79.032,1.236c-0.616,15.183-0.616,15.183,14.199,14.155
		c0.038,0.364,0.076,0.728,0.114,1.093c-6.05,1.946-12.097,3.9-18.153,5.828c-1.023,0.326-2.133,1.199-3.143,0.356
		c-1.2-1-0.585-2.322-0.148-3.523c1.685-4.628,3.298-9.283,5.095-13.867c0.654-1.669,1.141-3.293,1.029-5.08
		C78.345,0.197,78.664,0.197,78.983,0.197z"/>
	<path fill="#E37E31" d="M31.173,81.532c-4.471,4.987-10.804,7.471-15.795,11.754c-1.415,1.214-3.435,1.687-4.321,3.54
		c-1.595,0-3.189,0-4.784,0c2.034-3.5,5.891-4.61,9.034-6.496C20.482,87.224,25.104,83.038,31.173,81.532z"/>
	<path fill="#D4D6D3" d="M4.36,38.466c0.673-0.008,1.345-0.016,2.018-0.025c-1.205,2.48-1.157,5.13-1.151,7.802
		c0.026,11.069,0.026,22.138-0.05,33.206c-0.011,1.653,0.672,3.501-0.818,4.94C4.36,69.081,4.36,53.773,4.36,38.466z"/>
	<path fill="#F09A2C" d="M97.161,85.345c-1.561-7.973-1.56-15.945,0-23.918C97.161,69.4,97.161,77.372,97.161,85.345z"/>
	<path fill="#EBEFF0" d="M96.192,39.246c0.323-0.579,0.646-1.158,0.968-1.737c0,0.638,0,1.276,0,1.913
		C96.838,39.364,96.515,39.305,96.192,39.246z"/>
	<path fill="#D4D6D3" d="M94.341,39.273c0.334,0.068,0.667,0.136,1.001,0.204c-0.309,2.556-2.3,3.642-4.205,4.798
		c-13.312,8.079-26.626,16.156-39.94,24.234c-7.924-4.469-15.862-8.914-23.103-14.472c4.155-0.459,7.227,2.227,10.423,4.028
		c6.646,3.747,12.365,4.693,19.626,0.231C69.731,51.178,82.229,45.539,94.341,39.273z"/>
	<path fill="#D4D6D3" d="M28.116,54.035c-1.078,0-1.969-0.408-2.675-1.223C26.516,52.819,27.679,52.633,28.116,54.035z"/>
	<path fill="#E37E31" d="M93.232,15.391c-14.815,1.028-14.815,1.028-14.199-14.155C84.273,5.445,88.866,10.304,93.232,15.391z"/>
</g>
</svg>
