<?xml version="1.0" encoding="utf-8"?>
<!-- Generator: Adobe Illustrator 17.0.0, SVG Export Plug-In . SVG Version: 6.00 Build 0)  -->
<!DOCTYPE svg PUBLIC "-//W3C//DTD SVG 1.1//EN" "http://www.w3.org/Graphics/SVG/1.1/DTD/svg11.dtd">
<svg version="1.1" id="Layer_1" xmlns="http://www.w3.org/2000/svg" xmlns:xlink="http://www.w3.org/1999/xlink" x="0px" y="0px"
	 width="100px" height="100px" viewBox="0 0 100 100" enable-background="new 0 0 100 100" xml:space="preserve">
<g>
	<path fill="#F09A2C" d="M94.161,19.453c-10.712,7.665-27.429,13.668-39.016,20.788c-7.261,4.462-12.98,3.516-19.626-0.231
		c-3.196-1.802-6.268-4.487-10.424-4.026l0.022-0.004c-0.437-1.402-1.6-1.216-2.674-1.223c-4.689-2.813-9.287-5.794-14.1-8.374
		c-2.788-1.494-3.997-3.935-3.456-6.93"/>
	<path fill="#EEC231" d="M5.021,19.961c-0.541,2.995,0.533,4.929,3.32,6.422c4.814,2.579,9.412,5.561,14.1,8.374
		c0.705,0.814,1.596,1.223,2.675,1.223c0,0-0.022,0.004-0.021,0.002c7.241,5.558,15.179,10.003,23.102,14.473
		c0.019,0.188,0.029,0.376,0.032,0.565c-7.372,3.047-13.55,8.015-20.056,12.457c-6.069,1.506-10.691,5.692-15.865,8.797
		c-3.143,1.886-7,2.996-9.034,6.496c-0.941-0.074-2.092,0.53-1.975-1.439C1.514,73.676,1.36,70,1.36,66.332
		c1.49-1.438,0.807-3.287,0.818-4.94c0.076-11.068,0.075-22.137,0.05-33.206c-0.006-2.672-0.054-5.322,1.151-7.803
		C3.926,20.243,4.473,20.102,5.021,19.961z"/>
	<path fill="#E37E31" d="M48.228,51.019c-0.002-0.189-0.013-0.377-0.031-0.565c13.314-8.078,26.628-16.155,39.94-24.234
		c1.905-1.156,3.895-2.242,4.205-4.798c0.292-0.044,0.576-0.121,0.85-0.231c0.323,0.059,0.646,0.118,0.968,0.177
		c0,7.335,0,14.67,0,22.004c-1.56,7.973-1.561,15.945,0,23.918c0,3.508,0,7.016,0,10.524c-1.533,0.186-2.687-0.568-3.948-1.337
		C76.241,67.953,62.229,59.495,48.228,51.019z"/>
	<path fill="#F09A2C" d="M48.228,51.019c14.001,8.476,28.013,16.934,41.985,25.457c1.26,0.769,2.414,1.523,3.948,1.337
		c-0.852,1.967-2.567,0.895-3.801,0.899C62.925,78.787,35.491,78.77,8.056,78.77c0.886-1.853,2.906-2.326,4.321-3.54
		c4.991-4.282,11.324-6.767,15.795-11.754C34.678,59.034,40.857,54.066,48.228,51.019z"/>
	<path fill="#E37E31" d="M28.173,63.476c-4.471,4.987-10.804,7.471-15.795,11.754c-1.415,1.214-3.435,1.687-4.321,3.54
		c-1.595,0-3.189,0-4.784,0c2.034-3.5,5.891-4.61,9.034-6.496C17.482,69.168,22.104,64.982,28.173,63.476z"/>
	<path fill="#D4D6D3" d="M1.36,20.41c0.673-0.008,1.345-0.016,2.018-0.025c-1.205,2.48-1.157,5.13-1.151,7.802
		c0.026,11.069,0.026,22.138-0.05,33.206c-0.011,1.653,0.672,3.501-0.818,4.94C1.36,51.025,1.36,35.718,1.36,20.41z"/>
	<path fill="#F09A2C" d="M94.161,67.289c-1.561-7.973-1.56-15.945,0-23.918C94.161,51.344,94.161,59.316,94.161,67.289z"/>
	<path fill="#EBEFF0" d="M93.192,21.19c0.323-0.579,0.646-1.158,0.968-1.737c0,0.638,0,1.276,0,1.913
		C93.838,21.308,93.515,21.249,93.192,21.19z"/>
	<path fill="#D4D6D3" d="M91.341,21.218c0.334,0.068,0.667,0.136,1.001,0.204c-0.309,2.556-2.3,3.642-4.205,4.798
		c-13.312,8.079-26.626,16.156-39.94,24.234c-7.924-4.469-15.862-8.914-23.103-14.472c4.155-0.459,7.227,2.227,10.423,4.028
		c6.646,3.747,12.365,4.693,19.626,0.231C66.731,33.122,79.229,27.483,91.341,21.218z"/>
	<path fill="#D4D6D3" d="M25.116,35.98c-1.078,0-1.969-0.408-2.675-1.223C23.516,34.763,24.679,34.577,25.116,35.98z"/>
</g>
<g transform="scale(0.078125,0.078125)">
	<path fill="#4378BA" d="M1050.219,1243.681l114.537-113.477L1280,1011.071l-115.244-119.133l-114.537-113.477v147.767H823.973
		v169.685h226.246V1243.681"/>
</g>
</svg>
