<?xml version="1.0" encoding="utf-8"?>
<!-- Generator: Adobe Illustrator 17.0.0, SVG Export Plug-In . SVG Version: 6.00 Build 0)  -->
<!DOCTYPE svg PUBLIC "-//W3C//DTD SVG 1.1//EN" "http://www.w3.org/Graphics/SVG/1.1/DTD/svg11.dtd">
<svg version="1.1" id="Layer_1" xmlns="http://www.w3.org/2000/svg" xmlns:xlink="http://www.w3.org/1999/xlink" x="0px" y="0px"
	 width="100px" height="100px" viewBox="0 0 100 100" enable-background="new 0 0 100 100" xml:space="preserve">
<g>
	<path fill="#FEF4C7" d="M7.653,43.475c0.85-2.799,0.873-5.679,0.766-8.572c0.729-0.581,1.376-1.402,2.199-1.705
		c6.329-2.337,9.975-7.129,11.729-13.72c1.911,0.005,3.822,0.01,5.734,0.016c-0.695,2.882-1.296,5.794-2.111,8.639
		c-0.726,2.532,0.144,3.381,2.516,3.354c5.711-0.064,11.423,0.028,17.134-0.047c1.556-0.02,3.303,0.644,4.609-0.905
		c0.516,0.008,1.032,0.015,1.548,0.022c3.43,1.813,7.067,0.825,10.596,0.681c1.598-0.065,1.93-1.796,1.55-3.311
		c-0.707-2.826-1.514-5.624-2.28-8.434c2.457-0.004,4.914-0.009,7.371-0.013c1.182,4.849,3.778,8.475,7.956,11.075
		c4.469,2.781,4.371,2.953,5.875-1.647c0.305,6.281,0.609,12.561,0.914,18.842c-0.833-2.769-2.549-3.991-5.352-3.432
		c-7.803,1.556-15.599,0.427-23.418,0.081c-7.29-0.323-14.691,0.872-21.867,0.423C24.64,44.291,16.055,45.38,7.653,43.475z"/>
	<path fill="#FBE8A1" d="M5.258,78.627c-2.174-3.646,1.442-6.78,0.828-10.288c1.904-0.064,3.832,0.047,5.71-0.222
		c9.905-1.421,19.88-0.99,29.758-0.419c14.368,0.83,28.678,0.918,43.01-0.23c0.353,0.281,0.705,0.561,1.056,0.842
		c1.471,5.972,1.07,6.765-3.48,6.875c-1.274,0.152-2.378-0.377-3.496-0.909c-1.789-0.851-2.071,0.475-2.316,1.819
		c-4.732-1.181-5.22,2.977-6.724,5.857c-2.442,1.432-3.958,3.787-5.529,6.086c-1.11-0.03-2.142-0.03-2.427-1.602
		c-0.622-3.428-2.699-6.138-4.244-9.117c-0.821-1.582-1.842-2.19-3.55-2.172c-7.195,0.076-14.391,0.032-21.587,0.032
		c-1.097,0-2.352-0.081-2.918,1.071c-1.897,3.866-5.014,7.131-5.371,11.765c-3.275,0.003-6.55,0.006-9.825,0.009
		C13.573,79.245,12.923,78.558,5.258,78.627z"/>
	<path fill="#FEF2BF" d="M7.653,43.475c8.402,1.905,16.987,0.816,25.467,1.347c7.176,0.449,14.576-0.746,21.867-0.423
		c7.819,0.346,15.615,1.475,23.418-0.081c2.803-0.559,4.519,0.662,5.352,3.432c0.249,0.008,0.498,0.011,0.747,0.009
		c0.049,3.717,0.098,7.433,0.146,11.15c-0.609-5.492-4.235-5.26-8.271-5.229c-20.109,0.155-40.22,0.113-60.33,0.032
		c-3.55-0.014-7.063-0.44-9.172,3.478C7.136,52.618,7.394,48.046,7.653,43.475z"/>
	<path fill="#FCEFB5" d="M6.877,57.189c2.109-3.918,5.622-3.492,9.172-3.478c20.11,0.081,40.221,0.123,60.33-0.032
		c4.035-0.031,7.662-0.263,8.27,5.229c1.321,2.473,0.335,5.266,0.989,7.831c-0.005,0.524-0.01,1.047-0.015,1.571
		c-0.353-0.281-0.705-0.561-1.058-0.842c0.001-6.002,0.001-6.004-5.642-6.004c-23.766,0-47.532,0.001-71.299,0.002
		c-0.264-0.005-0.529-0.007-0.793-0.007C6.846,60.036,6.861,58.613,6.877,57.189z"/>
	<path fill="#FCECAB" d="M7.623,61.466c23.766-0.001,47.532-0.002,71.299-0.002c5.643,0,5.643,0.002,5.642,6.004
		c-14.332,1.148-28.642,1.06-43.01,0.23c-9.878-0.571-19.853-1.002-29.758,0.419c-1.878,0.269-3.806,0.158-5.71,0.222
		c0.171-1.421-1.08-2.821-0.057-4.255c0.409,0.285,1.158,0.845,1.18,0.815C7.981,63.857,7.446,62.617,7.623,61.466z"/>
	<path fill="#FEF2BF" d="M22.347,19.477c-1.754,6.591-5.4,11.383-11.729,13.72c-0.822,0.304-1.47,1.124-2.199,1.705
		c1.215-4.037,0.484-8.242,0.976-12.338c0.358-2.98,1.804-4.438,4.897-3.969c1.867,0.283,3.806,0.052,5.711,0.051
		C20.784,18.923,21.565,19.2,22.347,19.477z"/>
	<path fill="#BF9A5A" d="M96.823,85.48c0.246,1.294-0.059,2.431-0.89,3.417c-0.241,0.573-0.483,1.146-0.724,1.719
		c-7.193,0-14.388,0.069-21.58-0.043c-2.101-0.033-4.344,0.768-6.311-0.721c2.829-1.732,6.53-1.484,8.887-4.288
		c0.856-0.792,1.8-0.519,2.744-0.251C84.907,85.369,90.865,85.425,96.823,85.48z"/>
	<path fill="#FCEFB5" d="M95.205,54.604c0.993,6.817,1.636,13.665,1.641,20.568c-0.541,0-1.081,0-1.622,0
		c-0.009-0.283-0.014-0.566-0.017-0.849c0.51-3.216-0.795-6.259-0.822-9.424c0.002-0.703,0.014-1.406,0.006-2.109
		c-0.064-5.178-1.361-6.228-6.134-5.017c-0.645,0.164-1.325,0.173-1.988,0.253c-0.298-3.417-0.597-6.833-0.895-10.25
		c0.025-0.308,0.049-0.616,0.074-0.923c2.38-0.824,4.834-0.929,7.309-0.818l0.001,0c0.655,2.26,0.985,4.558,0.823,6.929
		C93.502,54.138,93.466,55.361,95.205,54.604z"/>
	<path fill="#FBEBAD" d="M69.012,19.479c-2.457,0.004-4.914,0.009-7.371,0.013c-1.438-0.077-2.875-0.154-4.313-0.231
		c0.287-0.497,0.574-0.993,0.862-1.49c11.225,0.005,22.45,0.01,33.674,0.015c0.002,1.135,0.004,2.269,0.006,3.404
		c-0.618,0.387-0.741,1.017-0.757,1.698c-2.452,0.011-4.904,0.022-7.356,0.033c-0.55-1.15-1.1-2.301-1.65-3.451
		C77.742,19.473,73.377,19.476,69.012,19.479z"/>
	<path fill="#F9E391" d="M5.258,78.627c7.665-0.069,8.315,0.618,8.896,9.399c-3.232-0.019-6.464-0.038-9.696-0.057
		C2.84,84.678,6.175,81.852,5.258,78.627z"/>
	<path fill="#CBB06B" d="M95.208,90.616c0.241-0.573,0.483-1.146,0.724-1.719c-0.053,1.282,0.856,2.911-1.152,3.486
		c-25.911,0.001-51.821,0.001-77.73,0.002c-0.287-0.217-0.574-0.434-0.859-0.651c14.395-0.094,28.789-0.17,43.181-0.308
		c1.573-0.015,3.28,0.573,4.7-0.704c0.313,0.012,0.627,0.024,0.94,0.036c0.756,0.819,1.74,0.677,2.681,0.677
		c8.163,0.005,16.327,0.009,24.49-0.002C93.248,91.432,94.392,91.665,95.208,90.616z"/>
	<path fill="#807E7B" d="M17.051,92.386c25.909-0.001,51.819-0.001,77.73-0.002c-1.153,1.447-2.752,0.979-4.191,0.981
		c-23.115,0.026-46.231,0.026-69.346,0C19.805,93.363,18.206,93.834,17.051,92.386z"/>
	<path fill="#CE2E43" d="M58.19,17.771c-0.287,0.497-0.574,0.993-0.862,1.49c-0.188,0.006-0.376,0.003-0.563-0.01
		c-3.367-0.727-6.734-1.455-10.101-2.182c-0.264-0.37-0.528-0.74-0.792-1.11c0.927-1.493,1.854-2.986,2.782-4.476
		c2.315,0.81,3.293,2.842,3.888,5.328c1.275-1.036,2.218-1.803,3.161-2.569c0.839,0.62,1.678,1.24,2.517,1.86
		c-0.14,0.27-0.13,0.533,0.031,0.789C58.23,17.185,58.21,17.478,58.19,17.771z"/>
	<path fill="#FBEBAD" d="M22.347,19.477c-0.782-0.277-1.563-0.554-2.344-0.83c0.007-0.589,0.013-1.179,0.017-1.769
		c0.498,0.008,0.997,0.016,1.496,0.024c0.809,1.052,1.951,0.851,3.02,0.847c7.355-0.028,14.71-0.073,22.064-0.112
		c0.455,0.558,0.91,1.115,1.365,1.673c-6.628,0.061-13.257,0.122-19.885,0.183C26.169,19.487,24.258,19.482,22.347,19.477z"/>
	<path fill="#5E4D26" d="M65.013,90.759c-0.313-0.012-0.627-0.024-0.94-0.037c-16.118,0.045-32.236,0.091-48.354,0.136
		c-0.328-0.371-0.657-0.741-0.985-1.112c2.53-0.089,5.06-0.177,7.59-0.265c13.108,0.074,26.216,0.113,39.323,0.286
		C62.731,89.782,64.416,88.571,65.013,90.759z"/>
	<path fill="#BF9A5A" d="M15.719,90.859c16.118-0.046,32.237-0.091,48.354-0.136c-1.42,1.278-3.127,0.69-4.7,0.705
		c-14.393,0.138-28.786,0.214-43.181,0.308C16.032,91.443,15.875,91.151,15.719,90.859z"/>
	<path fill="#CE2E43" d="M48.665,11.187c1.457-4.495,4.7-5.615,7.97-2.476c1.161,1.115,2.422,3.148-0.559,4.071
		C53.606,12.25,51.135,11.719,48.665,11.187z"/>
	<path fill="#FBEBAD" d="M95.225,75.172c0.541,0,1.081,0,1.622,0c0.806,3.438,1.703,6.876-0.024,10.308
		c-5.958-0.055-11.915-0.111-17.874-0.166c-0.055-1.108,0.551-1.524,1.506-1.575c2.167,1.74,4.669,0.785,6.995,0.817
		C96.6,84.682,96.601,84.608,95.225,75.172z"/>
	<path fill="#FCF3D1" d="M93.538,26.316c0.286,6.288,0.572,12.577,0.858,18.865c-0.546,0.285-1.092,0.57-1.637,0.855l-0.001,0
		c-0.275-6-0.55-12-0.825-18c0.003-0.57,0.005-1.139,0.007-1.709C92.473,26.323,93.006,26.32,93.538,26.316z"/>
	<path fill="#E8D8B8" d="M58.25,16.892c-0.161-0.256-0.172-0.519-0.031-0.789c10.344-0.035,20.689-0.073,31.033-0.101
		c0.94-0.003,1.935-0.135,2.591,0.846C80.646,16.863,69.448,16.877,58.25,16.892z"/>
	<path fill="#FEF2BF" d="M58.25,16.892c11.198-0.015,22.396-0.029,33.593-0.044c0.007,0.312,0.015,0.625,0.023,0.938
		c-11.225-0.005-22.45-0.009-33.675-0.014C58.21,17.478,58.23,17.185,58.25,16.892z"/>
	<path fill="#FCEFB5" d="M22.323,89.481c-2.53,0.088-5.06,0.177-7.59,0.266c0,0-0.205,0.024-0.208,0.025
		c-3.276-1.951-6.856-0.417-10.251-0.988c0.04-0.276,0.1-0.547,0.183-0.814c3.233,0.018,6.465,0.037,9.697,0.056
		c3.275-0.003,6.55-0.006,9.824-0.009l0.009,0.028c-0.001,0.252,0.004,0.505,0.017,0.757C23.444,89.028,22.884,89.254,22.323,89.481
		z"/>
	<path fill="#E8D8B8" d="M21.516,16.902c-0.499-0.008-0.998-0.016-1.496-0.024c0.679-1.75,2.124-0.813,3.15-0.828
		c7.566-0.111,15.133-0.077,22.701-0.09c0.264,0.37,0.528,0.74,0.791,1.109c-0.001-0.001-0.306,0.106-0.306,0.106l-0.225-0.241
		C37.926,16.923,29.721,16.913,21.516,16.902z"/>
	<path fill="#5E4D26" d="M48.665,11.187c2.471,0.531,4.941,1.063,7.411,1.595c-0.127,0.489-0.253,0.977-0.377,1.463
		c-0.941,0.764-1.884,1.53-3.158,2.567c-0.595-2.486-1.573-4.518-3.888-5.328C48.653,11.481,48.665,11.187,48.665,11.187z"/>
	<path fill="#FEF4C7" d="M92.759,46.036c0.546-0.285,1.092-0.57,1.637-0.855c1.504,3.025,0.535,6.282,0.809,9.423
		c-1.74,0.758-1.704-0.465-1.624-1.639C93.744,50.594,93.414,48.296,92.759,46.036z"/>
	<path fill="#DBCB8A" d="M4.275,88.783c3.395,0.571,6.975-0.962,10.251,0.988c-2.499,0.328-4.994,0.777-7.505,0.932
		C5.847,90.776,3.927,91.37,4.275,88.783z"/>
	<path fill="#FEF4C7" d="M93.538,26.316c-0.532,0.004-1.064,0.007-1.597,0.011c-1.188-0.906-0.705-2.252-0.828-3.439
		c0.016-0.682,0.14-1.311,0.757-1.698C93.464,22.529,92.337,24.837,93.538,26.316z"/>
	<path fill="#FEF2BF" d="M7.623,61.466c-0.177,1.151,0.357,2.391-0.414,3.433c-0.022,0.03-0.771-0.53-1.18-0.815
		c0.267-0.875,0.534-1.75,0.801-2.625C7.095,61.459,7.359,61.461,7.623,61.466z"/>
	<path fill="#FCF3D1" d="M28.08,19.492c6.628-0.061,13.257-0.122,19.885-0.183c0.245-0.012,0.427,0.094,0.548,0.317
		c-0.005,1.649-0.01,3.298-0.015,4.947c-0.535,2.34,0.307,4.242,1.73,5.958c-1.307,1.55-3.054,0.885-4.61,0.906
		c-5.711,0.075-11.423-0.017-17.134,0.047c-2.371,0.027-3.241-0.822-2.516-3.354C26.784,25.286,27.386,22.375,28.08,19.492z"/>
	<path fill="#FEF2BF" d="M69.012,19.479c4.365-0.003,8.73-0.006,13.095-0.009c-0.26,3.189,0.273,6.31,0.736,9.438
		c-1.503,4.6-1.406,4.427-5.875,1.647C72.79,27.954,70.194,24.328,69.012,19.479z"/>
	<path fill="#FCF3D1" d="M56.765,19.251c0.187,0.013,0.375,0.017,0.563,0.01c1.438,0.076,2.876,0.153,4.314,0.23
		c0.766,2.81,1.573,5.609,2.28,8.434c0.379,1.515,0.048,3.246-1.55,3.311c-3.529,0.143-7.166,1.132-10.596-0.681
		c0.04-0.811,0.079-1.623,0.118-2.435c1.394-1.735,3.392-2.031,5.334-2.496c0.722-0.173,1.64-0.105,1.845-1.216
		c0.26-1.412-0.915-1.561-1.659-1.927c-0.683-0.336-1.524-0.318-2.295-0.456c-0.017-0.536-0.034-1.072-0.052-1.607
		C55.633,20.029,56.199,19.64,56.765,19.251z"/>
	<path fill="#E8D8B8" d="M82.843,28.908c-0.462-3.127-0.995-6.249-0.736-9.438c0.55,1.15,1.1,2.301,1.65,3.451
		c0.025,1.998,0.051,3.996,0.076,5.994c0.539,5.98,1.077,11.959,1.616,17.939c-0.025,0.308-0.049,0.616-0.074,0.923
		c-0.291-0.006-0.581-0.012-0.872-0.018c-0.249,0.002-0.498-0.001-0.746-0.009C83.452,41.469,83.148,35.188,82.843,28.908z"/>
	<path fill="#DBCB8A" d="M51.894,28.121c-0.039,0.812-0.079,1.624-0.119,2.435c-0.516-0.008-1.032-0.015-1.548-0.023
		c-1.422-1.718-2.265-3.619-1.729-5.959c0.985,0.022,1.97,0.044,2.955,0.066C51.977,25.748,48.667,27.388,51.894,28.121z"/>
	<path fill="#FBEBAD" d="M23.979,88.017c0.357-4.634,3.474-7.899,5.371-11.765c0.566-1.153,1.82-1.071,2.918-1.071
		c7.196,0,14.392,0.043,21.587-0.032c1.708-0.018,2.729,0.59,3.55,2.172c1.545,2.979,3.622,5.688,4.244,9.117
		c0.285,1.572,1.317,1.572,2.428,1.602c-1.202,1.361-2.745,0.664-4.158,0.753c-1.44-1.399-3.215-0.493-4.819-0.767
		c-0.188-4.444-3.972-5.061-6.693-6.355c-7.046-3.352-14.956-0.353-17.876,6.356c-2.181,0.007-4.361,0.013-6.542,0.02L23.979,88.017
		z"/>
	<path fill="#DBCB8A" d="M59.918,88.791c1.413-0.089,2.956,0.608,4.158-0.753c1.571-2.299,3.086-4.654,5.53-6.086
		c0.858,1.453,1.75,0.532,2.636,0.043c1.785,1.738,2.894-0.436,4.248-0.891c3.01-1.013,5.421-3.886,9.002-3.15
		c-0.029,0.459-0.058,0.918-0.087,1.377c-0.644,2.706-3.444,2.762-4.949,4.409c-0.955,0.051-1.561,0.467-1.506,1.575
		c-0.943-0.27-1.888-0.543-2.743,0.25c-3.342-0.199-6.024,2.04-9.116,2.78c-0.032,0.008,0.147,0.984,0.228,1.508
		c1.967,1.489,4.21,0.688,6.311,0.721c7.192,0.112,14.386,0.043,21.58,0.043c-0.816,1.048-1.96,0.816-3.025,0.817
		c-8.163,0.011-16.327,0.008-24.49,0.002c-0.941-0.001-1.925,0.142-2.681-0.677c-0.597-2.188-2.281-0.977-3.367-0.991
		c-13.107-0.173-26.215-0.212-39.323-0.286c0.56-0.227,1.121-0.453,1.681-0.679C35.975,88.799,47.947,88.795,59.918,88.791z"/>
	<path fill="#FCEFB5" d="M85.491,77.954c-3.581-0.736-5.991,2.138-9.002,3.15c-1.354,0.455-2.462,2.629-4.247,0.891
		c1.362-1.966,2.724-3.933,4.086-5.899c0.244-1.344,0.527-2.67,2.316-1.819c1.118,0.532,2.222,1.06,3.496,0.909
		C82.706,76.839,85.38,75.697,85.491,77.954z"/>
	<path fill="#BF9A5A" d="M76.328,76.096c-1.362,1.967-2.724,3.933-4.086,5.899c-0.886,0.489-1.778,1.41-2.636-0.043
		C71.108,79.073,71.596,74.914,76.328,76.096z"/>
	<path fill="#CBB06B" d="M85.491,77.954c-0.111-2.257-2.785-1.115-3.351-2.769c4.551-0.111,4.952-0.903,3.481-6.875
		c0.007-0.523,0.012-1.047,0.015-1.571c0.425-0.019,0.853-0.037,1.281-0.055c0.405,2.821-0.557,5.8,0.897,8.5
		c-0.217,1.756,0.57,4.15-2.409,4.148C85.433,78.872,85.462,78.413,85.491,77.954z"/>
	<path fill="#DBCB8A" d="M86.915,66.684c-0.427,0.018-0.855,0.036-1.28,0.055c-0.652-2.565,0.335-5.357-0.986-7.83
		c-0.047-3.716-0.096-7.433-0.145-11.15c0.29,0.006,0.581,0.012,0.871,0.018c0.298,3.417,0.596,6.833,0.894,10.25
		c-0.235,2.349,0.065,4.63,0.781,6.86C87.005,65.486,86.96,66.085,86.915,66.684z"/>
	<path fill="#5E4D26" d="M67.318,89.852c-0.081-0.524-0.26-1.5-0.228-1.508c3.092-0.74,5.773-2.979,9.116-2.78
		C73.848,88.368,70.147,88.12,67.318,89.852z"/>
	<path fill="#FEF4C7" d="M85.449,46.854c-0.539-5.98-1.077-11.959-1.616-17.939c2.774,0.46,5.361-0.989,8.101-0.878
		c0.275,6,0.55,12,0.825,18C90.283,45.924,87.829,46.03,85.449,46.854z"/>
	<path fill="#F9E391" d="M85.404,79.331c2.979,0.002,2.192-2.392,2.409-4.148c2.536,0.388,4.924-0.63,7.394-0.86
		c0.002,0.283,0.008,0.566,0.017,0.849c1.377,9.435,1.376,9.509-7.775,9.384c-2.326-0.032-4.828,0.924-6.995-0.817
		C81.96,82.093,84.76,82.038,85.404,79.331z"/>
	<path fill="#FBE8A1" d="M95.208,74.323c-2.471,0.23-4.858,1.247-7.394,0.86c-1.454-2.7-0.492-5.679-0.897-8.5
		c0.044-0.599,0.089-1.198,0.134-1.797c2.445,0.004,4.89,0.009,7.336,0.013C94.413,68.064,95.718,71.107,95.208,74.323z"/>
	<path fill="#FCECAB" d="M94.386,64.9c-2.445-0.004-4.891-0.009-7.336-0.013c-0.716-2.23-1.016-4.511-0.781-6.86
		c0.664-0.081,1.345-0.09,1.989-0.253c4.772-1.211,6.07-0.161,6.134,5.017C94.4,63.493,94.388,64.197,94.386,64.9z"/>
	<path fill="#FEF2BF" d="M91.934,28.036c-2.741-0.111-5.327,1.338-8.101,0.878c-0.024-1.998-0.05-3.996-0.075-5.994
		c2.452-0.011,4.904-0.022,7.356-0.033c0.123,1.187-0.36,2.533,0.828,3.439C91.939,26.897,91.936,27.466,91.934,28.036z"/>
	<path fill="#5E4D26" d="M56.765,19.251c-0.566,0.389-1.132,0.778-1.698,1.166c-0.784,0.056-1.569,0.113-2.354,0.169
		c-1.4-0.32-2.8-0.64-4.201-0.96c-0.12-0.223-0.303-0.329-0.548-0.317c-0.455-0.558-0.91-1.116-1.365-1.673
		c-0.157-0.234-0.313-0.468-0.469-0.703l0.225,0.241c0,0,0.305-0.107,0.306-0.106C50.031,17.796,53.398,18.524,56.765,19.251z"/>
	<path fill="#FEF2BF" d="M46.131,16.934c0.156,0.234,0.312,0.468,0.469,0.703c-7.354,0.039-14.709,0.084-22.064,0.112
		c-1.069,0.004-2.211,0.206-3.02-0.847C29.721,16.913,37.926,16.923,46.131,16.934z"/>
	<path fill="#FEF4C7" d="M59.918,88.791c-11.971,0.004-23.943,0.008-35.914,0.011c-0.012-0.253-0.018-0.505-0.016-0.758
		c2.181-0.007,4.361-0.013,6.542-0.02c8.19,0,16.38,0,24.57-0.001C56.703,88.298,58.478,87.392,59.918,88.791z"/>
	<path fill="#E8D8B8" d="M48.513,19.627c1.4,0.32,2.8,0.64,4.199,0.959c-0.021,0.433-0.041,0.867-0.061,1.301L52.5,22.041
		c-0.641-0.113-1.391-1.204-1.876-0.009c-0.237,0.584,0.546,0.727,1.053,0.793c-0.074,0.605-0.149,1.21-0.223,1.815
		c-0.985-0.022-1.97-0.044-2.955-0.066C48.503,22.925,48.508,21.276,48.513,19.627z"/>
	<path fill="#807E7B" d="M51.454,24.641c0.074-0.605,0.149-1.21,0.223-1.814c0.274-0.261,0.549-0.523,0.823-0.785
		c0,0,0.152-0.155,0.151-0.153c0.822,0.047,1.645,0.092,2.467,0.137c0.771,0.138,1.613,0.121,2.295,0.456
		c0.744,0.366,1.92,0.515,1.659,1.927c-0.205,1.111-1.123,1.043-1.845,1.216c-1.941,0.466-3.94,0.761-5.334,2.496
		C48.667,27.388,51.977,25.748,51.454,24.641z"/>
	<path fill="#DBCB8A" d="M55.118,22.025c-0.823-0.045-1.645-0.09-2.467-0.137c0.02-0.435,0.04-0.869,0.062-1.302
		c0.786-0.056,1.571-0.112,2.355-0.169C55.084,20.953,55.101,21.489,55.118,22.025z"/>
	<path fill="#FCEFB5" d="M55.099,88.024c-8.19,0-16.38,0-24.57,0.001c2.92-6.709,10.83-9.708,17.876-6.356
		C51.127,82.963,54.911,83.579,55.099,88.024z"/>
	<path fill="#DBCB8A" d="M52.5,22.041c-0.274,0.262-0.548,0.524-0.823,0.785c-0.508-0.067-1.29-0.21-1.053-0.794
		C51.108,20.837,51.858,21.928,52.5,22.041z"/>
</g>
</svg>
