<svg xmlns="http://www.w3.org/2000/svg" xmlns:xlink="http://www.w3.org/1999/xlink" version="1.1" id="Layer_1" x="0px" y="0px" width="100px" height="100px" viewBox="0 0 100 100" enable-background="new 0 0 100 100" xml:space="preserve">
<g id="XMLID_13_">
	<g>
		<g id="XMLID_14_">
			<g>
				<path d="M20.965,14.972c0.501-0.587,0.962-1.019,1.321-1.194l7.871-3.981c1.823-0.934,4.065-0.205,4.992,1.641l8.471,16.73      c0.927,1.831,0.19,4.065-1.647,4.984l-7.863,3.988c-0.94,0.488-2.775,0.297-5.42-0.24c-1.216,6.321,2.839,13.683,10.829,22.068      c6.484,6.796,16.335,16.462,25.796,14.369c-2.647-3.694-1.797-6.194-0.82-7.453l5.501-7.128      c1.272-1.654,3.649-1.966,5.296-0.686l15.168,11.674c1.655,1.287,1.966,3.663,0.687,5.325l-5.495,7.12      c-0.269,0.354-0.876,0.735-1.682,1.117l0.041,0.085C61.234,94.84,39.895,80.23,28.842,67.383      C12.967,48.906,10.4,36.666,16.905,22.411C18.002,20,19.366,17.531,20.965,14.972z"/>
			</g>
		</g>
	</g>
</g>
</svg>