<?xml version="1.0" encoding="utf-8"?>
<!-- Generator: Adobe Illustrator 17.0.0, SVG Export Plug-In . SVG Version: 6.00 Build 0)  -->
<!DOCTYPE svg PUBLIC "-//W3C//DTD SVG 1.1//EN" "http://www.w3.org/Graphics/SVG/1.1/DTD/svg11.dtd">
<svg version="1.1" id="Layer_1" xmlns="http://www.w3.org/2000/svg" xmlns:xlink="http://www.w3.org/1999/xlink" x="0px" y="0px"
	 width="206.171px" height="273.999px" viewBox="0 0 206.171 273.999" enable-background="new 0 0 206.171 273.999"
	 xml:space="preserve">
<g>
	<g>
		<path fill="#9B59B6" d="M5.999,0c44.994,0,89.989,0,134.983,0c-0.037,15.448-0.115,30.897-0.095,46.345
			c0.01,7.584,4.13,11.61,11.695,11.655c13.951,0.082,27.902,0.132,41.852,0.258c1.7,0.015,3.775-0.75,4.811,1.525
			c-0.072,24.635-0.186,49.27-0.208,73.905c-0.036,40.286,0.006,80.572-0.026,120.858c-0.007,8.992-3.304,12.482-11.717,12.483
			c-59.763,0.005-119.527-0.016-179.29-0.029c-3.066-2.282-5.961-4.733-8.006-8.032C0,174.645,0,90.322,0,5.999
			C1.867,3.866,3.262,1.262,5.999,0z"/>
	</g>
	<path fill="#6E587A" d="M199.246,59.783c5.347,3.739,6.957,8.679,6.925,15.315c-0.29,60.948-0.19,121.898-0.239,182.848
		c-0.012,15.078-0.902,16.034-15.706,16.04c-56.786,0.024-113.572-0.069-170.358,0.013c-5.593,0.008-9.788-1.473-11.862-6.999
		c59.764,0.013,119.527,0.035,179.29,0.03c8.412-0.001,11.71-3.491,11.717-12.483c0.031-40.286-0.01-80.572,0.026-120.858
		C199.06,109.053,199.174,84.418,199.246,59.783z"/>
</g>
<text transform="matrix(1 0 0 1 18.0171 77.1677)" fill="#FFFFFF" font-family="'MyriadPro-Semibold'" font-size="43.9118">TASK</text>
<path fill="#CA92EA" d="M99.377,110.183c33.611,0.015,60.719,27.225,60.701,60.928c-0.018,33.596-27.266,60.71-60.975,60.679
	c-33.47-0.031-60.538-27.286-60.615-60.847C38.411,137.425,66.171,109.842,99.377,110.183z M153.119,171.041
	c0.146-28.4-22.667-52.769-52.222-53.372c-31.176-0.636-54.646,24.716-54.618,53.335c0.028,28.675,23.076,52.891,52.467,53.397
	C129.315,224.927,153.256,200.041,153.119,171.041z"/>
<path fill="#FFFFFF" d="M91.616,179.295c0.345-0.324,0.969-0.868,1.547-1.458c10.198-10.407,20.323-20.887,30.646-31.169
	c1.918-1.91,4.543-3.192,7.005-4.446c1.671-0.851,3.413-0.395,4.771,1.113c1.271,1.412,2.541,2.848,3.971,4.089
	c2.115,1.835,2.285,3.994,1.091,6.232c-1.213,2.273-2.42,4.693-4.187,6.503c-12.492,12.793-25.13,25.444-37.714,38.147
	c-0.791,0.798-1.506,1.671-2.293,2.474c-3.021,3.077-6.418,3.301-9.646,0.379c-2.711-2.454-5.203-5.149-7.785-7.745
	c-5.167-5.193-10.414-10.311-15.441-15.636c-1.53-1.621-2.59-3.748-3.605-5.773c-0.842-1.68-0.148-3.291,1.09-4.598
	c1.45-1.532,2.953-3.015,4.439-4.512c2.755-2.775,5.262-3.18,8.343-0.647c2.913,2.395,5.371,5.337,8.099,7.967
	C85.079,173.236,88.288,176.177,91.616,179.295z"/>
</svg>
